<svg xmlns="http://www.w3.org/2000/svg" width="1920" height="1080"><path d="M1034,550L1155,414L1016,395Z" fill="#0080b6" stroke="#0080b6" stroke-width="1.51"/><path d="M1034,550L1196,533L1155,414Z" fill="#007fb5" stroke="#007fb5" stroke-width="1.51"/><path d="M1155,414L1150,266L1016,395Z" fill="#008dc6" stroke="#008dc6" stroke-width="1.51"/><path d="M1338,357L1150,266L1155,414Z" fill="#0095d1" stroke="#0095d1" stroke-width="1.51"/><path d="M1034,550L1187,668L1196,533Z" fill="#0080b6" stroke="#0080b6" stroke-width="1.51"/><path d="M1150,266L1036,239L1016,395Z" fill="#0091cc" stroke="#0091cc" stroke-width="1.51"/><path d="M1016,395L849,569L1034,550Z" fill="#0074a8" stroke="#0074a8" stroke-width="1.51"/><path d="M1036,239L862,352L1016,395Z" fill="#0088c0" stroke="#0088c0" stroke-width="1.51"/><path d="M862,352L849,569L1016,395Z" fill="#007eb4" stroke="#007eb4" stroke-width="1.51"/><path d="M1034,550L1082,720L1187,668Z" fill="#0084bb" stroke="#0084bb" stroke-width="1.51"/><path d="M839,740L1082,720L1034,550Z" fill="#0080b6" stroke="#0080b6" stroke-width="1.51"/><path d="M1196,533L1338,357L1155,414Z" fill="#008cc5" stroke="#008cc5" stroke-width="1.51"/><path d="M1346,565L1338,357L1196,533Z" fill="#008bc4" stroke="#008bc4" stroke-width="1.51"/><path d="M1187,668L1346,565L1196,533Z" fill="#0087bf" stroke="#0087bf" stroke-width="1.51"/><path d="M707,425L731,561L849,569Z" fill="#007fb5" stroke="#007fb5" stroke-width="1.51"/><path d="M1036,239L844,247L862,352Z" fill="#0090ca" stroke="#0090ca" stroke-width="1.51"/><path d="M707,425L849,569L862,352Z" fill="#0083ba" stroke="#0083ba" stroke-width="1.51"/><path d="M849,569L839,740L1034,550Z" fill="#007bb1" stroke="#007bb1" stroke-width="1.51"/><path d="M722,651L839,740L849,569Z" fill="#0086be" stroke="#0086be" stroke-width="1.51"/><path d="M1150,266L1186,112L1036,239Z" fill="#449fd5" stroke="#449fd5" stroke-width="1.51"/><path d="M1036,239L876,120L844,247Z" fill="#4497cb" stroke="#4497cb" stroke-width="1.51"/><path d="M1368,230L1186,112L1150,266Z" fill="#47a6de" stroke="#47a6de" stroke-width="1.51"/><path d="M721,226L707,425L862,352Z" fill="#0093ce" stroke="#0093ce" stroke-width="1.51"/><path d="M1338,357L1368,230L1150,266Z" fill="#00a1df" stroke="#00a1df" stroke-width="1.51"/><path d="M1452,206L1368,230L1338,357Z" fill="#11aae8" stroke="#11aae8" stroke-width="1.51"/><path d="M839,740L997,834L1082,720Z" fill="#008ac2" stroke="#008ac2" stroke-width="1.51"/><path d="M1082,720L1165,833L1187,668Z" fill="#0092cc" stroke="#0092cc" stroke-width="1.51"/><path d="M1187,668L1379,721L1346,565Z" fill="#0092cc" stroke="#0092cc" stroke-width="1.51"/><path d="M997,834L1165,833L1082,720Z" fill="#0094cf" stroke="#0094cf" stroke-width="1.51"/><path d="M1165,833L1379,721L1187,668Z" fill="#0098d4" stroke="#0098d4" stroke-width="1.51"/><path d="M1346,565L1486,551L1338,357Z" fill="#0090ca" stroke="#0090ca" stroke-width="1.51"/><path d="M1186,112L1023,73L1036,239Z" fill="#61a3d2" stroke="#61a3d2" stroke-width="1.51"/><path d="M544,525L722,651L731,561Z" fill="#0087be" stroke="#0087be" stroke-width="1.51"/><path d="M731,561L722,651L849,569Z" fill="#0082b8" stroke="#0082b8" stroke-width="1.51"/><path d="M1023,73L876,120L1036,239Z" fill="#5d9cca" stroke="#5d9cca" stroke-width="1.51"/><path d="M844,247L721,226L862,352Z" fill="#0097d3" stroke="#0097d3" stroke-width="1.51"/><path d="M1453,701L1486,551L1346,565Z" fill="#0094d0" stroke="#0094d0" stroke-width="1.51"/><path d="M876,120L721,226L844,247Z" fill="#489ed4" stroke="#489ed4" stroke-width="1.51"/><path d="M997,834L1080,980L1165,833Z" fill="#489dd2" stroke="#489dd2" stroke-width="1.51"/><path d="M839,740L901,870L997,834Z" fill="#0d92cb" stroke="#0d92cb" stroke-width="1.51"/><path d="M693,808L901,870L839,740Z" fill="#0097d2" stroke="#0097d2" stroke-width="1.51"/><path d="M1186,112L1081,-65L1023,73Z" fill="#85aed4" stroke="#85aed4" stroke-width="1.51"/><path d="M1368,230L1337,108L1186,112Z" fill="#62b0e3" stroke="#62b0e3" stroke-width="1.51"/><path d="M1452,206L1337,108L1368,230Z" fill="#56b3ea" stroke="#56b3ea" stroke-width="1.51"/><path d="M1379,721L1453,701L1346,565Z" fill="#0099d4" stroke="#0099d4" stroke-width="1.51"/><path d="M1493,854L1453,701L1379,721Z" fill="#03a7e6" stroke="#03a7e6" stroke-width="1.51"/><path d="M1529,397L1452,206L1338,357Z" fill="#00a7e6" stroke="#00a7e6" stroke-width="1.51"/><path d="M1486,551L1529,397L1338,357Z" fill="#109ad6" stroke="#109ad6" stroke-width="1.51"/><path d="M1625,544L1529,397L1486,551Z" fill="#4099ce" stroke="#4099ce" stroke-width="1.51"/><path d="M1165,833L1320,891L1379,721Z" fill="#0fa3e1" stroke="#0fa3e1" stroke-width="1.51"/><path d="M1223,1023L1320,891L1165,833Z" fill="#5baade" stroke="#5baade" stroke-width="1.51"/><path d="M930,1004L1080,980L997,834Z" fill="#609dcc" stroke="#609dcc" stroke-width="1.51"/><path d="M722,651L693,808L839,740Z" fill="#0092cd" stroke="#0092cd" stroke-width="1.51"/><path d="M901,870L930,1004L997,834Z" fill="#4f99ca" stroke="#4f99ca" stroke-width="1.51"/><path d="M543,713L693,808L722,651Z" fill="#0098d3" stroke="#0098d3" stroke-width="1.51"/><path d="M721,226L565,384L707,425Z" fill="#0098d4" stroke="#0098d4" stroke-width="1.51"/><path d="M876,120L721,91L721,226Z" fill="#61a6d7" stroke="#61a6d7" stroke-width="1.51"/><path d="M921,-57L721,91L876,120Z" fill="#81acd3" stroke="#81acd3" stroke-width="1.51"/><path d="M707,425L544,525L731,561Z" fill="#0086bf" stroke="#0086bf" stroke-width="1.51"/><path d="M584,189L565,384L721,226Z" fill="#0ba4e1" stroke="#0ba4e1" stroke-width="1.51"/><path d="M1023,73L921,-57L876,120Z" fill="#80a6cb" stroke="#80a6cb" stroke-width="1.51"/><path d="M1234,-56L1081,-65L1186,112Z" fill="#94b7da" stroke="#94b7da" stroke-width="1.51"/><path d="M565,384L544,525L707,425Z" fill="#0091cb" stroke="#0091cb" stroke-width="1.51"/><path d="M1337,108L1234,-56L1186,112Z" fill="#85b7e0" stroke="#85b7e0" stroke-width="1.51"/><path d="M1383,-37L1234,-56L1337,108Z" fill="#98c1e6" stroke="#98c1e6" stroke-width="1.51"/><path d="M1081,-65L921,-57L1023,73Z" fill="#8fadce" stroke="#8fadce" stroke-width="1.51"/><path d="M1617,683L1625,544L1486,551Z" fill="#499cd0" stroke="#499cd0" stroke-width="1.51"/><path d="M1641,103L1455,44L1452,206Z" fill="#84c1ef" stroke="#84c1ef" stroke-width="1.51"/><path d="M1617,683L1486,551L1453,701Z" fill="#389ed6" stroke="#389ed6" stroke-width="1.51"/><path d="M684,966L930,1004L901,870Z" fill="#64a4d2" stroke="#64a4d2" stroke-width="1.51"/><path d="M721,91L584,189L721,226Z" fill="#59abde" stroke="#59abde" stroke-width="1.51"/><path d="M565,384L436,551L544,525Z" fill="#0092cc" stroke="#0092cc" stroke-width="1.51"/><path d="M575,124L584,189L721,91Z" fill="#69b2e3" stroke="#69b2e3" stroke-width="1.51"/><path d="M1452,206L1455,44L1337,108Z" fill="#72bbed" stroke="#72bbed" stroke-width="1.51"/><path d="M1660,258L1452,206L1529,397Z" fill="#47b1eb" stroke="#47b1eb" stroke-width="1.51"/><path d="M1320,891L1493,854L1379,721Z" fill="#1cabe9" stroke="#1cabe9" stroke-width="1.51"/><path d="M1360,1001L1493,854L1320,891Z" fill="#5eb5ea" stroke="#5eb5ea" stroke-width="1.51"/><path d="M1080,980L1223,1023L1165,833Z" fill="#66a8d8" stroke="#66a8d8" stroke-width="1.51"/><path d="M1151,1116L1223,1023L1080,980Z" fill="#87b2d9" stroke="#87b2d9" stroke-width="1.51"/><path d="M1493,854L1617,683L1453,701Z" fill="#3caae4" stroke="#3caae4" stroke-width="1.51"/><path d="M693,808L684,966L901,870Z" fill="#49a2d8" stroke="#49a2d8" stroke-width="1.51"/><path d="M544,525L543,713L722,651Z" fill="#0090ca" stroke="#0090ca" stroke-width="1.51"/><path d="M1455,44L1383,-37L1337,108Z" fill="#8fc3eb" stroke="#8fc3eb" stroke-width="1.51"/><path d="M1625,544L1671,407L1529,397Z" fill="#53a2d5" stroke="#53a2d5" stroke-width="1.51"/><path d="M1794,512L1671,407L1625,544Z" fill="#66a3d0" stroke="#66a3d0" stroke-width="1.51"/><path d="M1223,1023L1360,1001L1320,891Z" fill="#74b5e4" stroke="#74b5e4" stroke-width="1.51"/><path d="M380,367L436,551L565,384Z" fill="#189bd6" stroke="#189bd6" stroke-width="1.51"/><path d="M614,-29L575,124L721,91Z" fill="#84b9e3" stroke="#84b9e3" stroke-width="1.51"/><path d="M1671,407L1660,258L1529,397Z" fill="#5aaee2" stroke="#5aaee2" stroke-width="1.51"/><path d="M1455,44L1484,-107L1383,-37Z" fill="#9dcaf0" stroke="#9dcaf0" stroke-width="1.51"/><path d="M619,955L684,966L693,808Z" fill="#58abdf" stroke="#58abdf" stroke-width="1.51"/><path d="M543,713L540,826L693,808Z" fill="#00a2e0" stroke="#00a2e0" stroke-width="1.51"/><path d="M436,734L540,826L543,713Z" fill="#00a5e3" stroke="#00a5e3" stroke-width="1.51"/><path d="M544,525L436,551L543,713Z" fill="#0092cd" stroke="#0092cd" stroke-width="1.51"/><path d="M380,367L565,384L386,261Z" fill="#26a7e3" stroke="#26a7e3" stroke-width="1.51"/><path d="M1771,735L1794,512L1625,544Z" fill="#6ea5d1" stroke="#6ea5d1" stroke-width="1.51"/><path d="M1493,854L1607,845L1617,683Z" fill="#4fb3ec" stroke="#4fb3ec" stroke-width="1.51"/><path d="M1532,1007L1607,845L1493,854Z" fill="#73bcef" stroke="#73bcef" stroke-width="1.51"/><path d="M1015,1163L1151,1116L1080,980Z" fill="#91b2d3" stroke="#91b2d3" stroke-width="1.51"/><path d="M1223,1023L1315,1162L1360,1001Z" fill="#93bee5" stroke="#93bee5" stroke-width="1.51"/><path d="M1015,1163L1080,980L930,1004Z" fill="#85a9ce" stroke="#85a9ce" stroke-width="1.51"/><path d="M748,1116L851,1124L930,1004Z" fill="#91b1d4" stroke="#91b1d4" stroke-width="1.51"/><path d="M540,826L619,955L693,808Z" fill="#41a9e2" stroke="#41a9e2" stroke-width="1.51"/><path d="M1660,258L1641,103L1452,206Z" fill="#78beef" stroke="#78beef" stroke-width="1.51"/><path d="M386,261L565,384L584,189Z" fill="#00aae9" stroke="#00aae9" stroke-width="1.51"/><path d="M692,-119L614,-29L721,91Z" fill="#97bde0" stroke="#97bde0" stroke-width="1.51"/><path d="M1081,-65L1031,-216L921,-57Z" fill="#8fadce" stroke="#8fadce" stroke-width="1.51"/><path d="M921,-57L692,-119L721,91Z" fill="#93b6d8" stroke="#93b6d8" stroke-width="1.51"/><path d="M1195,-213L1031,-216L1081,-65Z" fill="#92b3d5" stroke="#92b3d5" stroke-width="1.51"/><path d="M1195,-213L1081,-65L1234,-56Z" fill="#94b7db" stroke="#94b7db" stroke-width="1.51"/><path d="M1366,-227L1195,-213L1234,-56Z" fill="#97bee2" stroke="#97bee2" stroke-width="1.51"/><path d="M1366,-227L1234,-56L1383,-37Z" fill="#9ac2e7" stroke="#9ac2e7" stroke-width="1.51"/><path d="M540,826L448,850L619,955Z" fill="#4ab0ea" stroke="#4ab0ea" stroke-width="1.51"/><path d="M436,551L436,734L543,713Z" fill="#0e9dd9" stroke="#0e9dd9" stroke-width="1.51"/><path d="M748,1116L930,1004L684,966Z" fill="#83afd7" stroke="#83afd7" stroke-width="1.51"/><path d="M851,1124L1015,1163L930,1004Z" fill="#8eabcc" stroke="#8eabcc" stroke-width="1.51"/><path d="M732,-199L692,-119L921,-57Z" fill="#93b5d8" stroke="#93b5d8" stroke-width="1.51"/><path d="M1623,-120L1484,-107L1455,44Z" fill="#abcff0" stroke="#abcff0" stroke-width="1.51"/><path d="M386,261L584,189L433,114Z" fill="#57b6ee" stroke="#57b6ee" stroke-width="1.51"/><path d="M436,551L305,583L436,734Z" fill="#3b9cd3" stroke="#3b9cd3" stroke-width="1.51"/><path d="M1315,1162L1223,1023L1151,1116Z" fill="#96bcdf" stroke="#96bcdf" stroke-width="1.51"/><path d="M1511,1119L1532,1007L1360,1001Z" fill="#96c7ef" stroke="#96c7ef" stroke-width="1.51"/><path d="M1360,1001L1532,1007L1493,854Z" fill="#75beef" stroke="#75beef" stroke-width="1.51"/><path d="M1771,735L1617,683L1607,845Z" fill="#67b4e7" stroke="#67b4e7" stroke-width="1.51"/><path d="M1771,735L1625,544L1617,683Z" fill="#64a8d9" stroke="#64a8d9" stroke-width="1.51"/><path d="M1671,407L1834,280L1660,258Z" fill="#74b9e8" stroke="#74b9e8" stroke-width="1.51"/><path d="M1660,258L1847,86L1641,103Z" fill="#9fcaf0" stroke="#9fcaf0" stroke-width="1.51"/><path d="M433,114L584,189L575,124Z" fill="#69b7eb" stroke="#69b7eb" stroke-width="1.51"/><path d="M1005,1321L1185,1282L1015,1163Z" fill="#91b0d2" stroke="#91b0d2" stroke-width="1.51"/><path d="M582,1140L748,1116L684,966Z" fill="#95bce1" stroke="#95bce1" stroke-width="1.51"/><path d="M582,1140L684,966L619,955Z" fill="#85bae4" stroke="#85bae4" stroke-width="1.51"/><path d="M614,-29L433,114L575,124Z" fill="#84beea" stroke="#84beea" stroke-width="1.51"/><path d="M406,-33L433,114L614,-29Z" fill="#98c7ef" stroke="#98c7ef" stroke-width="1.51"/><path d="M1185,1282L1315,1162L1151,1116Z" fill="#96bbde" stroke="#96bbde" stroke-width="1.51"/><path d="M436,734L448,850L540,826Z" fill="#0aacec" stroke="#0aacec" stroke-width="1.51"/><path d="M268,824L448,850L436,734Z" fill="#43b1ed" stroke="#43b1ed" stroke-width="1.51"/><path d="M1790,818L1771,735L1607,845Z" fill="#76bded" stroke="#76bded" stroke-width="1.51"/><path d="M584,-240L406,-33L614,-29Z" fill="#9bc6eb" stroke="#9bc6eb" stroke-width="1.51"/><path d="M886,-274L732,-199L921,-57Z" fill="#91b1d3" stroke="#91b1d3" stroke-width="1.51"/><path d="M1484,-107L1366,-227L1383,-37Z" fill="#9cc8ed" stroke="#9cc8ed" stroke-width="1.51"/><path d="M1195,-213L886,-274L1031,-216Z" fill="#90aed0" stroke="#90aed0" stroke-width="1.51"/><path d="M1455,-262L886,-274L1195,-213Z" fill="#95b8db" stroke="#95b8db" stroke-width="1.51"/><path d="M1031,-216L886,-274L921,-57Z" fill="#8eabcb" stroke="#8eabcb" stroke-width="1.51"/><path d="M1949,559L1839,395L1794,512Z" fill="#86acd1" stroke="#86acd1" stroke-width="1.51"/><path d="M1794,512L1839,395L1671,407Z" fill="#77acd7" stroke="#77acd7" stroke-width="1.51"/><path d="M1839,395L1834,280L1671,407Z" fill="#7eb7e3" stroke="#7eb7e3" stroke-width="1.51"/><path d="M1641,103L1623,-120L1455,44Z" fill="#b2d1f1" stroke="#b2d1f1" stroke-width="1.51"/><path d="M380,367L305,583L436,551Z" fill="#4099ce" stroke="#4099ce" stroke-width="1.51"/><path d="M266,348L305,583L380,367Z" fill="#53a4d7" stroke="#53a4d7" stroke-width="1.51"/><path d="M1532,1007L1689,954L1607,845Z" fill="#8dc4f0" stroke="#8dc4f0" stroke-width="1.51"/><path d="M1612,1165L1689,954L1532,1007Z" fill="#afd0f0" stroke="#afd0f0" stroke-width="1.51"/><path d="M1315,1162L1511,1119L1360,1001Z" fill="#9cc7ec" stroke="#9cc7ec" stroke-width="1.51"/><path d="M1689,954L1790,818L1607,845Z" fill="#88c3ef" stroke="#88c3ef" stroke-width="1.51"/><path d="M1771,735L1949,559L1794,512Z" fill="#83acd2" stroke="#83acd2" stroke-width="1.51"/><path d="M1762,-104L1623,-120L1641,103Z" fill="#c5d8f1" stroke="#c5d8f1" stroke-width="1.51"/><path d="M1484,-107L1455,-262L1366,-227Z" fill="#9dc9ef" stroke="#9dc9ef" stroke-width="1.51"/><path d="M386,261L266,348L380,367Z" fill="#4faee6" stroke="#4faee6" stroke-width="1.51"/><path d="M251,234L266,348L386,261Z" fill="#5db6ed" stroke="#5db6ed" stroke-width="1.51"/><path d="M1366,-227L1455,-262L1195,-213Z" fill="#9ac3e8" stroke="#9ac3e8" stroke-width="1.51"/><path d="M1626,-244L1455,-262L1484,-107Z" fill="#accff0" stroke="#accff0" stroke-width="1.51"/><path d="M1015,1163L1185,1282L1151,1116Z" fill="#93b4d7" stroke="#93b4d7" stroke-width="1.51"/><path d="M1315,1162L1326,1271L1511,1119Z" fill="#9bc6eb" stroke="#9bc6eb" stroke-width="1.51"/><path d="M1005,1321L1015,1163L927,1328Z" fill="#8eabcc" stroke="#8eabcc" stroke-width="1.51"/><path d="M305,583L274,668L436,734Z" fill="#4da4d9" stroke="#4da4d9" stroke-width="1.51"/><path d="M107,677L274,668L305,583Z" fill="#67a8d7" stroke="#67a8d7" stroke-width="1.51"/><path d="M927,1328L1015,1163L851,1124Z" fill="#8eaccc" stroke="#8eaccc" stroke-width="1.51"/><path d="M461,1121L582,1140L619,955Z" fill="#98c4ea" stroke="#98c4ea" stroke-width="1.51"/><path d="M407,998L619,955L448,850Z" fill="#68b9ee" stroke="#68b9ee" stroke-width="1.51"/><path d="M433,114L251,234L386,261Z" fill="#6dbbef" stroke="#6dbbef" stroke-width="1.51"/><path d="M584,-240L614,-29L692,-119Z" fill="#98bfe4" stroke="#98bfe4" stroke-width="1.51"/><path d="M1185,1282L1326,1271L1315,1162Z" fill="#98bfe3" stroke="#98bfe3" stroke-width="1.51"/><path d="M268,824L407,998L448,850Z" fill="#6fbcef" stroke="#6fbcef" stroke-width="1.51"/><path d="M1185,1282L1525,1331L1326,1271Z" fill="#9ac3e8" stroke="#9ac3e8" stroke-width="1.51"/><path d="M927,1328L851,1124L691,1289Z" fill="#92b3d5" stroke="#92b3d5" stroke-width="1.51"/><path d="M266,348L137,415L305,583Z" fill="#66a6d5" stroke="#66a6d5" stroke-width="1.51"/><path d="M309,51L251,234L433,114Z" fill="#8dc4f0" stroke="#8dc4f0" stroke-width="1.51"/><path d="M1948,257L1847,86L1834,280Z" fill="#a9cef0" stroke="#a9cef0" stroke-width="1.51"/><path d="M1834,280L1847,86L1660,258Z" fill="#98c8f0" stroke="#98c8f0" stroke-width="1.51"/><path d="M732,-199L584,-240L692,-119Z" fill="#97bde1" stroke="#97bde1" stroke-width="1.51"/><path d="M886,-274L584,-240L732,-199Z" fill="#95b8dc" stroke="#95b8dc" stroke-width="1.51"/><path d="M406,-33L309,51L433,114Z" fill="#a1cbf0" stroke="#a1cbf0" stroke-width="1.51"/><path d="M223,-89L309,51L406,-33Z" fill="#bad4f1" stroke="#bad4f1" stroke-width="1.51"/><path d="M691,1289L851,1124L748,1116Z" fill="#94b6da" stroke="#94b6da" stroke-width="1.51"/><path d="M1969,661L1949,559L1771,735Z" fill="#90b5da" stroke="#90b5da" stroke-width="1.51"/><path d="M1839,395L1951,363L1834,280Z" fill="#91bde5" stroke="#91bde5" stroke-width="1.51"/><path d="M1927,848L1969,661L1771,735Z" fill="#94c0e7" stroke="#94c0e7" stroke-width="1.51"/><path d="M1689,954L1827,958L1790,818Z" fill="#a2cbf0" stroke="#a2cbf0" stroke-width="1.51"/><path d="M1511,1119L1612,1165L1532,1007Z" fill="#b1d0f0" stroke="#b1d0f0" stroke-width="1.51"/><path d="M1525,1331L1612,1165L1511,1119Z" fill="#b0d0f0" stroke="#b0d0f0" stroke-width="1.51"/><path d="M1949,559L1951,363L1839,395Z" fill="#92b5d8" stroke="#92b5d8" stroke-width="1.51"/><path d="M107,677L268,824L274,668Z" fill="#6eb3e3" stroke="#6eb3e3" stroke-width="1.51"/><path d="M274,668L268,824L436,734Z" fill="#54aee4" stroke="#54aee4" stroke-width="1.51"/><path d="M1847,86L1762,-104L1641,103Z" fill="#c9d9f2" stroke="#c9d9f2" stroke-width="1.51"/><path d="M1623,-120L1626,-244L1484,-107Z" fill="#b5d2f1" stroke="#b5d2f1" stroke-width="1.51"/><path d="M1951,363L1948,257L1834,280Z" fill="#9ac6ec" stroke="#9ac6ec" stroke-width="1.51"/><path d="M1847,86L2004,-86L1762,-104Z" fill="#e4e4f2" stroke="#e4e4f2" stroke-width="1.51"/><path d="M1795,1178L1827,958L1689,954Z" fill="#c6d8f1" stroke="#c6d8f1" stroke-width="1.51"/><path d="M1762,-104L1626,-244L1623,-120Z" fill="#c4d8f1" stroke="#c4d8f1" stroke-width="1.51"/><path d="M247,1114L461,1121L407,998Z" fill="#b0d0f0" stroke="#b0d0f0" stroke-width="1.51"/><path d="M407,998L461,1121L619,955Z" fill="#8bc3ee" stroke="#8bc3ee" stroke-width="1.51"/><path d="M582,1140L691,1289L748,1116Z" fill="#97bde1" stroke="#97bde1" stroke-width="1.51"/><path d="M532,1320L691,1289L582,1140Z" fill="#99c1e6" stroke="#99c1e6" stroke-width="1.51"/><path d="M1949,559L2117,426L1951,363Z" fill="#93b4d7" stroke="#93b4d7" stroke-width="1.51"/><path d="M1951,363L2086,205L1948,257Z" fill="#9dc9ef" stroke="#9dc9ef" stroke-width="1.51"/><path d="M1927,848L1771,735L1790,818Z" fill="#8cc3ee" stroke="#8cc3ee" stroke-width="1.51"/><path d="M1827,958L1927,848L1790,818Z" fill="#a5ccf0" stroke="#a5ccf0" stroke-width="1.51"/><path d="M1948,257L1933,95L1847,86Z" fill="#c1d6f1" stroke="#c1d6f1" stroke-width="1.51"/><path d="M251,234L137,415L266,348Z" fill="#6fb5e6" stroke="#6fb5e6" stroke-width="1.51"/><path d="M70,207L137,415L251,234Z" fill="#7fbeed" stroke="#7fbeed" stroke-width="1.51"/><path d="M455,1266L532,1320L582,1140Z" fill="#9cc7ec" stroke="#9cc7ec" stroke-width="1.51"/><path d="M268,824L270,990L407,998Z" fill="#8cc4f0" stroke="#8cc4f0" stroke-width="1.51"/><path d="M76,992L270,990L268,824Z" fill="#a1cbf0" stroke="#a1cbf0" stroke-width="1.51"/><path d="M309,51L119,96L251,234Z" fill="#a2cbf0" stroke="#a2cbf0" stroke-width="1.51"/><path d="M584,-240L397,-220L406,-33Z" fill="#a0cbf0" stroke="#a0cbf0" stroke-width="1.51"/><path d="M251,-242L397,-220L584,-240Z" fill="#aacef0" stroke="#aacef0" stroke-width="1.51"/><path d="M1326,1271L1525,1331L1511,1119Z" fill="#a0cbf0" stroke="#a0cbf0" stroke-width="1.51"/><path d="M1612,1165L1795,1178L1689,954Z" fill="#c9d9f1" stroke="#c9d9f1" stroke-width="1.51"/><path d="M1827,958L1954,1041L1927,848Z" fill="#c4d8f1" stroke="#c4d8f1" stroke-width="1.51"/><path d="M1005,1321L1525,1331L1185,1282Z" fill="#97bce0" stroke="#97bce0" stroke-width="1.51"/><path d="M927,1328L1525,1331L1005,1321Z" fill="#94b6d9" stroke="#94b6d9" stroke-width="1.51"/><path d="M77,521L107,677L305,583Z" fill="#73a6d1" stroke="#73a6d1" stroke-width="1.51"/><path d="M2004,-86L1829,-187L1762,-104Z" fill="#e3e3f2" stroke="#e3e3f2" stroke-width="1.51"/><path d="M1762,-104L1829,-187L1626,-244Z" fill="#cfdcf1" stroke="#cfdcf1" stroke-width="1.51"/><path d="M5,377L77,521L137,415Z" fill="#87b2d8" stroke="#87b2d8" stroke-width="1.51"/><path d="M137,415L77,521L305,583Z" fill="#70a3ce" stroke="#70a3ce" stroke-width="1.51"/><path d="M1693,1351L1795,1178L1612,1165Z" fill="#c9d9f1" stroke="#c9d9f1" stroke-width="1.51"/><path d="M455,1266L582,1140L461,1121Z" fill="#9dc8ee" stroke="#9dc8ee" stroke-width="1.51"/><path d="M691,1289L532,1320L927,1328Z" fill="#95badd" stroke="#95badd" stroke-width="1.51"/><path d="M311,1280L455,1266L461,1121Z" fill="#aacef0" stroke="#aacef0" stroke-width="1.51"/><path d="M397,-220L223,-89L406,-33Z" fill="#b5d2f1" stroke="#b5d2f1" stroke-width="1.51"/><path d="M223,-89L119,96L309,51Z" fill="#c4d7f1" stroke="#c4d7f1" stroke-width="1.51"/><path d="M1969,661L2109,574L1949,559Z" fill="#91b0d2" stroke="#91b0d2" stroke-width="1.51"/><path d="M1948,257L2086,205L1933,95Z" fill="#b7d3f1" stroke="#b7d3f1" stroke-width="1.51"/><path d="M2104,680L2109,574L1969,661Z" fill="#93b5d8" stroke="#93b5d8" stroke-width="1.51"/><path d="M2104,680L1969,661L1927,848Z" fill="#98c0e4" stroke="#98c0e4" stroke-width="1.51"/><path d="M119,96L70,207L251,234Z" fill="#a0caf0" stroke="#a0caf0" stroke-width="1.51"/><path d="M2109,574L2117,426L1949,559Z" fill="#8eaccd" stroke="#8eaccd" stroke-width="1.51"/><path d="M1933,95L2004,-86L1847,86Z" fill="#e3e3f2" stroke="#e3e3f2" stroke-width="1.51"/><path d="M2117,426L2086,205L1951,363Z" fill="#9ac2e7" stroke="#9ac2e7" stroke-width="1.51"/><path d="M1795,1178L1954,1041L1827,958Z" fill="#dce0f2" stroke="#dce0f2" stroke-width="1.51"/><path d="M2237,196L2086,205L2117,426Z" fill="#9dc9ef" stroke="#9dc9ef" stroke-width="1.51"/><path d="M2158,847L2104,680L1927,848Z" fill="#9cc8ed" stroke="#9cc8ed" stroke-width="1.51"/><path d="M270,990L247,1114L407,998Z" fill="#adcff0" stroke="#adcff0" stroke-width="1.51"/><path d="M128,1122L247,1114L270,990Z" fill="#c9d9f1" stroke="#c9d9f1" stroke-width="1.51"/><path d="M107,677L70,818L268,824Z" fill="#7fbcea" stroke="#7fbcea" stroke-width="1.51"/><path d="M-44,673L70,818L107,677Z" fill="#91bde4" stroke="#91bde4" stroke-width="1.51"/><path d="M-9,572L107,677L77,521Z" fill="#86acd1" stroke="#86acd1" stroke-width="1.51"/><path d="M70,207L5,377L137,415Z" fill="#8cbee6" stroke="#8cbee6" stroke-width="1.51"/><path d="M1525,1331L1693,1351L1612,1165Z" fill="#bbd4f1" stroke="#bbd4f1" stroke-width="1.51"/><path d="M1795,1178L1979,1125L1954,1041Z" fill="#eae7f2" stroke="#eae7f2" stroke-width="1.51"/><path d="M927,1328L1693,1351L1525,1331Z" fill="#9bc6eb" stroke="#9bc6eb" stroke-width="1.51"/><path d="M137,1353L1693,1351L927,1328Z" fill="#8faccd" stroke="#8faccd" stroke-width="1.51"/><path d="M2145,106L2004,-86L1933,95Z" fill="#e1e3f2" stroke="#e1e3f2" stroke-width="1.51"/><path d="M223,-89L89,-106L119,96Z" fill="#d5def2" stroke="#d5def2" stroke-width="1.51"/><path d="M-45,102L-66,210L70,207Z" fill="#bbd4f1" stroke="#bbd4f1" stroke-width="1.51"/><path d="M397,-220L251,-242L223,-89Z" fill="#bed5f1" stroke="#bed5f1" stroke-width="1.51"/><path d="M142,-273L251,-242L584,-240Z" fill="#b8d3f1" stroke="#b8d3f1" stroke-width="1.51"/><path d="M5,377L-9,572L77,521Z" fill="#8caed1" stroke="#8caed1" stroke-width="1.51"/><path d="M2128,982L2158,847L1927,848Z" fill="#b7d2f1" stroke="#b7d2f1" stroke-width="1.51"/><path d="M1956,1326L1979,1125L1795,1178Z" fill="#eae7f2" stroke="#eae7f2" stroke-width="1.51"/><path d="M247,1114L311,1280L461,1121Z" fill="#b6d2f1" stroke="#b6d2f1" stroke-width="1.51"/><path d="M455,1266L311,1280L532,1320Z" fill="#a6cdf0" stroke="#a6cdf0" stroke-width="1.51"/><path d="M128,1122L311,1280L247,1114Z" fill="#c8d9f1" stroke="#c8d9f1" stroke-width="1.51"/><path d="M1693,1351L1778,1345L1795,1178Z" fill="#d2ddf2" stroke="#d2ddf2" stroke-width="1.51"/><path d="M2086,205L2145,106L1933,95Z" fill="#c6d8f1" stroke="#c6d8f1" stroke-width="1.51"/><path d="M2237,196L2145,106L2086,205Z" fill="#bcd4f1" stroke="#bcd4f1" stroke-width="1.51"/><path d="M2240,555L2117,426L2109,574Z" fill="#8faccd" stroke="#8faccd" stroke-width="1.51"/><path d="M-12,842L76,992L70,818Z" fill="#accff1" stroke="#accff1" stroke-width="1.51"/><path d="M70,818L76,992L268,824Z" fill="#9ac8f0" stroke="#9ac8f0" stroke-width="1.51"/><path d="M-9,572L-44,673L107,677Z" fill="#90b4d8" stroke="#90b4d8" stroke-width="1.51"/><path d="M-197,664L-44,673L-9,572Z" fill="#93b5d8" stroke="#93b5d8" stroke-width="1.51"/><path d="M2004,-86L1965,-249L1829,-187Z" fill="#ebe7f2" stroke="#ebe7f2" stroke-width="1.51"/><path d="M1829,-187L1965,-249L1626,-244Z" fill="#dae0f2" stroke="#dae0f2" stroke-width="1.51"/><path d="M1626,-244L1965,-249L1455,-262Z" fill="#c6d8f1" stroke="#c6d8f1" stroke-width="1.51"/><path d="M2119,-197L1965,-249L2004,-86Z" fill="#ebe7f2" stroke="#ebe7f2" stroke-width="1.51"/><path d="M142,-273L89,-106L223,-89Z" fill="#d4ddf2" stroke="#d4ddf2" stroke-width="1.51"/><path d="M70,207L-66,210L5,377Z" fill="#9ecaf0" stroke="#9ecaf0" stroke-width="1.51"/><path d="M2234,708L2240,555L2109,574Z" fill="#92b2d4" stroke="#92b2d4" stroke-width="1.51"/><path d="M2128,982L1927,848L1954,1041Z" fill="#c9d9f1" stroke="#c9d9f1" stroke-width="1.51"/><path d="M-44,673L-12,842L70,818Z" fill="#9bc5eb" stroke="#9bc5eb" stroke-width="1.51"/><path d="M76,992L128,1122L270,990Z" fill="#c6d8f1" stroke="#c6d8f1" stroke-width="1.51"/><path d="M-19,1046L128,1122L76,992Z" fill="#dbe0f2" stroke="#dbe0f2" stroke-width="1.51"/><path d="M2234,708L2109,574L2104,680Z" fill="#94b7da" stroke="#94b7da" stroke-width="1.51"/><path d="M1979,1125L2128,982L1954,1041Z" fill="#e3e3f2" stroke="#e3e3f2" stroke-width="1.51"/><path d="M2158,847L2234,708L2104,680Z" fill="#9ac2e7" stroke="#9ac2e7" stroke-width="1.51"/><path d="M2218,995L2128,982L2154,1186Z" fill="#e4e4f2" stroke="#e4e4f2" stroke-width="1.51"/><path d="M5,377L-150,401L-9,572Z" fill="#93b4d7" stroke="#93b4d7" stroke-width="1.51"/><path d="M-45,102L70,207L119,96Z" fill="#bed5f1" stroke="#bed5f1" stroke-width="1.51"/><path d="M89,-106L-45,102L119,96Z" fill="#dae0f2" stroke="#dae0f2" stroke-width="1.51"/><path d="M2256,889L2234,708L2158,847Z" fill="#9fcaf0" stroke="#9fcaf0" stroke-width="1.51"/><path d="M2145,106L2132,-91L2004,-86Z" fill="#ebe7f2" stroke="#ebe7f2" stroke-width="1.51"/><path d="M2279,374L2237,196L2117,426Z" fill="#9ac2e7" stroke="#9ac2e7" stroke-width="1.51"/><path d="M89,-106L-29,-110L-45,102Z" fill="#eae6f2" stroke="#eae6f2" stroke-width="1.51"/><path d="M251,-242L142,-273L223,-89Z" fill="#ccdaf1" stroke="#ccdaf1" stroke-width="1.51"/><path d="M886,-274L142,-273L584,-240Z" fill="#9bc6eb" stroke="#9bc6eb" stroke-width="1.51"/><path d="M2219,58L2132,-91L2145,106Z" fill="#e5e4f2" stroke="#e5e4f2" stroke-width="1.51"/><path d="M2234,708L2279,374L2240,555Z" fill="#8daacb" stroke="#8daacb" stroke-width="1.51"/><path d="M2240,555L2279,374L2117,426Z" fill="#93b4d7" stroke="#93b4d7" stroke-width="1.51"/><path d="M2245,-34L2219,58L2237,196Z" fill="#d7dff2" stroke="#d7dff2" stroke-width="1.51"/><path d="M2237,196L2219,58L2145,106Z" fill="#cadaf1" stroke="#cadaf1" stroke-width="1.51"/><path d="M-199,190L-150,401L-66,210Z" fill="#9ecaf0" stroke="#9ecaf0" stroke-width="1.51"/><path d="M-66,210L-150,401L5,377Z" fill="#9ac2e7" stroke="#9ac2e7" stroke-width="1.51"/><path d="M-237,995L-19,1046L-12,842Z" fill="#cadaf1" stroke="#cadaf1" stroke-width="1.51"/><path d="M1778,1345L1956,1326L1795,1178Z" fill="#dfe2f2" stroke="#dfe2f2" stroke-width="1.51"/><path d="M2132,-91L2119,-197L2004,-86Z" fill="#ebe7f2" stroke="#ebe7f2" stroke-width="1.51"/><path d="M2313,-203L2119,-197L2132,-91Z" fill="#ebe7f2" stroke="#ebe7f2" stroke-width="1.51"/><path d="M128,1122L137,1353L311,1280Z" fill="#cddbf1" stroke="#cddbf1" stroke-width="1.51"/><path d="M-12,842L-19,1046L76,992Z" fill="#c8d9f1" stroke="#c8d9f1" stroke-width="1.51"/><path d="M-208,819L-12,842L-44,673Z" fill="#9bc6eb" stroke="#9bc6eb" stroke-width="1.51"/><path d="M-11,-189L-29,-110L89,-106Z" fill="#e9e6f2" stroke="#e9e6f2" stroke-width="1.51"/><path d="M-199,190L-215,504L-150,401Z" fill="#98bee2" stroke="#98bee2" stroke-width="1.51"/><path d="M2234,708L2256,889L2279,374Z" fill="#94b7da" stroke="#94b7da" stroke-width="1.51"/><path d="M2218,995L2256,889L2158,847Z" fill="#bcd4f1" stroke="#bcd4f1" stroke-width="1.51"/><path d="M2218,995L2158,847L2128,982Z" fill="#c5d8f1" stroke="#c5d8f1" stroke-width="1.51"/><path d="M2154,1186L2128,982L1979,1125Z" fill="#ebe7f2" stroke="#ebe7f2" stroke-width="1.51"/><path d="M142,-273L-11,-189L89,-106Z" fill="#e0e2f2" stroke="#e0e2f2" stroke-width="1.51"/><path d="M-199,190L-66,210L-45,102Z" fill="#bdd5f1" stroke="#bdd5f1" stroke-width="1.51"/><path d="M2313,-203L2245,-34L2237,196Z" fill="#ebe7f2" stroke="#ebe7f2" stroke-width="1.51"/><path d="M2219,58L2245,-34L2132,-91Z" fill="#ebe7f2" stroke="#ebe7f2" stroke-width="1.51"/><path d="M-215,504L-197,664L-9,572Z" fill="#90aed0" stroke="#90aed0" stroke-width="1.51"/><path d="M-22,1346L137,1353L128,1122Z" fill="#dfe2f2" stroke="#dfe2f2" stroke-width="1.51"/><path d="M311,1280L137,1353L532,1320Z" fill="#b8d3f1" stroke="#b8d3f1" stroke-width="1.51"/><path d="M532,1320L137,1353L927,1328Z" fill="#9cc6ec" stroke="#9cc6ec" stroke-width="1.51"/><path d="M-199,190L-45,102L-234,114Z" fill="#c6d8f1" stroke="#c6d8f1" stroke-width="1.51"/><path d="M-150,401L-215,504L-9,572Z" fill="#90afd1" stroke="#90afd1" stroke-width="1.51"/><path d="M2134,1293L2154,1186L1979,1125Z" fill="#ebe7f2" stroke="#ebe7f2" stroke-width="1.51"/><path d="M2218,995L2237,1166L2256,889Z" fill="#dae0f2" stroke="#dae0f2" stroke-width="1.51"/><path d="M-174,-55L-45,102L-29,-110Z" fill="#ebe7f2" stroke="#ebe7f2" stroke-width="1.51"/><path d="M-215,504L-208,819L-197,664Z" fill="#95b8db" stroke="#95b8db" stroke-width="1.51"/><path d="M-197,664L-208,819L-44,673Z" fill="#98bfe3" stroke="#98bfe3" stroke-width="1.51"/><path d="M-19,1046L-65,1165L128,1122Z" fill="#e9e6f2" stroke="#e9e6f2" stroke-width="1.51"/><path d="M-187,1119L-65,1165L-19,1046Z" fill="#ebe7f2" stroke="#ebe7f2" stroke-width="1.51"/><path d="M1956,1326L2134,1293L1979,1125Z" fill="#ebe7f2" stroke="#ebe7f2" stroke-width="1.51"/><path d="M2154,1186L2237,1166L2218,995Z" fill="#ebe7f2" stroke="#ebe7f2" stroke-width="1.51"/><path d="M2261,1298L2237,1166L2154,1186Z" fill="#ebe7f2" stroke="#ebe7f2" stroke-width="1.51"/><path d="M-164,-247L-174,-55L-29,-110Z" fill="#ebe7f2" stroke="#ebe7f2" stroke-width="1.51"/><path d="M-199,190L-234,114L-215,504Z" fill="#9dcaf0" stroke="#9dcaf0" stroke-width="1.51"/><path d="M-215,504L-237,995L-208,819Z" fill="#9bc5ea" stroke="#9bc5ea" stroke-width="1.51"/><path d="M-174,-55L-234,114L-45,102Z" fill="#dde1f2" stroke="#dde1f2" stroke-width="1.51"/><path d="M2245,-34L2313,-203L2132,-91Z" fill="#ebe7f2" stroke="#ebe7f2" stroke-width="1.51"/><path d="M2119,-197L2313,-203L1965,-249Z" fill="#ebe7f2" stroke="#ebe7f2" stroke-width="1.51"/><path d="M2279,374L2313,-203L2237,196Z" fill="#c9d9f1" stroke="#c9d9f1" stroke-width="1.51"/><path d="M2261,1298L2313,-203L2279,374Z" fill="#90afd1" stroke="#90afd1" stroke-width="1.51"/><path d="M-65,1165L-22,1346L128,1122Z" fill="#e9e6f2" stroke="#e9e6f2" stroke-width="1.51"/><path d="M-169,1345L-22,1346L-65,1165Z" fill="#ebe7f2" stroke="#ebe7f2" stroke-width="1.51"/><path d="M-234,114L-237,995L-215,504Z" fill="#8daacb" stroke="#8daacb" stroke-width="1.51"/><path d="M-208,819L-237,995L-12,842Z" fill="#b5d2f1" stroke="#b5d2f1" stroke-width="1.51"/><path d="M-237,995L-187,1119L-19,1046Z" fill="#e4e4f2" stroke="#e4e4f2" stroke-width="1.51"/><path d="M-174,-55L-164,-247L-234,114Z" fill="#ebe7f2" stroke="#ebe7f2" stroke-width="1.51"/><path d="M-11,-189L-164,-247L-29,-110Z" fill="#ebe7f2" stroke="#ebe7f2" stroke-width="1.51"/><path d="M142,-273L-164,-247L-11,-189Z" fill="#ebe7f2" stroke="#ebe7f2" stroke-width="1.51"/><path d="M2134,1293L2261,1298L2154,1186Z" fill="#ebe7f2" stroke="#ebe7f2" stroke-width="1.51"/><path d="M2237,1166L2261,1298L2256,889Z" fill="#ebe7f2" stroke="#ebe7f2" stroke-width="1.51"/><path d="M2256,889L2261,1298L2279,374Z" fill="#abcef0" stroke="#abcef0" stroke-width="1.51"/><path d="M1956,1326L2261,1298L2134,1293Z" fill="#ebe7f2" stroke="#ebe7f2" stroke-width="1.51"/><path d="M1778,1345L2261,1298L1956,1326Z" fill="#ebe7f2" stroke="#ebe7f2" stroke-width="1.51"/><path d="M-237,995L-169,1345L-187,1119Z" fill="#ebe7f2" stroke="#ebe7f2" stroke-width="1.51"/><path d="M-187,1119L-169,1345L-65,1165Z" fill="#ebe7f2" stroke="#ebe7f2" stroke-width="1.51"/><path d="M-22,1346L-169,1345L137,1353Z" fill="#ebe7f2" stroke="#ebe7f2" stroke-width="1.51"/></svg>