<svg xmlns="http://www.w3.org/2000/svg" width="768" height="1024"><path d="M442,556L460,476L396,553Z" fill="#0079ae" stroke="#0079ae" stroke-width="1.51"/><path d="M460,476L381,457L396,553Z" fill="#0076ab" stroke="#0076ab" stroke-width="1.51"/><path d="M442,556L525,537L460,476Z" fill="#0080b6" stroke="#0080b6" stroke-width="1.51"/><path d="M460,476L482,394L381,457Z" fill="#0081b8" stroke="#0081b8" stroke-width="1.51"/><path d="M561,493L482,394L460,476Z" fill="#0089c1" stroke="#0089c1" stroke-width="1.51"/><path d="M381,457L301,558L396,553Z" fill="#0075a9" stroke="#0075a9" stroke-width="1.51"/><path d="M404,655L463,638L442,556Z" fill="#0084bc" stroke="#0084bc" stroke-width="1.51"/><path d="M404,655L442,556L396,553Z" fill="#007db3" stroke="#007db3" stroke-width="1.51"/><path d="M442,556L463,638L525,537Z" fill="#0086bd" stroke="#0086bd" stroke-width="1.51"/><path d="M381,457L291,476L301,558Z" fill="#007ab0" stroke="#007ab0" stroke-width="1.51"/><path d="M302,392L291,476L381,457Z" fill="#0081b8" stroke="#0081b8" stroke-width="1.51"/><path d="M525,537L561,493L460,476Z" fill="#0085bd" stroke="#0085bd" stroke-width="1.51"/><path d="M613,553L561,493L525,537Z" fill="#008fc7" stroke="#008fc7" stroke-width="1.51"/><path d="M326,649L404,655L396,553Z" fill="#007eb3" stroke="#007eb3" stroke-width="1.51"/><path d="M482,394L363,369L381,457Z" fill="#0080b6" stroke="#0080b6" stroke-width="1.51"/><path d="M363,369L302,392L381,457Z" fill="#0082b8" stroke="#0082b8" stroke-width="1.51"/><path d="M301,558L326,649L396,553Z" fill="#007fb5" stroke="#007fb5" stroke-width="1.51"/><path d="M561,493L570,412L482,394Z" fill="#0091cb" stroke="#0091cb" stroke-width="1.51"/><path d="M482,394L401,319L363,369Z" fill="#0086be" stroke="#0086be" stroke-width="1.51"/><path d="M441,293L401,319L482,394Z" fill="#008ec7" stroke="#008ec7" stroke-width="1.51"/><path d="M363,369L294,304L302,392Z" fill="#008cc5" stroke="#008cc5" stroke-width="1.51"/><path d="M570,638L613,553L525,537Z" fill="#0095cf" stroke="#0095cf" stroke-width="1.51"/><path d="M561,493L635,454L570,412Z" fill="#2197d0" stroke="#2197d0" stroke-width="1.51"/><path d="M463,638L570,638L525,537Z" fill="#0090ca" stroke="#0090ca" stroke-width="1.51"/><path d="M484,720L570,638L463,638Z" fill="#0095d0" stroke="#0095d0" stroke-width="1.51"/><path d="M291,476L199,542L301,558Z" fill="#0084bc" stroke="#0084bc" stroke-width="1.51"/><path d="M301,558L221,610L326,649Z" fill="#008bc3" stroke="#008bc3" stroke-width="1.51"/><path d="M302,392L230,451L291,476Z" fill="#0089c2" stroke="#0089c2" stroke-width="1.51"/><path d="M527,313L441,293L482,394Z" fill="#0094cf" stroke="#0094cf" stroke-width="1.51"/><path d="M404,655L484,720L463,638Z" fill="#008dc6" stroke="#008dc6" stroke-width="1.51"/><path d="M380,732L484,720L404,655Z" fill="#008cc5" stroke="#008cc5" stroke-width="1.51"/><path d="M613,553L635,454L561,493Z" fill="#3193c9" stroke="#3193c9" stroke-width="1.51"/><path d="M570,412L527,313L482,394Z" fill="#0097d2" stroke="#0097d2" stroke-width="1.51"/><path d="M624,399L527,313L570,412Z" fill="#009edb" stroke="#009edb" stroke-width="1.51"/><path d="M199,542L221,610L301,558Z" fill="#008dc6" stroke="#008dc6" stroke-width="1.51"/><path d="M326,649L380,732L404,655Z" fill="#0085bd" stroke="#0085bd" stroke-width="1.51"/><path d="M230,451L199,542L291,476Z" fill="#0089c1" stroke="#0089c1" stroke-width="1.51"/><path d="M281,710L380,732L326,649Z" fill="#008ec8" stroke="#008ec8" stroke-width="1.51"/><path d="M635,454L624,399L570,412Z" fill="#3a9ed5" stroke="#3a9ed5" stroke-width="1.51"/><path d="M401,319L294,304L363,369Z" fill="#008ac3" stroke="#008ac3" stroke-width="1.51"/><path d="M302,392L196,370L230,451Z" fill="#0092cd" stroke="#0092cd" stroke-width="1.51"/><path d="M326,230L294,304L401,319Z" fill="#0091cc" stroke="#0091cc" stroke-width="1.51"/><path d="M221,610L281,710L326,649Z" fill="#0092cc" stroke="#0092cc" stroke-width="1.51"/><path d="M570,638L627,656L613,553Z" fill="#349ed7" stroke="#349ed7" stroke-width="1.51"/><path d="M613,553L687,542L635,454Z" fill="#5198c9" stroke="#5198c9" stroke-width="1.51"/><path d="M563,742L627,656L570,638Z" fill="#1fa3e0" stroke="#1fa3e0" stroke-width="1.51"/><path d="M294,304L196,370L302,392Z" fill="#0095d0" stroke="#0095d0" stroke-width="1.51"/><path d="M230,451L142,447L199,542Z" fill="#0692cc" stroke="#0692cc" stroke-width="1.51"/><path d="M696,615L687,542L613,553Z" fill="#5fa2d1" stroke="#5fa2d1" stroke-width="1.51"/><path d="M635,454L736,402L624,399Z" fill="#61a6d6" stroke="#61a6d6" stroke-width="1.51"/><path d="M484,720L563,742L570,638Z" fill="#009edb" stroke="#009edb" stroke-width="1.51"/><path d="M473,780L563,742L484,720Z" fill="#009fdc" stroke="#009fdc" stroke-width="1.51"/><path d="M380,732L473,780L484,720Z" fill="#0095d0" stroke="#0095d0" stroke-width="1.51"/><path d="M397,797L473,780L380,732Z" fill="#0593ce" stroke="#0593ce" stroke-width="1.51"/><path d="M687,542L700,492L635,454Z" fill="#629ecb" stroke="#629ecb" stroke-width="1.51"/><path d="M325,787L397,797L380,732Z" fill="#0b91ca" stroke="#0b91ca" stroke-width="1.51"/><path d="M221,610L240,726L281,710Z" fill="#0099d5" stroke="#0099d5" stroke-width="1.51"/><path d="M121,627L240,726L221,610Z" fill="#009edc" stroke="#009edc" stroke-width="1.51"/><path d="M137,413L142,447L230,451Z" fill="#2e9ad3" stroke="#2e9ad3" stroke-width="1.51"/><path d="M199,542L132,552L221,610Z" fill="#1896d0" stroke="#1896d0" stroke-width="1.51"/><path d="M325,787L380,732L281,710Z" fill="#0094cf" stroke="#0094cf" stroke-width="1.51"/><path d="M627,656L696,615L613,553Z" fill="#55a3d6" stroke="#55a3d6" stroke-width="1.51"/><path d="M563,742L640,701L627,656Z" fill="#3da9e3" stroke="#3da9e3" stroke-width="1.51"/><path d="M142,447L132,552L199,542Z" fill="#3793c8" stroke="#3793c8" stroke-width="1.51"/><path d="M640,701L696,615L627,656Z" fill="#5dabdd" stroke="#5dabdd" stroke-width="1.51"/><path d="M687,542L800,495L700,492Z" fill="#7da4ca" stroke="#7da4ca" stroke-width="1.51"/><path d="M240,726L325,787L281,710Z" fill="#009bd7" stroke="#009bd7" stroke-width="1.51"/><path d="M294,304L200,286L196,370Z" fill="#009fdc" stroke="#009fdc" stroke-width="1.51"/><path d="M370,217L326,230L401,319Z" fill="#0291cb" stroke="#0291cb" stroke-width="1.51"/><path d="M370,217L401,319L441,293Z" fill="#008fc8" stroke="#008fc8" stroke-width="1.51"/><path d="M443,206L370,217L441,293Z" fill="#2195ce" stroke="#2195ce" stroke-width="1.51"/><path d="M624,399L626,294L527,313Z" fill="#29a6e2" stroke="#29a6e2" stroke-width="1.51"/><path d="M723,299L626,294L624,399Z" fill="#61b0e4" stroke="#61b0e4" stroke-width="1.51"/><path d="M443,206L441,293L527,313Z" fill="#009ad6" stroke="#009ad6" stroke-width="1.51"/><path d="M196,370L137,413L230,451Z" fill="#109ad6" stroke="#109ad6" stroke-width="1.51"/><path d="M44,531L78,620L132,552Z" fill="#69a4d1" stroke="#69a4d1" stroke-width="1.51"/><path d="M158,331L137,413L196,370Z" fill="#36a3dc" stroke="#36a3dc" stroke-width="1.51"/><path d="M568,200L443,206L527,313Z" fill="#22a4e0" stroke="#22a4e0" stroke-width="1.51"/><path d="M216,202L200,286L294,304Z" fill="#00a4e3" stroke="#00a4e3" stroke-width="1.51"/><path d="M200,286L158,331L196,370Z" fill="#19a5e2" stroke="#19a5e2" stroke-width="1.51"/><path d="M132,552L121,627L221,610Z" fill="#3a9dd4" stroke="#3a9dd4" stroke-width="1.51"/><path d="M78,620L121,627L132,552Z" fill="#5ca4d6" stroke="#5ca4d6" stroke-width="1.51"/><path d="M563,742L628,808L640,701Z" fill="#3fb0eb" stroke="#3fb0eb" stroke-width="1.51"/><path d="M473,780L566,803L563,742Z" fill="#14a7e4" stroke="#14a7e4" stroke-width="1.51"/><path d="M542,866L566,803L473,780Z" fill="#3faae4" stroke="#3faae4" stroke-width="1.51"/><path d="M700,492L736,402L635,454Z" fill="#6da6d2" stroke="#6da6d2" stroke-width="1.51"/><path d="M800,495L736,402L700,492Z" fill="#87acd1" stroke="#87acd1" stroke-width="1.51"/><path d="M626,294L624,238L527,313Z" fill="#2aace9" stroke="#2aace9" stroke-width="1.51"/><path d="M723,299L624,238L626,294Z" fill="#63b6ec" stroke="#63b6ec" stroke-width="1.51"/><path d="M624,238L568,200L527,313Z" fill="#12aded" stroke="#12aded" stroke-width="1.51"/><path d="M397,797L480,893L473,780Z" fill="#419ed5" stroke="#419ed5" stroke-width="1.51"/><path d="M325,787L381,865L397,797Z" fill="#3a96cb" stroke="#3a96cb" stroke-width="1.51"/><path d="M290,885L381,865L325,787Z" fill="#4c9ed3" stroke="#4c9ed3" stroke-width="1.51"/><path d="M216,820L325,787L240,726Z" fill="#19a3df" stroke="#19a3df" stroke-width="1.51"/><path d="M817,548L800,495L687,542Z" fill="#8eaccd" stroke="#8eaccd" stroke-width="1.51"/><path d="M640,701L719,710L696,615Z" fill="#70b2e1" stroke="#70b2e1" stroke-width="1.51"/><path d="M698,806L719,710L640,701Z" fill="#73baea" stroke="#73baea" stroke-width="1.51"/><path d="M57,465L132,552L142,447Z" fill="#5a9dcd" stroke="#5a9dcd" stroke-width="1.51"/><path d="M121,627L120,727L240,726Z" fill="#3aa8e2" stroke="#3aa8e2" stroke-width="1.51"/><path d="M57,465L142,447L137,413Z" fill="#5aa2d3" stroke="#5aa2d3" stroke-width="1.51"/><path d="M566,803L628,808L563,742Z" fill="#32b0ed" stroke="#32b0ed" stroke-width="1.51"/><path d="M542,866L628,808L566,803Z" fill="#4ab4ee" stroke="#4ab4ee" stroke-width="1.51"/><path d="M736,402L723,299L624,399Z" fill="#74b0de" stroke="#74b0de" stroke-width="1.51"/><path d="M616,152L524,142L568,200Z" fill="#5bb6ed" stroke="#5bb6ed" stroke-width="1.51"/><path d="M56,377L57,465L137,413Z" fill="#6ba9d6" stroke="#6ba9d6" stroke-width="1.51"/><path d="M200,286L142,218L158,331Z" fill="#35aeea" stroke="#35aeea" stroke-width="1.51"/><path d="M158,331L56,377L137,413Z" fill="#5ba9dc" stroke="#5ba9dc" stroke-width="1.51"/><path d="M326,230L216,202L294,304Z" fill="#1aa0dc" stroke="#1aa0dc" stroke-width="1.51"/><path d="M299,149L216,202L326,230Z" fill="#46a5dc" stroke="#46a5dc" stroke-width="1.51"/><path d="M299,149L326,230L370,217Z" fill="#429cd2" stroke="#429cd2" stroke-width="1.51"/><path d="M299,149L370,217L382,130Z" fill="#529dcf" stroke="#529dcf" stroke-width="1.51"/><path d="M78,620L120,727L121,627Z" fill="#62acde" stroke="#62acde" stroke-width="1.51"/><path d="M119,787L216,820L240,726Z" fill="#1baeed" stroke="#1baeed" stroke-width="1.51"/><path d="M480,893L542,866L473,780Z" fill="#50a9de" stroke="#50a9de" stroke-width="1.51"/><path d="M788,626L687,542L696,615Z" fill="#7fadd5" stroke="#7fadd5" stroke-width="1.51"/><path d="M736,402L772,312L723,299Z" fill="#8dbce4" stroke="#8dbce4" stroke-width="1.51"/><path d="M57,465L44,531L132,552Z" fill="#6a9fc9" stroke="#6a9fc9" stroke-width="1.51"/><path d="M382,130L370,217L443,206Z" fill="#4798cb" stroke="#4798cb" stroke-width="1.51"/><path d="M568,200L524,142L443,206Z" fill="#4eaae1" stroke="#4eaae1" stroke-width="1.51"/><path d="M616,152L568,200L624,238Z" fill="#5db7ee" stroke="#5db7ee" stroke-width="1.51"/><path d="M458,126L382,130L443,206Z" fill="#58a0d1" stroke="#58a0d1" stroke-width="1.51"/><path d="M719,710L788,626L696,615Z" fill="#87b6de" stroke="#87b6de" stroke-width="1.51"/><path d="M524,142L458,126L443,206Z" fill="#59a7da" stroke="#59a7da" stroke-width="1.51"/><path d="M381,865L480,893L397,797Z" fill="#4f9dcf" stroke="#4f9dcf" stroke-width="1.51"/><path d="M452,954L480,893L381,865Z" fill="#67a6d3" stroke="#67a6d3" stroke-width="1.51"/><path d="M59,293L56,377L158,331Z" fill="#6cb2e3" stroke="#6cb2e3" stroke-width="1.51"/><path d="M57,465L-24,480L44,531Z" fill="#83a8cd" stroke="#83a8cd" stroke-width="1.51"/><path d="M800,495L787,374L736,402Z" fill="#93b5d7" stroke="#93b5d7" stroke-width="1.51"/><path d="M788,626L817,548L687,542Z" fill="#8fb1d3" stroke="#8fb1d3" stroke-width="1.51"/><path d="M800,495L858,412L787,374Z" fill="#93b4d7" stroke="#93b4d7" stroke-width="1.51"/><path d="M216,820L290,885L325,787Z" fill="#47a6dd" stroke="#47a6dd" stroke-width="1.51"/><path d="M787,374L772,312L736,402Z" fill="#96bce0" stroke="#96bce0" stroke-width="1.51"/><path d="M720,133L616,152L624,238Z" fill="#84c1ef" stroke="#84c1ef" stroke-width="1.51"/><path d="M216,202L142,218L200,286Z" fill="#31b0ee" stroke="#31b0ee" stroke-width="1.51"/><path d="M221,154L142,218L216,202Z" fill="#4cb4ee" stroke="#4cb4ee" stroke-width="1.51"/><path d="M695,888L698,806L628,808Z" fill="#88c3f0" stroke="#88c3f0" stroke-width="1.51"/><path d="M628,808L698,806L640,701Z" fill="#64b9ee" stroke="#64b9ee" stroke-width="1.51"/><path d="M719,710L774,714L788,626Z" fill="#94bee3" stroke="#94bee3" stroke-width="1.51"/><path d="M633,897L628,808L542,866Z" fill="#6abaef" stroke="#6abaef" stroke-width="1.51"/><path d="M734,242L624,238L723,299Z" fill="#79beee" stroke="#79beee" stroke-width="1.51"/><path d="M443,43L387,58L458,126Z" fill="#78a9d2" stroke="#78a9d2" stroke-width="1.51"/><path d="M769,815L774,714L719,710Z" fill="#95c5ed" stroke="#95c5ed" stroke-width="1.51"/><path d="M858,653L873,547L817,548Z" fill="#92b2d5" stroke="#92b2d5" stroke-width="1.51"/><path d="M299,149L221,154L216,202Z" fill="#56aee3" stroke="#56aee3" stroke-width="1.51"/><path d="M208,82L221,154L299,149Z" fill="#69b3e5" stroke="#69b3e5" stroke-width="1.51"/><path d="M120,727L119,787L240,726Z" fill="#3dafeb" stroke="#3dafeb" stroke-width="1.51"/><path d="M216,820L199,888L290,885Z" fill="#5bb1e6" stroke="#5bb1e6" stroke-width="1.51"/><path d="M43,721L119,787L120,727Z" fill="#6db8eb" stroke="#6db8eb" stroke-width="1.51"/><path d="M43,721L120,727L78,620Z" fill="#72b4e3" stroke="#72b4e3" stroke-width="1.51"/><path d="M772,312L734,242L723,299Z" fill="#90c2ec" stroke="#90c2ec" stroke-width="1.51"/><path d="M56,377L-24,480L57,465Z" fill="#85aed4" stroke="#85aed4" stroke-width="1.51"/><path d="M75,248L59,293L158,331Z" fill="#6ab6ea" stroke="#6ab6ea" stroke-width="1.51"/><path d="M119,787L161,856L216,820Z" fill="#59b7ee" stroke="#59b7ee" stroke-width="1.51"/><path d="M119,787L47,820L161,856Z" fill="#7bbfef" stroke="#7bbfef" stroke-width="1.51"/><path d="M-14,650L43,721L78,620Z" fill="#87b7e0" stroke="#87b7e0" stroke-width="1.51"/><path d="M55,123L75,248L142,218Z" fill="#88c2ef" stroke="#88c2ef" stroke-width="1.51"/><path d="M142,218L75,248L158,331Z" fill="#59b6ed" stroke="#59b6ed" stroke-width="1.51"/><path d="M161,856L199,888L216,820Z" fill="#58b6ee" stroke="#58b6ee" stroke-width="1.51"/><path d="M385,976L452,954L381,865Z" fill="#6fa3ce" stroke="#6fa3ce" stroke-width="1.51"/><path d="M888,707L858,653L774,714Z" fill="#98c0e4" stroke="#98c0e4" stroke-width="1.51"/><path d="M530,984L633,897L542,866Z" fill="#74bced" stroke="#74bced" stroke-width="1.51"/><path d="M530,984L542,866L480,893Z" fill="#70b4e3" stroke="#70b4e3" stroke-width="1.51"/><path d="M385,976L381,865L290,885Z" fill="#68a2cf" stroke="#68a2cf" stroke-width="1.51"/><path d="M878,479L800,495L817,548Z" fill="#8daacb" stroke="#8daacb" stroke-width="1.51"/><path d="M878,479L858,412L800,495Z" fill="#90b0d1" stroke="#90b0d1" stroke-width="1.51"/><path d="M787,374L899,332L772,312Z" fill="#98bfe3" stroke="#98bfe3" stroke-width="1.51"/><path d="M772,312L791,226L734,242Z" fill="#9cc9ef" stroke="#9cc9ef" stroke-width="1.51"/><path d="M-40,372L56,377L-11,283Z" fill="#97bee3" stroke="#97bee3" stroke-width="1.51"/><path d="M-40,372L-24,480L56,377Z" fill="#94b6d9" stroke="#94b6d9" stroke-width="1.51"/><path d="M44,531L-14,650L78,620Z" fill="#83afd6" stroke="#83afd6" stroke-width="1.51"/><path d="M382,130L325,72L299,149Z" fill="#68a5d2" stroke="#68a5d2" stroke-width="1.51"/><path d="M221,154L155,121L142,218Z" fill="#68baef" stroke="#68baef" stroke-width="1.51"/><path d="M387,58L325,72L382,130Z" fill="#72a3cd" stroke="#72a3cd" stroke-width="1.51"/><path d="M387,58L382,130L458,126Z" fill="#6ca2ce" stroke="#6ca2ce" stroke-width="1.51"/><path d="M858,653L817,548L788,626Z" fill="#93b6d8" stroke="#93b6d8" stroke-width="1.51"/><path d="M529,56L458,126L524,142Z" fill="#71b1e1" stroke="#71b1e1" stroke-width="1.51"/><path d="M873,547L878,479L817,548Z" fill="#8eabcc" stroke="#8eabcc" stroke-width="1.51"/><path d="M-50,539L-14,650L44,531Z" fill="#91b1d3" stroke="#91b1d3" stroke-width="1.51"/><path d="M769,815L719,710L698,806Z" fill="#8ec5ef" stroke="#8ec5ef" stroke-width="1.51"/><path d="M774,714L858,653L788,626Z" fill="#97bde0" stroke="#97bde0" stroke-width="1.51"/><path d="M695,888L769,815L698,806Z" fill="#9fcaf0" stroke="#9fcaf0" stroke-width="1.51"/><path d="M869,216L791,226L772,312Z" fill="#9fcaf0" stroke="#9fcaf0" stroke-width="1.51"/><path d="M734,242L720,133L624,238Z" fill="#8cc4ef" stroke="#8cc4ef" stroke-width="1.51"/><path d="M616,152L529,56L524,142Z" fill="#70b9eb" stroke="#70b9eb" stroke-width="1.51"/><path d="M654,55L529,56L616,152Z" fill="#89c3f0" stroke="#89c3f0" stroke-width="1.51"/><path d="M633,897L695,888L628,808Z" fill="#89c3ef" stroke="#89c3ef" stroke-width="1.51"/><path d="M640,953L695,888L633,897Z" fill="#9bc9f0" stroke="#9bc9f0" stroke-width="1.51"/><path d="M529,56L443,43L458,126Z" fill="#7bb1dc" stroke="#7bb1dc" stroke-width="1.51"/><path d="M285,-37L208,82L325,72Z" fill="#8ab8df" stroke="#8ab8df" stroke-width="1.51"/><path d="M285,969L385,976L290,885Z" fill="#77abd6" stroke="#77abd6" stroke-width="1.51"/><path d="M452,954L530,984L480,893Z" fill="#7ab2de" stroke="#7ab2de" stroke-width="1.51"/><path d="M208,82L155,121L221,154Z" fill="#70bcee" stroke="#70bcee" stroke-width="1.51"/><path d="M-116,456L-50,539L-24,480Z" fill="#8faccd" stroke="#8faccd" stroke-width="1.51"/><path d="M-24,480L-50,539L44,531Z" fill="#8daacb" stroke="#8daacb" stroke-width="1.51"/><path d="M365,-6L325,72L387,58Z" fill="#82a9ce" stroke="#82a9ce" stroke-width="1.51"/><path d="M325,72L208,82L299,149Z" fill="#72b0de" stroke="#72b0de" stroke-width="1.51"/><path d="M209,944L290,885L199,888Z" fill="#6eb6e7" stroke="#6eb6e7" stroke-width="1.51"/><path d="M209,944L285,969L290,885Z" fill="#77b4e2" stroke="#77b4e2" stroke-width="1.51"/><path d="M791,226L720,133L734,242Z" fill="#a7cdf0" stroke="#a7cdf0" stroke-width="1.51"/><path d="M-11,283L56,377L59,293Z" fill="#89bde6" stroke="#89bde6" stroke-width="1.51"/><path d="M-11,283L59,293L-17,245Z" fill="#97c6ed" stroke="#97c6ed" stroke-width="1.51"/><path d="M141,955L209,944L199,888Z" fill="#7fc0ef" stroke="#7fc0ef" stroke-width="1.51"/><path d="M141,955L199,888L161,856Z" fill="#7cbfef" stroke="#7cbfef" stroke-width="1.51"/><path d="M47,820L119,787L43,721Z" fill="#7ec0ef" stroke="#7ec0ef" stroke-width="1.51"/><path d="M451,1020L530,984L452,954Z" fill="#88b5dc" stroke="#88b5dc" stroke-width="1.51"/><path d="M-30,790L47,820L43,721Z" fill="#97c8f0" stroke="#97c8f0" stroke-width="1.51"/><path d="M-17,245L59,293L75,248Z" fill="#8bc3ee" stroke="#8bc3ee" stroke-width="1.51"/><path d="M695,888L791,856L769,815Z" fill="#b2d1f1" stroke="#b2d1f1" stroke-width="1.51"/><path d="M530,984L640,953L633,897Z" fill="#8dc4f0" stroke="#8dc4f0" stroke-width="1.51"/><path d="M899,816L888,707L774,714Z" fill="#9cc7ec" stroke="#9cc7ec" stroke-width="1.51"/><path d="M858,653L950,644L873,547Z" fill="#94b6d9" stroke="#94b6d9" stroke-width="1.51"/><path d="M955,469L937,399L878,479Z" fill="#91b2d3" stroke="#91b2d3" stroke-width="1.51"/><path d="M899,816L774,714L769,815Z" fill="#a2cbf0" stroke="#a2cbf0" stroke-width="1.51"/><path d="M814,977L791,856L695,888Z" fill="#c9d9f1" stroke="#c9d9f1" stroke-width="1.51"/><path d="M-105,616L-46,707L-14,650Z" fill="#96bcdf" stroke="#96bcdf" stroke-width="1.51"/><path d="M-14,650L-46,707L43,721Z" fill="#99c0e5" stroke="#99c0e5" stroke-width="1.51"/><path d="M791,226L791,122L720,133Z" fill="#bbd4f1" stroke="#bbd4f1" stroke-width="1.51"/><path d="M858,412L899,332L787,374Z" fill="#96bbdf" stroke="#96bbdf" stroke-width="1.51"/><path d="M937,399L899,332L858,412Z" fill="#95badd" stroke="#95badd" stroke-width="1.51"/><path d="M937,399L858,412L878,479Z" fill="#92b4d6" stroke="#92b4d6" stroke-width="1.51"/><path d="M720,133L654,55L616,152Z" fill="#9ecaf0" stroke="#9ecaf0" stroke-width="1.51"/><path d="M456,-41L365,-6L443,43Z" fill="#90afd1" stroke="#90afd1" stroke-width="1.51"/><path d="M736,61L654,55L720,133Z" fill="#b9d3f1" stroke="#b9d3f1" stroke-width="1.51"/><path d="M530,984L540,1029L640,953Z" fill="#91c5ef" stroke="#91c5ef" stroke-width="1.51"/><path d="M385,976L451,1020L452,954Z" fill="#84add2" stroke="#84add2" stroke-width="1.51"/><path d="M402,1059L451,1020L385,976Z" fill="#8eaed0" stroke="#8eaed0" stroke-width="1.51"/><path d="M-120,288L-110,373L-40,372Z" fill="#98bee3" stroke="#98bee3" stroke-width="1.51"/><path d="M55,123L-17,245L75,248Z" fill="#9dc9f0" stroke="#9dc9f0" stroke-width="1.51"/><path d="M55,123L142,218L155,121Z" fill="#8ac3ef" stroke="#8ac3ef" stroke-width="1.51"/><path d="M443,43L365,-6L387,58Z" fill="#84a8cd" stroke="#84a8cd" stroke-width="1.51"/><path d="M533,-19L443,43L529,56Z" fill="#8ebae1" stroke="#8ebae1" stroke-width="1.51"/><path d="M201,1060L304,1052L285,969Z" fill="#97bee2" stroke="#97bee2" stroke-width="1.51"/><path d="M304,1052L402,1059L385,976Z" fill="#8fadce" stroke="#8fadce" stroke-width="1.51"/><path d="M62,899L141,955L161,856Z" fill="#94c6f0" stroke="#94c6f0" stroke-width="1.51"/><path d="M62,899L161,856L47,820Z" fill="#93c6f0" stroke="#93c6f0" stroke-width="1.51"/><path d="M955,469L878,479L971,539Z" fill="#8eaccd" stroke="#8eaccd" stroke-width="1.51"/><path d="M-50,865L62,899L47,820Z" fill="#b3d1f1" stroke="#b3d1f1" stroke-width="1.51"/><path d="M-46,707L-30,790L43,721Z" fill="#9bc6eb" stroke="#9bc6eb" stroke-width="1.51"/><path d="M451,1020L540,1029L530,984Z" fill="#94bde2" stroke="#94bde2" stroke-width="1.51"/><path d="M640,953L706,985L695,888Z" fill="#b0d0f1" stroke="#b0d0f1" stroke-width="1.51"/><path d="M47,62L55,123L155,121Z" fill="#aacef0" stroke="#aacef0" stroke-width="1.51"/><path d="M159,43L155,121L208,82Z" fill="#89c3f0" stroke="#89c3f0" stroke-width="1.51"/><path d="M971,539L878,479L873,547Z" fill="#8eabcc" stroke="#8eabcc" stroke-width="1.51"/><path d="M899,332L869,216L772,312Z" fill="#9bc6eb" stroke="#9bc6eb" stroke-width="1.51"/><path d="M933,236L869,216L899,332Z" fill="#9dc9ef" stroke="#9dc9ef" stroke-width="1.51"/><path d="M869,216L791,122L791,226Z" fill="#b3d1f1" stroke="#b3d1f1" stroke-width="1.51"/><path d="M216,-25L159,43L208,82Z" fill="#92c5ef" stroke="#92c5ef" stroke-width="1.51"/><path d="M-50,539L-105,616L-14,650Z" fill="#93b5d7" stroke="#93b5d7" stroke-width="1.51"/><path d="M-46,707L-96,736L-30,790Z" fill="#9cc7ec" stroke="#9cc7ec" stroke-width="1.51"/><path d="M-132,549L-105,616L-50,539Z" fill="#91b0d2" stroke="#91b0d2" stroke-width="1.51"/><path d="M-116,456L-24,480L-40,372Z" fill="#92b3d5" stroke="#92b3d5" stroke-width="1.51"/><path d="M633,-32L529,56L654,55Z" fill="#a2cbf0" stroke="#a2cbf0" stroke-width="1.51"/><path d="M633,-32L533,-19L529,56Z" fill="#9cc8ee" stroke="#9cc8ee" stroke-width="1.51"/><path d="M-110,373L-116,456L-40,372Z" fill="#94b7db" stroke="#94b7db" stroke-width="1.51"/><path d="M888,707L950,644L858,653Z" fill="#97bde1" stroke="#97bde1" stroke-width="1.51"/><path d="M933,707L950,644L888,707Z" fill="#98bfe4" stroke="#98bfe4" stroke-width="1.51"/><path d="M791,122L736,61L720,133Z" fill="#c5d8f1" stroke="#c5d8f1" stroke-width="1.51"/><path d="M899,816L933,707L888,707Z" fill="#9cc7ec" stroke="#9cc7ec" stroke-width="1.51"/><path d="M-85,233L-11,283L-17,245Z" fill="#9ecaf0" stroke="#9ecaf0" stroke-width="1.51"/><path d="M-120,288L-40,372L-11,283Z" fill="#9ac2e7" stroke="#9ac2e7" stroke-width="1.51"/><path d="M950,644L971,539L873,547Z" fill="#91b2d3" stroke="#91b2d3" stroke-width="1.51"/><path d="M304,1052L385,976L285,969Z" fill="#8ab0d5" stroke="#8ab0d5" stroke-width="1.51"/><path d="M460,1139L560,1103L540,1029Z" fill="#99c0e5" stroke="#99c0e5" stroke-width="1.51"/><path d="M533,-19L456,-41L443,43Z" fill="#95b9dc" stroke="#95b9dc" stroke-width="1.51"/><path d="M365,-6L285,-37L325,72Z" fill="#8fb2d6" stroke="#8fb2d6" stroke-width="1.51"/><path d="M686,1041L706,985L640,953Z" fill="#bed5f1" stroke="#bed5f1" stroke-width="1.51"/><path d="M791,856L899,816L769,815Z" fill="#b1d1f0" stroke="#b1d1f0" stroke-width="1.51"/><path d="M201,1060L285,969L209,944Z" fill="#8fbfe8" stroke="#8fbfe8" stroke-width="1.51"/><path d="M-120,288L-132,549L-116,456Z" fill="#92b4d6" stroke="#92b4d6" stroke-width="1.51"/><path d="M-116,456L-132,549L-50,539Z" fill="#8daacb" stroke="#8daacb" stroke-width="1.51"/><path d="M362,-85L285,-37L365,-6Z" fill="#91b1d4" stroke="#91b1d4" stroke-width="1.51"/><path d="M-132,549L-96,736L-105,616Z" fill="#95b8dc" stroke="#95b8dc" stroke-width="1.51"/><path d="M-105,616L-96,736L-46,707Z" fill="#98bfe4" stroke="#98bfe4" stroke-width="1.51"/><path d="M-30,790L-50,865L47,820Z" fill="#b0d0f0" stroke="#b0d0f0" stroke-width="1.51"/><path d="M872,900L899,816L791,856Z" fill="#bad4f1" stroke="#bad4f1" stroke-width="1.51"/><path d="M791,122L784,68L736,61Z" fill="#d3ddf2" stroke="#d3ddf2" stroke-width="1.51"/><path d="M707,-28L633,-32L654,55Z" fill="#c3d7f1" stroke="#c3d7f1" stroke-width="1.51"/><path d="M850,63L784,68L791,122Z" fill="#d3ddf2" stroke="#d3ddf2" stroke-width="1.51"/><path d="M285,-37L216,-25L208,82Z" fill="#97c1e7" stroke="#97c1e7" stroke-width="1.51"/><path d="M159,43L47,62L155,121Z" fill="#a4ccf0" stroke="#a4ccf0" stroke-width="1.51"/><path d="M-40,149L-17,245L55,123Z" fill="#b8d3f1" stroke="#b8d3f1" stroke-width="1.51"/><path d="M-40,149L-85,233L-17,245Z" fill="#adcff0" stroke="#adcff0" stroke-width="1.51"/><path d="M869,216L859,122L791,122Z" fill="#bed5f1" stroke="#bed5f1" stroke-width="1.51"/><path d="M962,290L933,236L899,332Z" fill="#9bc6eb" stroke="#9bc6eb" stroke-width="1.51"/><path d="M962,290L899,332L937,399Z" fill="#98bfe3" stroke="#98bfe3" stroke-width="1.51"/><path d="M962,290L937,399L955,469Z" fill="#95b9dd" stroke="#95b9dd" stroke-width="1.51"/><path d="M707,-28L654,55L736,61Z" fill="#c8d9f2" stroke="#c8d9f2" stroke-width="1.51"/><path d="M558,-91L450,-98L456,-41Z" fill="#96bbde" stroke="#96bbde" stroke-width="1.51"/><path d="M971,539L962,290L955,469Z" fill="#92b3d6" stroke="#92b3d6" stroke-width="1.51"/><path d="M130,-22L47,62L159,43Z" fill="#b7d3f1" stroke="#b7d3f1" stroke-width="1.51"/><path d="M936,127L859,122L869,216Z" fill="#bed5f1" stroke="#bed5f1" stroke-width="1.51"/><path d="M-85,233L-120,288L-11,283Z" fill="#9cc8ee" stroke="#9cc8ee" stroke-width="1.51"/><path d="M-110,373L-120,288L-116,456Z" fill="#96bbdf" stroke="#96bbdf" stroke-width="1.51"/><path d="M-85,233L-112,120L-120,288Z" fill="#abcef0" stroke="#abcef0" stroke-width="1.51"/><path d="M-16,85L-40,149L55,123Z" fill="#c8d9f1" stroke="#c8d9f1" stroke-width="1.51"/><path d="M-93,819L-50,865L-30,790Z" fill="#b0d0f0" stroke="#b0d0f0" stroke-width="1.51"/><path d="M115,1051L201,1060L141,955Z" fill="#aed0f0" stroke="#aed0f0" stroke-width="1.51"/><path d="M141,955L201,1060L209,944Z" fill="#94c6ef" stroke="#94c6ef" stroke-width="1.51"/><path d="M37,977L141,955L62,899Z" fill="#b4d2f1" stroke="#b4d2f1" stroke-width="1.51"/><path d="M460,1139L451,1020L402,1059Z" fill="#92b3d5" stroke="#92b3d5" stroke-width="1.51"/><path d="M814,977L872,900L791,856Z" fill="#cadaf1" stroke="#cadaf1" stroke-width="1.51"/><path d="M647,1059L686,1041L640,953Z" fill="#bed5f1" stroke="#bed5f1" stroke-width="1.51"/><path d="M647,1059L640,953L540,1029Z" fill="#a8cef0" stroke="#a8cef0" stroke-width="1.51"/><path d="M540,1029L451,1020L460,1139Z" fill="#96bade" stroke="#96bade" stroke-width="1.51"/><path d="M560,1103L647,1059L540,1029Z" fill="#a0cbf0" stroke="#a0cbf0" stroke-width="1.51"/><path d="M814,977L695,888L706,985Z" fill="#cadaf1" stroke="#cadaf1" stroke-width="1.51"/><path d="M285,-37L215,-96L216,-25Z" fill="#9ac2e7" stroke="#9ac2e7" stroke-width="1.51"/><path d="M456,-41L362,-85L365,-6Z" fill="#8eabcc" stroke="#8eabcc" stroke-width="1.51"/><path d="M450,-98L362,-85L456,-41Z" fill="#90b0d1" stroke="#90b0d1" stroke-width="1.51"/><path d="M-103,861L-93,819L-96,736Z" fill="#aacef0" stroke="#aacef0" stroke-width="1.51"/><path d="M-96,736L-93,819L-30,790Z" fill="#a2cbf0" stroke="#a2cbf0" stroke-width="1.51"/><path d="M-47,958L62,899L-50,865Z" fill="#c9d9f1" stroke="#c9d9f1" stroke-width="1.51"/><path d="M-47,958L37,977L62,899Z" fill="#cedbf2" stroke="#cedbf2" stroke-width="1.51"/><path d="M47,62L-16,85L55,123Z" fill="#c6d8f1" stroke="#c6d8f1" stroke-width="1.51"/><path d="M216,-25L130,-22L159,43Z" fill="#a8cdf0" stroke="#a8cdf0" stroke-width="1.51"/><path d="M151,-101L130,-22L216,-25Z" fill="#a9cef0" stroke="#a9cef0" stroke-width="1.51"/><path d="M558,-91L456,-41L533,-19Z" fill="#98bfe4" stroke="#98bfe4" stroke-width="1.51"/><path d="M615,-83L558,-91L533,-19Z" fill="#9dc9ee" stroke="#9dc9ee" stroke-width="1.51"/><path d="M797,3L707,-28L736,61Z" fill="#e0e2f2" stroke="#e0e2f2" stroke-width="1.51"/><path d="M797,3L736,61L784,68Z" fill="#dfe2f2" stroke="#dfe2f2" stroke-width="1.51"/><path d="M460,1139L402,1059L371,1150Z" fill="#8faecf" stroke="#8faecf" stroke-width="1.51"/><path d="M647,1059L696,1132L686,1041Z" fill="#c8d9f1" stroke="#c8d9f1" stroke-width="1.51"/><path d="M-40,149L-112,120L-85,233Z" fill="#bad4f1" stroke="#bad4f1" stroke-width="1.51"/><path d="M-12,-23L-16,85L47,62Z" fill="#dde1f2" stroke="#dde1f2" stroke-width="1.51"/><path d="M787,1043L814,977L706,985Z" fill="#e5e4f2" stroke="#e5e4f2" stroke-width="1.51"/><path d="M615,-83L533,-19L633,-32Z" fill="#a5ccf0" stroke="#a5ccf0" stroke-width="1.51"/><path d="M362,-85L327,-101L285,-37Z" fill="#92b3d6" stroke="#92b3d6" stroke-width="1.51"/><path d="M450,-98L327,-101L362,-85Z" fill="#8eaacb" stroke="#8eaacb" stroke-width="1.51"/><path d="M936,127L869,216L933,236Z" fill="#b2d1f1" stroke="#b2d1f1" stroke-width="1.51"/><path d="M936,127L850,63L859,122Z" fill="#cddbf1" stroke="#cddbf1" stroke-width="1.51"/><path d="M859,122L850,63L791,122Z" fill="#cddbf1" stroke="#cddbf1" stroke-width="1.51"/><path d="M325,1136L402,1059L304,1052Z" fill="#91b0d2" stroke="#91b0d2" stroke-width="1.51"/><path d="M37,977L115,1051L141,955Z" fill="#bcd4f1" stroke="#bcd4f1" stroke-width="1.51"/><path d="M710,-85L615,-83L633,-32Z" fill="#bed5f1" stroke="#bed5f1" stroke-width="1.51"/><path d="M936,902L967,822L899,816Z" fill="#b7d3f1" stroke="#b7d3f1" stroke-width="1.51"/><path d="M899,816L967,822L933,707Z" fill="#a2cbf0" stroke="#a2cbf0" stroke-width="1.51"/><path d="M933,707L967,822L950,644Z" fill="#9bc4e9" stroke="#9bc4e9" stroke-width="1.51"/><path d="M950,644L967,822L971,539Z" fill="#97bde1" stroke="#97bde1" stroke-width="1.51"/><path d="M936,902L899,816L872,900Z" fill="#bfd5f1" stroke="#bfd5f1" stroke-width="1.51"/><path d="M707,-28L710,-85L633,-32Z" fill="#cadaf1" stroke="#cadaf1" stroke-width="1.51"/><path d="M850,63L797,3L784,68Z" fill="#dee2f2" stroke="#dee2f2" stroke-width="1.51"/><path d="M325,1136L304,1052L201,1060Z" fill="#96bcdf" stroke="#96bcdf" stroke-width="1.51"/><path d="M-93,819L-103,861L-50,865Z" fill="#b7d3f1" stroke="#b7d3f1" stroke-width="1.51"/><path d="M37,977L33,1034L115,1051Z" fill="#d2ddf2" stroke="#d2ddf2" stroke-width="1.51"/><path d="M-132,549L-103,861L-96,736Z" fill="#9ac3e8" stroke="#9ac3e8" stroke-width="1.51"/><path d="M543,1221L616,1111L560,1103Z" fill="#9dc9ef" stroke="#9dc9ef" stroke-width="1.51"/><path d="M560,1103L616,1111L647,1059Z" fill="#abcef0" stroke="#abcef0" stroke-width="1.51"/><path d="M686,1041L787,1043L706,985Z" fill="#dbe0f2" stroke="#dbe0f2" stroke-width="1.51"/><path d="M850,1031L880,946L814,977Z" fill="#e0e2f2" stroke="#e0e2f2" stroke-width="1.51"/><path d="M814,977L880,946L872,900Z" fill="#d3ddf2" stroke="#d3ddf2" stroke-width="1.51"/><path d="M196,1151L325,1136L201,1060Z" fill="#99c1e6" stroke="#99c1e6" stroke-width="1.51"/><path d="M130,-22L78,-36L47,62Z" fill="#cadaf1" stroke="#cadaf1" stroke-width="1.51"/><path d="M327,-101L215,-96L285,-37Z" fill="#96bcdf" stroke="#96bcdf" stroke-width="1.51"/><path d="M962,290L936,127L933,236Z" fill="#aacef0" stroke="#aacef0" stroke-width="1.51"/><path d="M850,63L873,-20L797,3Z" fill="#e7e5f2" stroke="#e7e5f2" stroke-width="1.51"/><path d="M325,1136L371,1150L402,1059Z" fill="#8fadce" stroke="#8fadce" stroke-width="1.51"/><path d="M151,-101L78,-36L130,-22Z" fill="#bcd5f1" stroke="#bcd5f1" stroke-width="1.51"/><path d="M696,1132L787,1043L686,1041Z" fill="#dae0f2" stroke="#dae0f2" stroke-width="1.51"/><path d="M880,946L936,902L872,900Z" fill="#ccdaf1" stroke="#ccdaf1" stroke-width="1.51"/><path d="M951,943L936,902L880,946Z" fill="#d0dcf2" stroke="#d0dcf2" stroke-width="1.51"/><path d="M-103,861L-47,958L-50,865Z" fill="#c5d8f1" stroke="#c5d8f1" stroke-width="1.51"/><path d="M139,1141L196,1151L201,1060Z" fill="#a3ccf0" stroke="#a3ccf0" stroke-width="1.51"/><path d="M-19,1027L33,1034L37,977Z" fill="#e2e3f2" stroke="#e2e3f2" stroke-width="1.51"/><path d="M789,-87L707,-28L797,3Z" fill="#eae7f2" stroke="#eae7f2" stroke-width="1.51"/><path d="M789,-87L710,-85L707,-28Z" fill="#dfe2f2" stroke="#dfe2f2" stroke-width="1.51"/><path d="M615,-83L710,-85L558,-91Z" fill="#b4d1f1" stroke="#b4d1f1" stroke-width="1.51"/><path d="M558,-91L960,-121L450,-98Z" fill="#bfd6f1" stroke="#bfd6f1" stroke-width="1.51"/><path d="M-16,85L-112,120L-40,149Z" fill="#c9d9f1" stroke="#c9d9f1" stroke-width="1.51"/><path d="M-130,80L-112,120L-16,85Z" fill="#d0dcf2" stroke="#d0dcf2" stroke-width="1.51"/><path d="M78,-36L-12,-23L47,62Z" fill="#dce1f2" stroke="#dce1f2" stroke-width="1.51"/><path d="M215,-96L151,-101L216,-25Z" fill="#9dc9ef" stroke="#9dc9ef" stroke-width="1.51"/><path d="M327,-101L151,-101L215,-96Z" fill="#9ac3e8" stroke="#9ac3e8" stroke-width="1.51"/><path d="M787,1043L850,1031L814,977Z" fill="#e9e6f2" stroke="#e9e6f2" stroke-width="1.51"/><path d="M795,1110L850,1031L787,1043Z" fill="#ebe7f2" stroke="#ebe7f2" stroke-width="1.51"/><path d="M139,1141L201,1060L115,1051Z" fill="#afd0f0" stroke="#afd0f0" stroke-width="1.51"/><path d="M-47,958L-19,1027L37,977Z" fill="#e1e3f2" stroke="#e1e3f2" stroke-width="1.51"/><path d="M-111,974L-19,1027L-47,958Z" fill="#e0e2f2" stroke="#e0e2f2" stroke-width="1.51"/><path d="M139,1141L115,1051L63,1132Z" fill="#c2d7f1" stroke="#c2d7f1" stroke-width="1.51"/><path d="M299,1225L392,1208L371,1150Z" fill="#90aed0" stroke="#90aed0" stroke-width="1.51"/><path d="M543,1221L560,1103L460,1139Z" fill="#99c0e5" stroke="#99c0e5" stroke-width="1.51"/><path d="M632,1229L696,1132L616,1111Z" fill="#bcd4f1" stroke="#bcd4f1" stroke-width="1.51"/><path d="M616,1111L696,1132L647,1059Z" fill="#bed5f1" stroke="#bed5f1" stroke-width="1.51"/><path d="M936,902L951,943L967,822Z" fill="#c4d7f1" stroke="#c4d7f1" stroke-width="1.51"/><path d="M937,1041L951,943L880,946Z" fill="#dee1f2" stroke="#dee1f2" stroke-width="1.51"/><path d="M32,-110L-12,-23L78,-36Z" fill="#dfe2f2" stroke="#dfe2f2" stroke-width="1.51"/><path d="M63,1132L115,1051L33,1034Z" fill="#d0dcf2" stroke="#d0dcf2" stroke-width="1.51"/><path d="M980,56L873,-20L850,63Z" fill="#e2e3f2" stroke="#e2e3f2" stroke-width="1.51"/><path d="M371,1150L392,1208L460,1139Z" fill="#8fadcf" stroke="#8fadcf" stroke-width="1.51"/><path d="M299,1225L371,1150L325,1136Z" fill="#92b2d5" stroke="#92b2d5" stroke-width="1.51"/><path d="M299,1225L325,1136L229,1220Z" fill="#96bade" stroke="#96bade" stroke-width="1.51"/><path d="M-112,120L-130,80L-120,288Z" fill="#bbd4f1" stroke="#bbd4f1" stroke-width="1.51"/><path d="M-120,288L-130,80L-132,549Z" fill="#9ac3e8" stroke="#9ac3e8" stroke-width="1.51"/><path d="M-98,-10L-130,80L-16,85Z" fill="#dce1f2" stroke="#dce1f2" stroke-width="1.51"/><path d="M873,-20L789,-87L797,3Z" fill="#ebe7f2" stroke="#ebe7f2" stroke-width="1.51"/><path d="M710,-85L960,-121L558,-91Z" fill="#e2e3f2" stroke="#e2e3f2" stroke-width="1.51"/><path d="M-103,861L-111,974L-47,958Z" fill="#d0dcf2" stroke="#d0dcf2" stroke-width="1.51"/><path d="M-14,1150L63,1132L33,1034Z" fill="#e1e3f2" stroke="#e1e3f2" stroke-width="1.51"/><path d="M-122,1032L-111,974L-103,861Z" fill="#d7dff2" stroke="#d7dff2" stroke-width="1.51"/><path d="M850,1031L937,1041L880,946Z" fill="#e6e5f2" stroke="#e6e5f2" stroke-width="1.51"/><path d="M696,1132L795,1110L787,1043Z" fill="#e8e5f2" stroke="#e8e5f2" stroke-width="1.51"/><path d="M709,1203L795,1110L696,1132Z" fill="#dee1f2" stroke="#dee1f2" stroke-width="1.51"/><path d="M392,1208L470,1221L460,1139Z" fill="#92b3d5" stroke="#92b3d5" stroke-width="1.51"/><path d="M229,1220L325,1136L196,1151Z" fill="#98c0e4" stroke="#98c0e4" stroke-width="1.51"/><path d="M-14,1150L33,1034L-19,1027Z" fill="#ebe7f2" stroke="#ebe7f2" stroke-width="1.51"/><path d="M936,127L980,56L850,63Z" fill="#d4ddf2" stroke="#d4ddf2" stroke-width="1.51"/><path d="M873,-20L869,-99L789,-87Z" fill="#ebe7f2" stroke="#ebe7f2" stroke-width="1.51"/><path d="M962,290L980,56L936,127Z" fill="#bdd5f1" stroke="#bdd5f1" stroke-width="1.51"/><path d="M971,539L980,56L962,290Z" fill="#9bc5ea" stroke="#9bc5ea" stroke-width="1.51"/><path d="M968,1150L980,56L971,539Z" fill="#92b2d5" stroke="#92b2d5" stroke-width="1.51"/><path d="M470,1221L543,1221L460,1139Z" fill="#96bbdf" stroke="#96bbdf" stroke-width="1.51"/><path d="M392,1208L299,1225L470,1221Z" fill="#8daacb" stroke="#8daacb" stroke-width="1.51"/><path d="M470,1221L632,1229L543,1221Z" fill="#9bc5ea" stroke="#9bc5ea" stroke-width="1.51"/><path d="M229,1220L196,1151L118,1184Z" fill="#a2cbf0" stroke="#a2cbf0" stroke-width="1.51"/><path d="M-12,-23L-98,-10L-16,85Z" fill="#e6e5f2" stroke="#e6e5f2" stroke-width="1.51"/><path d="M151,-101L32,-110L78,-36Z" fill="#c9d9f1" stroke="#c9d9f1" stroke-width="1.51"/><path d="M327,-101L32,-110L151,-101Z" fill="#a7cdf0" stroke="#a7cdf0" stroke-width="1.51"/><path d="M-29,-114L32,-110L327,-101Z" fill="#c0d6f1" stroke="#c0d6f1" stroke-width="1.51"/><path d="M-93,-113L-98,-10L-12,-23Z" fill="#ebe7f2" stroke="#ebe7f2" stroke-width="1.51"/><path d="M118,1184L196,1151L139,1141Z" fill="#afd0f0" stroke="#afd0f0" stroke-width="1.51"/><path d="M63,1132L118,1184L139,1141Z" fill="#c1d6f1" stroke="#c1d6f1" stroke-width="1.51"/><path d="M64,1230L118,1184L63,1132Z" fill="#ccdaf1" stroke="#ccdaf1" stroke-width="1.51"/><path d="M866,1117L937,1041L850,1031Z" fill="#ebe7f2" stroke="#ebe7f2" stroke-width="1.51"/><path d="M980,56L940,-32L873,-20Z" fill="#ebe7f2" stroke="#ebe7f2" stroke-width="1.51"/><path d="M299,1225L632,1229L470,1221Z" fill="#94b7da" stroke="#94b7da" stroke-width="1.51"/><path d="M543,1221L632,1229L616,1111Z" fill="#a7cdf0" stroke="#a7cdf0" stroke-width="1.51"/><path d="M795,1110L866,1117L850,1031Z" fill="#ebe7f2" stroke="#ebe7f2" stroke-width="1.51"/><path d="M632,1229L709,1203L696,1132Z" fill="#c9d9f1" stroke="#c9d9f1" stroke-width="1.51"/><path d="M865,1190L866,1117L795,1110Z" fill="#ebe7f2" stroke="#ebe7f2" stroke-width="1.51"/><path d="M-111,974L-122,1032L-19,1027Z" fill="#e8e5f2" stroke="#e8e5f2" stroke-width="1.51"/><path d="M-132,549L-122,1032L-103,861Z" fill="#accff0" stroke="#accff0" stroke-width="1.51"/><path d="M940,-32L869,-99L873,-20Z" fill="#ebe7f2" stroke="#ebe7f2" stroke-width="1.51"/><path d="M789,-87L869,-99L710,-85Z" fill="#ebe7f2" stroke="#ebe7f2" stroke-width="1.51"/><path d="M450,-98L960,-121L327,-101Z" fill="#9fcaf0" stroke="#9fcaf0" stroke-width="1.51"/><path d="M32,-110L-29,-114L-12,-23Z" fill="#ebe7f2" stroke="#ebe7f2" stroke-width="1.51"/><path d="M960,-121L-29,-114L327,-101Z" fill="#90afd1" stroke="#90afd1" stroke-width="1.51"/><path d="M118,1184L64,1230L229,1220Z" fill="#b5d2f1" stroke="#b5d2f1" stroke-width="1.51"/><path d="M-84,1121L-14,1150L-19,1027Z" fill="#ebe7f2" stroke="#ebe7f2" stroke-width="1.51"/><path d="M-122,1032L-84,1121L-19,1027Z" fill="#ebe7f2" stroke="#ebe7f2" stroke-width="1.51"/><path d="M709,1203L785,1222L795,1110Z" fill="#e9e6f2" stroke="#e9e6f2" stroke-width="1.51"/><path d="M866,1117L968,1150L937,1041Z" fill="#ebe7f2" stroke="#ebe7f2" stroke-width="1.51"/><path d="M632,1229L785,1222L709,1203Z" fill="#d4def2" stroke="#d4def2" stroke-width="1.51"/><path d="M-36,1201L64,1230L-14,1150Z" fill="#e9e7f2" stroke="#e9e7f2" stroke-width="1.51"/><path d="M-14,1150L64,1230L63,1132Z" fill="#dde1f2" stroke="#dde1f2" stroke-width="1.51"/><path d="M229,1220L64,1230L299,1225Z" fill="#9dc9ef" stroke="#9dc9ef" stroke-width="1.51"/><path d="M299,1225L64,1230L632,1229Z" fill="#92b2d5" stroke="#92b2d5" stroke-width="1.51"/><path d="M-29,-114L-93,-113L-12,-23Z" fill="#ebe7f2" stroke="#ebe7f2" stroke-width="1.51"/><path d="M-98,-10L-93,-113L-130,80Z" fill="#ebe7f2" stroke="#ebe7f2" stroke-width="1.51"/><path d="M785,1222L865,1190L795,1110Z" fill="#ebe7f2" stroke="#ebe7f2" stroke-width="1.51"/><path d="M869,-99L960,-121L710,-85Z" fill="#ebe7f2" stroke="#ebe7f2" stroke-width="1.51"/><path d="M940,-32L960,-121L869,-99Z" fill="#ebe7f2" stroke="#ebe7f2" stroke-width="1.51"/><path d="M980,56L960,-121L940,-32Z" fill="#ebe7f2" stroke="#ebe7f2" stroke-width="1.51"/><path d="M-84,1121L-36,1201L-14,1150Z" fill="#ebe7f2" stroke="#ebe7f2" stroke-width="1.51"/><path d="M948,1209L968,1150L865,1190Z" fill="#ebe7f2" stroke="#ebe7f2" stroke-width="1.51"/><path d="M865,1190L968,1150L866,1117Z" fill="#ebe7f2" stroke="#ebe7f2" stroke-width="1.51"/><path d="M937,1041L968,1150L951,943Z" fill="#ebe7f2" stroke="#ebe7f2" stroke-width="1.51"/><path d="M951,943L968,1150L967,822Z" fill="#dce1f2" stroke="#dce1f2" stroke-width="1.51"/><path d="M967,822L968,1150L971,539Z" fill="#b4d1f1" stroke="#b4d1f1" stroke-width="1.51"/><path d="M785,1222L948,1209L865,1190Z" fill="#ebe7f2" stroke="#ebe7f2" stroke-width="1.51"/><path d="M-84,1121L-92,1225L-36,1201Z" fill="#ebe7f2" stroke="#ebe7f2" stroke-width="1.51"/><path d="M-36,1201L-92,1225L64,1230Z" fill="#ebe7f2" stroke="#ebe7f2" stroke-width="1.51"/><path d="M-122,1032L-92,1225L-84,1121Z" fill="#ebe7f2" stroke="#ebe7f2" stroke-width="1.51"/></svg>