<?xml version="1.0" encoding="UTF-8" standalone="no"?>
<svg
   xmlns:dc="http://purl.org/dc/elements/1.1/"
   xmlns:cc="http://creativecommons.org/ns#"
   xmlns:rdf="http://www.w3.org/1999/02/22-rdf-syntax-ns#"
   xmlns:svg="http://www.w3.org/2000/svg"
   xmlns="http://www.w3.org/2000/svg"
   xmlns:sodipodi="http://sodipodi.sourceforge.net/DTD/sodipodi-0.dtd"
   xmlns:inkscape="http://www.inkscape.org/namespaces/inkscape"
   sodipodi:docname="logo.svg"
   inkscape:version="1.0 (b51213c273, 2020-08-10)"
   id="svg81"
   version="1.1"
   viewBox="0 0 26.458333 10.583334"
   height="40"
   width="100">
  <defs
     id="defs75" />
  <sodipodi:namedview
     inkscape:window-maximized="1"
     inkscape:window-y="25"
     inkscape:window-x="0"
     inkscape:window-height="1031"
     inkscape:window-width="1920"
     inkscape:pagecheckerboard="true"
     units="px"
     showgrid="false"
     inkscape:document-rotation="0"
     inkscape:current-layer="text139"
     inkscape:document-units="mm"
     inkscape:cy="13.645509"
     inkscape:cx="51.208416"
     inkscape:zoom="7.9195959"
     inkscape:pageshadow="2"
     inkscape:pageopacity="0.0"
     borderopacity="1.0"
     bordercolor="#666666"
     pagecolor="#ffffff"
     id="base" />
  <metadata
     id="metadata78">
    <rdf:RDF>
      <cc:Work
         rdf:about="">
        <dc:format>image/svg+xml</dc:format>
        <dc:type
           rdf:resource="http://purl.org/dc/dcmitype/StillImage" />
        <dc:title></dc:title>
      </cc:Work>
    </rdf:RDF>
  </metadata>
  <g
     id="layer1"
     inkscape:groupmode="layer"
     inkscape:label="Ebene 1">
    <g
       aria-label="fpcm"
       id="text139"
       style="font-style:normal;font-weight:normal;font-size:10.5833px;line-height:1.25;font-family:sans-serif;fill:#000000;fill-opacity:1;stroke:none;stroke-width:0.264583">
      <path
         d="M 1.9880476,4.7119844 V 8.4161393 H 0.76038482 V 5.9396472 Z M 2.5807124,1.4523281 q -0.084666,0 -0.1904994,0.021167 -0.09525,0.010583 -0.1904994,0.09525 -0.084666,0.084666 -0.1481662,0.2751658 -0.0635,0.1904994 -0.0635,0.5397483 V 3.4737384 H 3.0781274 V 4.7014011 H 1.9880476 v 0.010583 H 0.76038482 V 4.7014011 H 0.22063654 V 3.4737384 H 0.76038482 V 2.3624919 q 0,-0.4444986 0.105833,-0.8149141 Q 0.98263412,1.1771623 1.1837168,0.90199654 1.6705486,0.22466537 2.5807124,0.22466537 h 0.074083 l 0.4233319,0.0105833 V 1.4734947 L 2.6230456,1.4523281 h -0.042333 z"
         style="stroke-width:0.264583"
         id="path45" />
      <path
         d="M 6.8399944,8.1092236 Q 6.4695789,8.2468065 6.014497,8.2468065 q -0.6773311,0 -1.238246,-0.3386656 V 10.331717 H 3.5485882 V 3.2303225 H 4.776251 V 3.5689881 Q 5.0514168,3.3996553 5.3689157,3.2726557 5.6864147,3.1350728 6.014497,3.1350728 q 0.5079984,0 0.952497,0.2010827 0.4550819,0.2010827 0.7831642,0.5503315 0.3386656,0.3492489 0.5291649,0.8149141 0.2010827,0.4656652 0.2010827,0.9948302 0,0.5397483 -0.1904994,0.9948301 H 6.8399944 Q 7.0304938,6.5111454 7.1363268,6.2571462 7.2527431,5.9925637 7.2527431,5.6962313 q 0,-0.2751658 -0.09525,-0.5185817 Q 7.0622437,4.9342337 6.8929109,4.7543176 6.7235781,4.5744015 6.4907455,4.4685685 6.2684962,4.3627355 6.014497,4.3627355 q -0.2539992,0 -0.4868318,0.105833 -0.2222492,0.105833 -0.391582,0.2857491 -0.1693328,0.1799161 -0.2645825,0.423332 -0.09525,0.2434159 -0.09525,0.5185817 0,0.2751658 0.09525,0.5185817 0.09525,0.2328326 0.2645825,0.4127486 0.1693328,0.1799161 0.391582,0.2857491 0.2328326,0.105833 0.4868318,0.105833 0.4762485,0 0.8254974,-0.3280823 z"
         style="stroke-width:0.264583"
         id="path47" />
      <path
         d="m 12.478412,6.7651445 h 1.428746 l -0.412749,0.6667479 q -0.285749,0.4656652 -0.761997,0.7725809 -0.507999,0.3386656 -1.015997,0.4021654 -0.09525,0.010583 -0.1905,0.010583 -0.09525,0.010583 -0.190499,0.010583 h -0.02117 q -0.423332,0 -0.783164,-0.1269996 V 7.0826435 q 0.08467,0.084666 0.15875,0.1481662 0.08467,0.052917 0.190499,0.09525 0.222249,0.084666 0.433915,0.084666 0.211666,0 0.412749,-0.0635 0.211666,-0.074083 0.370416,-0.1904994 0.07408,-0.052917 0.126999,-0.105833 0.0635,-0.0635 0.116417,-0.1269996 z M 9.1129231,7.0720602 Q 8.9435903,6.6275616 8.9435903,6.0772301 q 0,-0.5503316 0.1693328,-1.0159968 Q 9.2928392,4.5955681 9.5997549,4.2569025 9.9066706,3.9076536 10.330003,3.7171542 10.753335,3.5160716 11.261333,3.5160716 h 0.116416 q 0.656165,0 1.206496,0.3280822 0.560915,0.317499 0.910164,0.8678306 l 0.412749,0.6667479 H 12.488996 L 12.351413,5.2199828 Q 12.171497,4.9977335 11.906914,4.8707339 11.652915,4.733151 11.367166,4.733151 H 11.2825 q -0.507999,0 -0.814915,0.3809988 -0.306915,0.3704155 -0.306915,0.9630803 0,0.6138313 0.349249,0.9948301 z"
         style="stroke-width:0.264583"
         id="path49" />
      <path
         d="M 20.359498,4.9659836 V 8.1727234 H 19.131835 V 4.9765669 q 0,-0.1904994 -0.08467,-0.2963324 -0.08467,-0.1164163 -0.201083,-0.1693328 -0.116416,-0.0635 -0.243416,-0.074083 -0.127,-0.021167 -0.211666,-0.021167 -0.148166,0 -0.211666,0.021167 -0.0635,0.021167 -0.08467,0.042333 -0.03175,0.03175 -0.0635,0.1481662 -0.02117,0.1164163 -0.02117,0.3598322 V 8.1727234 H 16.782343 V 4.9765669 q 0,-0.2010827 -0.105833,-0.3069157 -0.09525,-0.1164163 -0.22225,-0.1693328 -0.126999,-0.0635 -0.253999,-0.074083 -0.116416,-0.010583 -0.158749,-0.010583 -0.232833,0 -0.306916,0.0635 v -0.010583 h -1.354662 v -1.238246 h 1.206496 v 0.1164163 q 0.116416,-0.052916 0.201082,-0.084666 0.08467,-0.03175 0.137583,-0.052917 0.0635,-0.021167 0.116417,-0.021167 0.719664,0 1.238246,0.3704155 0.423332,-0.3704155 1.111246,-0.3704155 0.804331,0 1.354662,0.4550818 0.243416,0.211666 0.391583,0.4868318 0.158749,0.2645825 0.201082,0.5926648 l 0.01058,0.010583 z M 15.702846,4.5003184 q -0.05292,0.052916 -0.07408,0.1799161 -0.01058,0.1164163 -0.01058,0.2963324 V 8.1727234 H 14.379934 V 5.8232309 Z"
         style="stroke-width:0.264583"
         id="path51" />
    </g>
  </g>
</svg>
