<?xml version="1.0" encoding="UTF-8" standalone="no"?>
<!-- Created with Inkscape (http://www.inkscape.org/) -->

<svg
   xmlns:dc="http://purl.org/dc/elements/1.1/"
   xmlns:cc="http://creativecommons.org/ns#"
   xmlns:rdf="http://www.w3.org/1999/02/22-rdf-syntax-ns#"
   xmlns:svg="http://www.w3.org/2000/svg"
   xmlns="http://www.w3.org/2000/svg"
   xmlns:sodipodi="http://sodipodi.sourceforge.net/DTD/sodipodi-0.dtd"
   xmlns:inkscape="http://www.inkscape.org/namespaces/inkscape"
   width="64px"
   height="64px"
   id="svg2985"
   version="1.1"
   inkscape:version="0.48.4 r9939"
   sodipodi:docname="logo.svg"
   inkscape:export-filename="/var/www/html/fanpress3/core/theme/logo32.ico.png"
   inkscape:export-xdpi="21.09"
   inkscape:export-ydpi="21.09">
  <defs
     id="defs2987" />
  <sodipodi:namedview
     id="base"
     pagecolor="#ffffff"
     bordercolor="#666666"
     borderopacity="1.0"
     inkscape:pageopacity="0.0"
     inkscape:pageshadow="2"
     inkscape:zoom="5.6568542"
     inkscape:cx="47.448098"
     inkscape:cy="42.141349"
     inkscape:current-layer="layer1"
     showgrid="true"
     inkscape:document-units="px"
     inkscape:grid-bbox="true"
     inkscape:window-width="1366"
     inkscape:window-height="744"
     inkscape:window-x="0"
     inkscape:window-y="24"
     inkscape:window-maximized="1" />
  <metadata
     id="metadata2990">
    <rdf:RDF>
      <cc:Work
         rdf:about="">
        <dc:format>image/svg+xml</dc:format>
        <dc:type
           rdf:resource="http://purl.org/dc/dcmitype/StillImage" />
        <dc:title />
      </cc:Work>
    </rdf:RDF>
  </metadata>
  <g
     inkscape:groupmode="layer"
     id="layer4"
     inkscape:label="Ebene#1" />
  <g
     inkscape:groupmode="layer"
     id="layer2"
     inkscape:label="Ebene">
    <path
       style="fill:#003366;fill-opacity:1;fill-rule:nonzero;stroke:none;stroke-opacity:1"
       id="path3478"
       d="m 44.775589,16.932992 c -0.01699,-0.107941 -0.03855,-0.215056 -0.05909,-0.322355 -0.0401,-0.198644 -0.08053,-0.397227 -0.120935,-0.595813 -0.05163,-0.254167 -0.104453,-0.508075 -0.15407,-0.76265 -0.05159,-0.260419 -0.10691,-0.520053 -0.161846,-0.779778 -0.05635,-0.263671 -0.122758,-0.524972 -0.191695,-0.78558 -0.07124,-0.266846 -0.149266,-0.53176 -0.228531,-0.796308 -0.07959,-0.259937 -0.170549,-0.516253 -0.265317,-0.770992 -0.09723,-0.260054 -0.208886,-0.514273 -0.325127,-0.76628 C 43.151504,11.101891 43.02394,10.855593 42.891709,10.611757 42.759617,10.367431 42.614837,10.130513 42.467529,9.8951832 42.32416,9.6638483 42.168159,9.4407527 42.013558,9.2168839 41.863934,8.9996482 41.703813,8.7900127 41.542473,8.5814333 41.376167,8.3704695 41.207039,8.1617585 41.035498,7.9550336 40.865877,7.7500098 40.689888,7.5504726 40.513069,7.3516772 40.344927,7.1618635 40.173229,6.9755213 39.993735,6.7963903 39.817168,6.6235142 39.625319,6.4674122 39.425355,6.3226044 c -0.65832,-0.4524911 -0.139548,-0.111691 -1.197556,1.2409729 -0.01458,0.01864 -0.02263,-0.075714 -0.03942,-0.05904 -0.121553,0.120693 -0.180952,0.5182482 -0.3122,0.4081763 -0.138494,-0.1161487 0.13072,-0.3370403 0.196081,-0.5055605 -0.319868,0.5713198 -0.202869,0.4661185 -0.558485,0.3607292 -0.0736,-0.023178 -0.150872,-0.033701 -0.227664,-0.041158 -0.06628,-0.00449 -0.132524,-0.011248 -0.198738,-0.00325 -0.03874,0.00353 0.03481,0.00176 0.04689,0.00334 0.0068,0.00138 0.01386,9.955e-4 0.0208,0.00107 0.03368,-0.014629 0.06167,-0.03456 0.09032,-0.056973 0.0096,-0.00202 -0.0065,0.020028 -0.0099,0.025819 -0.02658,0.04849 -0.002,0.00392 -0.03285,0.074227 -0.0368,0.084412 -0.06782,0.1711384 -0.09769,0.2581879 -0.03983,0.1173218 -0.07359,0.2365538 -0.105867,0.3561328 -0.03756,0.1396959 -0.06943,0.280787 -0.09911,0.4223344 -0.04272,0.1882469 -0.08101,0.3774072 -0.116657,0.5671047 -0.03632,0.1947629 -0.06813,0.3903207 -0.09857,0.5860758 -0.03202,0.2070049 -0.05912,0.4147249 -0.08535,0.6225289 -0.02528,0.213562 -0.05149,0.427099 -0.07036,0.641343 -0.01818,0.218451 -0.03284,0.437178 -0.04684,0.655931 -0.01559,0.244467 -0.02841,0.489098 -0.04046,0.733762 -0.01284,0.278974 -0.02488,0.557951 -0.0414,0.836736 -0.017,0.271152 -0.03285,0.54237 -0.04768,0.813649 -0.01377,0.29666 -0.0339,0.592953 -0.05327,0.889283 -0.01879,0.295447 -0.03657,0.590927 -0.0587,0.886146 -0.02271,0.287454 -0.04267,0.575107 -0.06148,0.862838 -0.02428,0.323273 -0.04794,0.646614 -0.07541,0.969634 -0.02725,0.30185 -0.05437,0.603709 -0.08012,0.905691 -0.02486,0.299889 -0.04795,0.599896 -0.07522,0.899577 -0.02573,0.300688 -0.0586,0.600676 -0.09014,0.900789 -0.02883,0.293114 -0.06271,0.585685 -0.09525,0.8784 -0.03024,0.292449 -0.0662,0.584245 -0.10079,0.876199 -0.03731,0.288641 -0.07497,0.577228 -0.110369,0.866113 -0.04045,0.339772 -0.09432,0.677524 -0.157608,1.013725 -0.06341,0.321421 -0.136157,0.64087 -0.205382,0.96106 -0.07162,0.324608 -0.143886,0.64901 -0.222946,0.971896 -0.08811,0.351187 -0.189421,0.698859 -0.290855,1.046371 -0.08646,0.293695 -0.167313,0.588981 -0.245209,0.88505 -0.07554,0.294347 -0.148265,0.589431 -0.219598,0.884826 -0.07996,0.331702 -0.167396,0.661526 -0.252904,0.991823 -0.0462,0.06986 -0.06131,0.403224 -0.112026,0.447446 -0.06571,0.0573 -0.221253,0.01187 -0.243208,0.09625 -0.02153,0.08274 0.134537,0.115274 0.167662,0.194088 0.01875,0.04461 -0.01737,0.09522 -0.02606,0.142824 -0.06537,0.28939 -0.124831,0.580058 -0.182371,0.871089 -0.06155,0.322643 -0.130643,0.643815 -0.200875,0.964665 -0.01333,0.05835 -0.02666,0.116698 -0.03999,0.175047 -0.02309,0.05859 -0.05439,0.114585 -0.06928,0.175779 -0.02024,0.0832 -8.3e-5,0.242159 -0.0521,0.321811 -0.03748,0.05738 -0.135664,0.07153 -0.15244,0.137982 -0.01602,0.06345 0.04763,0.121904 0.07144,0.182856 -0.01212,0.04995 -0.02425,0.0999 -0.03637,0.149845 -0.02581,0.05462 -0.06237,0.10536 -0.07744,0.163865 -0.01368,0.05313 7.19e-4,0.110141 -0.0071,0.164446 -0.02128,0.147565 -0.07731,0.303165 -0.116815,0.446653 -0.07578,0.306579 -0.142271,0.615877 -0.23736,0.917187 -0.07504,0.335898 -0.179483,0.664842 -0.277335,0.994744 -0.09402,0.312028 -0.187191,0.624292 -0.281219,0.936316 -0.09126,0.317528 -0.19598,0.630955 -0.287536,0.948302 -0.09514,0.293449 -0.187411,0.587717 -0.275532,0.883443 -0.08786,0.276344 -0.153838,0.56122 -0.22277,0.843627 -0.07342,0.305624 -0.138911,0.613068 -0.203375,0.92068 -0.06978,0.343531 -0.134277,0.688128 -0.198429,1.03275 -0.06624,0.360893 -0.126586,0.722822 -0.189835,1.084243 -0.06242,0.366048 -0.128181,0.731514 -0.197201,1.096373 -0.0716,0.378471 -0.15819,0.753734 -0.252063,1.127225 -0.0964,0.391619 -0.230005,0.772099 -0.374056,1.148292 -0.137323,0.356203 -0.300153,0.70174 -0.469652,1.043542 -0.153137,0.309434 -0.313855,0.614986 -0.47899,0.918158 -0.186681,0.33493 -0.37956,0.666399 -0.5762,0.995568 -0.180335,0.301999 -0.357957,0.605598 -0.53771,0.907946 -0.193727,0.328799 -0.395629,0.652608 -0.597111,0.976672 -0.193963,0.316944 -0.389326,0.633041 -0.588115,0.946981 -0.20355,0.326924 -0.418707,0.646297 -0.637645,0.96304 -0.216496,0.313575 -0.440851,0.621536 -0.671018,0.925183 -0.212775,0.281099 -0.428635,0.559838 -0.649489,0.834637 -0.212304,0.266254 -0.431126,0.527271 -0.654316,0.784446 -0.213105,0.247417 -0.432895,0.48902 -0.656459,0.726998 -0.230371,0.241434 -0.471388,0.472505 -0.715422,0.700025 -0.256052,0.240083 -0.529654,0.4598 -0.809145,0.671697 -0.252544,0.186244 -0.509051,0.367086 -0.76924,0.542477 -0.268276,0.180381 -0.546268,0.345434 -0.827618,0.504395 -0.280198,0.157035 -0.567661,0.300476 -0.858597,0.436376 -0.315822,0.144574 -0.639267,0.271481 -0.963914,0.394614 -0.316791,0.120604 -0.639283,0.22513 -0.963925,0.322277 -0.305852,0.09183 -0.615745,0.169 -0.927235,0.238969 -0.299919,0.0666 -0.602242,0.120861 -0.906087,0.165889 -0.298694,0.04404 -0.599313,0.07134 -0.900469,0.09108 -0.318315,0.02055 -0.637215,0.01735 -0.955741,0.0053 -0.287132,-0.01069 -0.573113,-0.03871 -0.858821,-0.06791 -0.281953,-0.0292 -0.56208,-0.0723 -0.841321,-0.120492 -0.282306,-0.04999 -0.561916,-0.113197 -0.839118,-0.186078 -0.10092,-0.03354 -0.725652,-0.210741 -0.760349,-0.26076 -0.04944,-0.07127 -0.04609,-0.167232 -0.06913,-0.250848 0.440234,-2.10682 -0.357387,1.557466 0.584926,-1.897772 0.0095,-0.03469 -0.06394,-0.03289 -0.09567,-0.0498 -0.09519,-0.05075 -0.187647,-0.105265 -0.279652,-0.161505 -0.184464,-0.112251 -0.35224,-0.247734 -0.514468,-0.389472 C 9.9278395,57.086463 9.7781061,56.920314 9.633591,56.750382 9.4884881,56.580133 9.3605194,56.396826 9.238698,56.209539 9.112697,56.013195 9.0118621,55.802438 8.9179046,55.589362 8.828063,55.37952 8.756197,55.162939 8.6971718,54.942629 8.6396459,54.727016 8.6025391,54.507041 8.5784871,54.285416 c -0.02073,-0.22099 -0.017188,-0.443283 -0.00507,-0.664614 0.014601,-0.212411 0.046248,-0.423048 0.089771,-0.631317 0.049276,-0.213189 0.1154116,-0.421669 0.1833522,-0.62946 0.072246,-0.213637 0.1519889,-0.424673 0.2320835,-0.635468 0.082837,-0.214537 0.1728383,-0.426311 0.2678141,-0.635738 0.096388,-0.216917 0.2024942,-0.429221 0.3128015,-0.63933 0.1149676,-0.216012 0.2374906,-0.427845 0.3688676,-0.634269 0.126436,-0.19766 0.271462,-0.382103 0.423509,-0.56045 0.146897,-0.169304 0.300473,-0.332299 0.46116,-0.488522 0.656876,-0.615539 0.542544,-0.14899 -0.289573,-1.513703 0.358104,-0.352868 0.598031,0.689503 1.063277,0.916062 0.01908,0.0093 0.254495,-0.149863 0.281797,-0.165088 0.193748,-0.106819 0.393904,-0.201177 0.595736,-0.29153 0.206788,-0.08927 0.419637,-0.16341 0.63414,-0.231667 0.208178,-0.06676 0.420453,-0.118676 0.634183,-0.163969 0.20888,-0.04375 0.420986,-0.0662 0.633621,-0.0808 0.204602,-0.01381 0.409769,-0.01327 0.614586,-0.0058 0.194854,0.0071 0.388928,0.0269 0.582068,0.05297 0.124746,0.01652 0.248563,0.03914 0.371976,0.06351 0,0 -0.03491,0.176574 -0.03491,0.176574 l 0,0 c -0.119824,-0.02372 -0.240059,-0.04565 -0.361186,-0.06171 -0.187324,-0.02538 -0.375576,-0.04454 -0.564569,-0.05147 -0.198515,-0.0074 -0.397376,-0.0078 -0.595686,0.0055 -0.204237,0.01391 -0.407962,0.03537 -0.608603,0.07731 -0.207918,0.04402 -0.414421,0.09446 -0.61693,0.15941 -0.208071,0.06613 -0.414521,0.138025 -0.61516,0.224428 -0.19704,0.08817 -0.392459,0.180234 -0.581626,0.284456 -0.02581,0.01438 -0.273757,0.133779 -0.272242,0.159367 0.02768,0.467469 0.832022,1.133452 0.53613,1.268211 -0.916472,-1.076339 -0.636956,-1.290765 -1.281584,-0.692988 -0.156719,0.152261 -0.306375,0.31124 -0.44966,0.47625 -0.146701,0.171928 -0.286627,0.349744 -0.408625,0.540316 -0.128758,0.202156 -0.2486549,0.409724 -0.3613383,0.621276 -0.1087219,0.207037 -0.2132795,0.416249 -0.3082472,0.630014 -0.093468,0.205976 -0.1819374,0.41431 -0.2634733,0.625311 -0.079091,0.208154 -0.1578574,0.416537 -0.2292602,0.627476 -0.065901,0.201542 -0.1301953,0.403694 -0.1782596,0.610409 -0.041828,0.199345 -0.071999,0.401005 -0.086222,0.604321 -0.011712,0.21158 -0.015201,0.424096 0.0043,0.635377 0.022875,0.212477 0.058568,0.42333 0.1136128,0.630042 0.056478,0.211445 0.1255428,0.419225 0.2115587,0.620655 0.089981,0.204245 0.1863753,0.406377 0.3069866,0.594653 0.1175793,0.180884 0.2410321,0.357965 0.3811318,0.522381 0.1387034,0.163219 0.2823168,0.322921 0.4436808,0.464329 0.154529,0.135107 0.314166,0.264471 0.489936,0.37145 0.03761,0.02302 0.357937,0.21118 0.362588,0.20421 0.364059,-0.545635 0.609075,-1.163756 0.96756,-1.713518 0.0414,-0.05571 0.07083,-0.122738 0.124198,-0.167115 6.16e-4,-5.12e-4 0.213962,0.09859 0.238108,0.08644 0.145621,0.0409 0.294202,0.07002 0.44257,0.09897 0.176269,0.03058 0.352884,0.05913 0.530889,0.07783 0.193332,0.01978 0.386704,0.04069 0.581013,0.04814 0.160935,0.0073 0.322038,0.0098 0.482977,3.97e-4 0.181327,-0.01143 0.36234,-0.02684 0.542163,-0.05355 0.192724,-0.02673 0.383689,-0.06412 0.573902,-0.10488 0.207781,-0.04548 0.414014,-0.09794 0.617923,-0.158534 0.220608,-0.06544 0.439724,-0.136053 0.654889,-0.217837 0.224078,-0.08469 0.447656,-0.171192 0.666182,-0.269516 0.183342,-0.08306 0.362097,-0.176137 0.538727,-0.272559 0.178062,-0.09989 0.354049,-0.203575 0.523861,-0.317069 0.191903,-0.128657 0.380173,-0.262604 0.567137,-0.398317 0.157276,-0.118161 0.311841,-0.239909 0.455347,-0.374769 0.171449,-0.159028 0.340315,-0.321064 0.503124,-0.488951 0.18338,-0.194272 0.362522,-0.392601 0.536974,-0.594933 0.186139,-0.213476 0.367304,-0.431319 0.54404,-0.652639 0.194515,-0.241231 0.383364,-0.486943 0.570662,-0.733804 0.190328,-0.250193 0.374802,-0.504723 0.553651,-0.763261 0.184753,-0.266962 0.366366,-0.536104 0.537606,-0.812007 0.192117,-0.302671 0.379731,-0.608175 0.567234,-0.91372 0.185683,-0.298628 0.372046,-0.596841 0.550442,-0.899921 0.181773,-0.305744 0.361338,-0.612786 0.543782,-0.918129 0.166375,-0.277766 0.328754,-0.55795 0.487406,-0.840198 0.138424,-0.253242 0.272321,-0.508918 0.40046,-0.767532 0.106991,-0.21377 0.210222,-0.429827 0.297594,-0.652473 0.08023,-0.207141 0.157566,-0.415713 0.210252,-0.631917 0.07254,-0.285843 0.138603,-0.573237 0.193744,-0.862992 0.06533,-0.344069 0.126863,-0.688847 0.185845,-1.034059 0.06607,-0.377498 0.129038,-0.755538 0.198538,-1.132429 0.07044,-0.378204 0.14125,-0.756382 0.218332,-1.133295 0.07478,-0.356161 0.150831,-0.712107 0.236341,-1.065877 0.08741,-0.357147 0.184776,-0.71112 0.282844,-1.064884 0.09393,-0.313438 0.199294,-0.622631 0.291702,-0.936347 0.101893,-0.298258 0.180488,-0.603965 0.27422,-0.904907 0.09222,-0.306027 0.184608,-0.612004 0.275839,-0.918327 0.08395,-0.282608 0.16193,-0.56723 0.253466,-0.847404 0.06097,-0.301358 0.143063,-0.598495 0.221111,-0.895795 0.03512,-0.150674 0.05954,-0.317327 0.114345,-0.462053 0.01847,-0.04877 0.05844,-0.08867 0.07148,-0.139167 0.02551,-0.09877 -0.03801,-0.211511 0.04175,-0.303182 0.04976,-0.04272 0.133489,-0.06452 0.149277,-0.128173 0.01509,-0.06085 -0.06774,-0.110321 -0.07467,-0.172632 -0.01191,-0.107032 0.07628,-0.200507 0.09963,-0.295889 0.01062,-0.04339 -3.55e-4,-0.08963 0.0057,-0.133899 0.0062,-0.04544 0.02054,-0.08939 0.03081,-0.134081 0.06385,-0.29063 0.126282,-0.581644 0.181961,-0.873964 0.06607,-0.333722 0.134417,-0.667012 0.209569,-0.998826 0.01518,-0.05703 0.004,-0.129199 0.04554,-0.171105 0.06302,-0.06354 0.22203,-0.03056 0.24117,-0.117989 0.01957,-0.08939 -0.139184,-0.130361 -0.167764,-0.217289 -0.02773,-0.08434 0.131208,-0.39842 0.125779,-0.501958 0.07941,-0.306684 0.160742,-0.612897 0.235141,-0.920852 0.07864,-0.325128 0.158539,-0.649983 0.242084,-0.973887 0.08819,-0.334652 0.179542,-0.668468 0.277249,-1.000483 0.08316,-0.284897 0.166775,-0.569759 0.240106,-0.857387 0.0695,-0.282276 0.131683,-0.566195 0.1948,-0.849953 0.06119,-0.282864 0.125223,-0.565119 0.18259,-0.848796 0.04599,-0.238876 0.0829,-0.4792 0.111891,-0.720755 0.03469,-0.282834 0.07108,-0.565446 0.108183,-0.847971 0.03332,-0.281195 0.06808,-0.562223 0.09708,-0.843908 0.03155,-0.28376 0.06448,-0.567369 0.09234,-0.851524 0.02937,-0.279332 0.06021,-0.558521 0.08402,-0.838401 0.02655,-0.291014 0.04852,-0.582388 0.07293,-0.873587 0.02581,-0.30246 0.05285,-0.60481 0.08024,-0.90713 0.02529,-0.292807 0.04588,-0.586011 0.06857,-0.879028 0.01977,-0.302252 0.04072,-0.604426 0.06454,-0.906391 0.02112,-0.280694 0.03754,-0.561678 0.05564,-0.842581 0.01833,-0.280279 0.03754,-0.560509 0.05038,-0.84111 0.01523,-0.278407 0.03144,-0.556756 0.0489,-0.835033 0.01572,-0.26358 0.02645,-0.527379 0.03892,-0.791129 0.01317,-0.266891 0.0272,-0.533745 0.04424,-0.800421 0.01663,-0.259081 0.03407,-0.518134 0.05622,-0.776811 0.02473,-0.266419 0.05468,-0.532315 0.08738,-0.797874 0.03174,-0.2508359 0.06472,-0.5015415 0.10353,-0.7513977 0.03789,-0.242915 0.07757,-0.4855671 0.122856,-0.7272305 0.04187,-0.2217557 0.08596,-0.4430867 0.135844,-0.6631986 0.0479,-0.2261288 0.09944,-0.4515054 0.159959,-0.6746391 0.05999,-0.219814 0.123476,-0.4387484 0.198027,-0.6541383 0.07802,-0.2231854 0.160942,-0.444805 0.25929,-0.6599689 0.118206,-0.2547791 0.247151,-0.5049216 0.407286,-0.7363734 0.166225,-0.2403361 0.344699,-0.4724741 0.552366,-0.678974 0.247865,-0.2415685 0.513563,-0.4643022 0.81319,-0.6399013 0.291386,-0.1672346 0.593507,-0.3157814 0.915384,-0.415553 0.356337,-0.1075977 0.720525,-0.1898656 1.094009,-0.2046495 0.326927,-0.012563 0.654134,-0.00658 0.979147,0.034862 0.347992,0.046611 0.694497,0.1094747 1.029025,0.2186892 0.224211,0.072906 0.444885,0.1521562 0.661359,0.2458958 0.05228,0.022639 0.149902,0.013607 0.155797,0.070272 0.01944,0.1868358 -0.06042,0.3707977 -0.09063,0.5561966 0.753402,-0.7280009 0.246743,-0.3919116 0.313195,0.1264877 0.0078,0.060932 0.1955,0.00531 0.173333,0.062602 -0.661524,1.7096927 -1.250087,1.186071 -0.569562,1.651017 0.207465,0.1505357 0.406752,0.3124516 0.5899,0.4921281 0.181973,0.1816866 0.356189,0.3705476 0.526664,0.5630525 0.178187,0.200334 0.355518,0.401434 0.526455,0.6080411 0.172848,0.2083107 0.343275,0.4186157 0.51083,0.6312123 0.163318,0.2111457 0.325365,0.4233872 0.476822,0.6432949 0.156137,0.226095 0.313641,0.451441 0.45843,0.6850789 0.149294,0.238505 0.295962,0.47866 0.42984,0.726277 0.134065,0.247259 0.263398,0.497016 0.38249,0.751894 0.118128,0.256159 0.231584,0.514573 0.33038,0.778911 0.09611,0.258402 0.188359,0.518398 0.269036,0.782083 0.07982,0.266416 0.158376,0.533208 0.23012,0.80194 0.0697,0.263517 0.136814,0.527746 0.193784,0.794362 0.05513,0.260661 0.11065,0.521233 0.162418,0.782593 0.04952,0.254092 0.102252,0.507514 0.153781,0.761199 0.04054,0.199271 0.08112,0.398536 0.121341,0.597868 0.02069,0.108148 0.04241,0.216111 0.05956,0.324902 0,0 -0.177252,0.03128 -0.177252,0.03128 z"
       inkscape:connector-curvature="0" />
    <path
       style="fill:#003366;fill-opacity:1;fill-rule:nonzero;stroke:none"
       id="path3480"
       d="m 14.971957,15.586739 c 0.07253,0.03332 0.145958,0.06464 0.219008,0.09683 0.135139,0.05505 0.274731,0.09832 0.413307,0.143747 0.178532,0.05748 0.356262,0.117256 0.536249,0.170072 0.233979,0.0639 0.470639,0.117386 0.706248,0.174837 0.256968,0.06318 0.514019,0.125875 0.771616,0.186441 0.294164,0.06775 0.58905,0.132309 0.883394,0.199286 0.303905,0.06748 0.606464,0.140802 0.908378,0.216641 0.317091,0.07931 0.634151,0.158769 0.950704,0.240212 0.329057,0.08341 0.65825,0.16631 0.986799,0.251708 0.323174,0.08317 0.64588,0.168099 0.96746,0.257238 0.336772,0.09336 0.673758,0.185991 1.010081,0.280962 0.0016,-0.0044 0.139134,-1.977693 0.940035,-1.987935 0.08902,-0.0011 0.586393,0.170736 0.706468,0.206454 0.35248,0.102155 0.702371,0.212915 1.053323,0.320135 0.348553,0.108055 0.697219,0.215724 1.047373,0.318487 0.342501,0.09808 0.684234,0.198751 1.027702,0.293417 0.346737,0.0961 0.69424,0.189446 1.043492,0.275982 0.372611,0.08773 0.746252,0.171098 1.119878,0.2544 0.366407,0.0831 0.734747,0.156942 1.103284,0.22982 0.407696,0.08293 0.816382,0.160833 1.224521,0.241537 0.411287,0.08084 0.821604,0.166462 1.232511,0.249197 0.490962,0.0991 0.984731,0.183423 1.477498,0.27292 0.496913,0.08856 0.993274,0.180165 1.489994,0.269799 0.477734,0.0855 0.955489,0.170866 1.43299,0.257655 0.466878,0.08641 0.932997,0.176796 1.399257,0.266449 0.441261,0.08384 0.881829,0.171277 1.322234,0.259487 0.419407,0.08282 0.838599,0.166745 1.257167,0.253708 0.400218,0.08456 0.800029,0.171165 1.199486,0.259267 0.386873,0.08699 0.772712,0.178423 1.158736,0.26907 0.366985,0.08342 0.731748,0.176094 1.09688,0.267158 0.356792,0.08989 0.713127,0.181641 1.068601,0.276614 0.338244,0.09106 0.675413,0.186079 1.012416,0.281613 0.310355,0.08553 0.619497,0.17535 0.929565,0.2619 0.291198,0.07922 0.582861,0.156764 0.874617,0.233912 0.279774,0.07467 0.561732,0.140637 0.843014,0.209268 0.27349,0.06799 0.547956,0.131888 0.823039,0.193081 1.087775,0.227956 0.256274,0.477733 0.09272,2.243671 -1.5e-4,0.0016 0.270322,0.0566 0.271251,0.05679 0.256007,0.05102 0.514826,0.08504 0.774909,0.105938 0.240626,0.01825 0.481791,0.0098 0.721877,-0.01067 0.199025,-0.01749 0.394151,-0.06063 0.585872,-0.11542 0.141504,-0.04081 0.272362,-0.107845 0.398217,-0.182999 0.09262,-0.05583 0.17793,-0.121947 0.252436,-0.200238 0.04623,-0.05015 0.08304,-0.106926 0.104245,-0.171779 0.01087,-0.02809 0.0071,-0.05481 -0.0025,-0.07784 -0.0231,0.0011 -0.057,-0.0075 -0.08389,-0.0085 -0.08817,-0.0021 -0.175682,0.01148 -0.262876,0.02269 -0.119565,0.01353 -0.238359,0.03269 -0.357414,0.04997 -0.140589,0.02034 -0.281668,0.03698 -0.422845,0.05262 -0.156272,0.021 -0.312859,0.03976 -0.468976,0.06188 -0.171515,0.02637 -0.3437,0.04804 -0.515353,0.0734 -0.198037,0.02919 -0.394722,0.06705 -0.590727,0.107518 -0.153352,0.05592 -0.337852,0.04217 -0.487119,0.109074 -0.659904,0.295766 0.131415,1.442267 0.261197,2.153679 -0.239228,0.08949 -0.490522,0.147308 -0.736305,0.21843 -0.28336,0.08271 -0.566106,0.167428 -0.850094,0.247989 -0.306128,0.08646 -0.614154,0.165934 -0.923412,0.240345 -0.335312,0.07862 -0.673292,0.145004 -1.011719,0.208598 -0.310376,0.05819 -0.622124,0.108586 -0.932727,0.165495 -0.352199,0.06366 -0.705202,0.122848 -1.058197,0.181926 -0.356705,0.05982 -0.713186,0.120872 -1.070074,0.179618 -0.389463,0.06541 -0.780613,0.11997 -1.170914,0.179973 -0.369402,0.05759 -0.738955,0.114213 -1.108077,0.173584 -0.376927,0.06098 -0.753373,0.124906 -1.129477,0.190766 -0.376888,0.06487 -0.753454,0.131531 -1.129662,0.200225 -0.371843,0.06804 -0.744364,0.132204 -1.116141,0.200603 -0.370085,0.06938 -0.741327,0.132268 -1.112468,0.195674 -0.384927,0.06531 -0.77068,0.125586 -1.156686,0.184138 -0.36846,0.05574 -0.73753,0.10729 -1.106813,0.157238 -0.340659,0.04183 -0.67994,0.0934 -1.01951,0.143036 -0.351547,0.05437 -0.703116,0.10856 -1.055015,0.160614 -0.316364,0.05042 -0.633629,0.09533 -0.948954,0.152014 -0.206112,0.03446 -0.406329,0.09357 -0.604505,0.158566 -0.164003,0.05307 -0.322808,0.118654 -0.477639,0.193985 -0.06007,0.02639 -0.111297,0.06412 -0.160818,0.105581 -0.02935,0.03524 0.0102,-0.0011 0.02373,-0.01408 0.08527,-0.09601 0.143652,-0.208418 0.190189,-0.326944 0.07312,-0.200699 0.08953,-0.412215 0.07454,-0.623803 -0.0095,-0.115011 -0.04169,-0.224961 -0.0848,-0.331381 -0.02105,-0.04403 -0.04275,-0.08779 -0.066,-0.130702 -0.0026,-0.0032 -4.12e-4,-0.0082 -6.18e-4,-0.01231 0.06263,0.04484 0.122415,0.09335 0.186519,0.136184 0.07547,0.04894 0.153047,0.09408 0.231956,0.137151 0.129425,0.06605 0.260567,0.128614 0.392778,0.188864 0.17024,0.08046 0.346148,0.147523 0.522062,0.214248 0.236327,0.08794 0.474615,0.170477 0.712267,0.254736 0.223102,0.08085 0.448272,0.155515 0.675692,0.22321 0.254271,0.07323 0.510245,0.140495 0.766224,0.207477 0.294635,0.07563 0.588657,0.153668 0.882265,0.233192 0.290661,0.0777 0.58095,0.156731 0.871259,0.235736 0.311855,0.08648 0.622292,0.177909 0.930502,0.276582 0.415916,0.141033 0.821143,0.311754 1.225059,0.483639 0.393385,0.170636 0.785324,0.344597 1.177073,0.518951 0.354124,0.160803 0.710512,0.316518 1.067084,0.471792 0.316414,0.138441 0.637523,0.26571 0.959803,0.389741 0.320703,0.123503 0.644864,0.237483 0.969445,0.350265 0.338003,0.116067 0.67773,0.227113 1.01763,0.33749 0.348658,0.11487 0.697939,0.227826 1.046082,0.344258 0.332439,0.111334 0.665406,0.22111 0.997413,0.333731 0.32812,0.111208 0.654858,0.226466 0.98076,0.344004 0.312524,0.110928 0.622304,0.229291 0.932822,0.345649 0.300896,0.113103 0.600621,0.229258 0.900262,0.345634 0.287265,0.113284 0.57315,0.229996 0.859767,0.344893 0.275973,0.112349 0.552477,0.223404 0.82815,0.336484 0.277483,0.112675 0.552873,0.230321 0.827713,0.349259 0.271096,0.114859 0.539783,0.235267 0.807538,0.357677 0.267683,0.12294 0.532367,0.252152 0.796349,0.382796 0.268247,0.132506 0.531371,0.274778 0.791939,0.421707 0.293813,0.164993 0.571628,0.355637 0.841915,0.556301 0.253643,0.18836 0.488867,0.399054 0.713074,0.621159 0.238938,0.238162 0.438213,0.509383 0.615702,0.795167 0.194606,0.315368 0.316332,0.663031 0.402933,1.021241 0.09098,0.39779 0.07487,0.801017 0.01095,1.200582 -0.0767,0.436212 -0.27884,0.820947 -0.528928,1.179945 -0.223582,0.299998 -0.509722,0.536029 -0.820811,0.739328 -0.266938,0.165955 -0.558926,0.280178 -0.858437,0.371168 -0.244762,0.07246 -0.496872,0.113521 -0.749932,0.14295 -0.220126,0.02496 -0.441674,0.03199 -0.663036,0.0321 -0.226949,-0.0024 -0.453297,-0.0194 -0.679045,-0.04165 -0.197715,-0.0202 -0.394806,-0.04546 -0.591796,-0.07165 -0.169719,-0.02307 -0.339841,-0.04282 -0.510207,-0.06041 -0.199624,-0.02023 -0.399523,-0.03755 -0.599473,-0.05419 -0.21117,-0.01736 -0.422479,-0.03297 -0.633886,-0.04714 -0.255783,-0.0157 -0.51114,-0.03752 -0.766697,-0.05644 -0.280078,-0.01947 -0.560296,-0.03637 -0.840254,-0.05755 -0.277754,-0.02142 -0.555483,-0.04358 -0.833696,-0.05815 -0.295638,-0.01414 -0.591416,-0.02512 -0.887205,-0.03553 -0.319022,-0.01089 -0.638083,-0.0206 -0.957156,-0.02987 -0.360134,-0.01284 -0.720143,-0.02854 -1.079972,-0.04811 -0.345539,-0.01984 -0.691148,-0.03836 -1.036828,-0.05556 -0.352384,-0.01724 -0.704844,-0.03284 -1.057322,-0.048 -0.344402,-0.01687 -0.689027,-0.02616 -1.033748,-0.033 -0.363459,-0.0067 -0.726938,-0.01232 -1.090419,-0.01769 -0.358226,-0.002 -0.716462,-7.6e-5 -1.074687,0.0012 -0.362397,0.0014 -0.724794,0.0027 -1.087191,0.0039 -0.374896,0.0021 -0.749818,5.14e-4 -1.124697,0.0049 -0.370218,0.0057 -0.74041,0.01298 -1.110609,0.01978 -0.363704,0.0043 -0.727225,0.01649 -1.090759,0.02779 -0.374582,0.0117 -0.749182,0.02281 -1.123797,0.0334 -0.163476,-0.0057 -0.379416,0.02775 -0.534277,-0.04729 -0.07287,-0.03531 -0.12499,-0.10383 -0.193926,-0.146318 -0.36292,-0.223681 -0.04454,0.08247 -0.400693,-0.332253 -0.06748,-0.04604 -0.150159,-0.07535 -0.202426,-0.138126 -0.481408,-0.578218 0.09279,-0.690009 -0.338224,0.729123 -0.0023,0.0075 -0.526355,0.01991 -0.572556,0.0202 -0.08236,0.123689 -0.303233,-0.152732 -0.381973,-0.05123 -0.106031,0.136685 -0.07608,0.343464 -0.164285,0.492279 -0.03548,0.05986 -0.129165,0.05524 -0.184909,0.09689 -0.461948,0.345148 0.08664,0.03722 -0.365888,0.27245 -0.04855,-0.07073 -0.262021,0.379768 -0.370471,0.271656 -0.0096,-0.0096 -0.382879,-0.975188 -0.392081,-0.98715 -0.03791,-0.04928 -0.124174,0.0066 -0.186261,0.0099 -0.06258,0.0033 -0.12516,0.0066 -0.187739,0.0099 -0.24834,0.01395 -0.49685,0.02475 -0.745216,0.03816 -0.05432,0.0029 -0.147261,-0.04256 -0.162923,0.0095 -0.08876,0.295262 -0.07721,0.611779 -0.115821,0.917668 -0.09724,0.09216 -0.240718,0.109672 -0.344678,0.189586 -0.06599,0.05072 -0.110588,0.125276 -0.174486,0.178609 -0.0017,0.0014 -0.285628,0.198643 -0.317358,0.119736 -0.140032,-0.34823 -0.172313,-0.730618 -0.258469,-1.095927 -0.05815,0.03367 -0.121745,0.05932 -0.174442,0.101011 -0.153107,0.121119 -0.264522,0.324879 -0.318459,0.271681 -0.188432,-0.185851 -0.455102,-1.373069 -0.457479,-1.378916 -0.03066,-0.07543 -0.125812,-0.103399 -0.188718,-0.155098 -0.681015,-1.110423 -0.253924,-0.203445 -0.407124,1.057909 -0.0033,0.02713 -0.476682,0.03147 -0.512751,0.032 -0.108877,0.04143 -0.637312,-0.213053 -0.680423,-0.180829 -0.492592,0.368207 0.161278,0.247873 -0.284589,0.297941 -0.316355,0.03513 -0.632815,0.06882 -0.948085,0.112798 -0.343705,0.04886 -0.68664,0.102968 -1.030011,0.154118 -0.339982,0.05364 -0.679991,0.107076 -1.020341,0.158339 -0.328354,0.04859 -0.656077,0.101308 -0.984247,0.151132 -0.330782,0.05017 -0.662156,0.09626 -0.993741,0.140769 -0.307169,0.04416 -0.614342,0.08825 -0.921797,0.130389 -0.313763,0.0429 -0.628019,0.08205 -0.942439,0.119782 -0.291996,0.03252 -0.583351,0.07031 -0.874885,0.10665 -0.280569,0.03235 -0.560308,0.07116 -0.840253,0.108382 -0.27549,0.03603 -0.550332,0.07681 -0.825555,0.114834 -0.273347,0.03701 -0.546065,0.07848 -0.819179,0.117179 -0.26212,0.03714 -0.524153,0.07528 -0.785669,0.116492 -0.261107,0.04186 -0.522522,0.08162 -0.783305,0.125466 -0.254971,0.04126 -0.509459,0.08514 -0.763824,0.129952 -0.239987,0.04074 -0.479653,0.08341 -0.718557,0.13011 -0.84229,0.225732 -0.195646,-1.586171 -0.788721,-2.05574 -0.002,-0.0016 -0.3459894,0.06996 -0.374711,0.07575 -0.2509526,0.05075 -0.5018748,0.101805 -0.7523668,0.154799 -0.249835,0.05183 -0.4990925,0.106213 -0.7482859,0.161017 -0.2468634,0.05455 -0.4948054,0.103962 -0.7431463,0.151256 -0.2443374,0.04543 -0.4877948,0.09539 -0.7319463,0.141812 -0.2479397,0.05021 -0.4964113,0.09766 -0.74531,0.142861 -0.2081401,0.0365 -0.4164761,0.07171 -0.6243911,0.109486 0,0 -0.032178,-0.177091 -0.032178,-0.177091 l 0,0 c 0.2079226,-0.03778 0.4162627,-0.073 0.624413,-0.10949 0.2484111,-0.0451 0.4963907,-0.09249 0.7438459,-0.142589 0.2441351,-0.04642 0.4875738,-0.09639 0.7318955,-0.141802 0.2466737,-0.04697 0.4929509,-0.09605 0.7381564,-0.150232 0.2496633,-0.05491 0.4993921,-0.109394 0.749697,-0.161322 0.251054,-0.0531 0.5025325,-0.104287 0.7540468,-0.155146 0.029127,-0.0059 0.3748899,-0.07364 0.3762589,-0.07605 0.374733,-0.661394 -0.9194417,-2.100175 -0.03905,-2.201966 0.264986,-0.05129 0.530527,-0.09967 0.796671,-0.144579 0.266071,-0.04687 0.532286,-0.09274 0.798971,-0.136 0.277038,-0.04652 0.554687,-0.08909 0.832087,-0.133388 0.283617,-0.0443 0.567621,-0.0863 0.851864,-0.126369 0.278308,-0.03941 0.556198,-0.08174 0.834755,-0.119358 0.282742,-0.03903 0.565081,-0.08099 0.848112,-0.117891 0.292161,-0.03884 0.584128,-0.07919 0.876918,-0.113105 0.298426,-0.03719 0.596679,-0.07581 0.895566,-0.109179 0.289385,-0.0347 0.578619,-0.07069 0.8674,-0.110142 0.311608,-0.04267 0.622873,-0.08772 0.934244,-0.132077 0.305809,-0.04101 0.611425,-0.08348 0.916493,-0.129725 0.32994,-0.05006 0.659415,-0.103151 0.989547,-0.151933 0.342738,-0.05159 0.685075,-0.105727 1.02749,-0.15941 0.358789,-0.05343 0.717098,-0.110106 1.076292,-0.160766 0.353745,-0.04866 0.708467,-0.08867 1.063438,-0.127249 0.46837,-0.05254 -0.208787,-0.02487 0.387396,0.223543 0.06445,0.02686 0.546387,-0.378248 0.669864,-0.317945 0.03811,-0.0067 0.493319,-0.08851 0.501564,-0.06307 0.160192,0.494353 0.141041,1.037601 0.317996,1.526205 0.07243,0.199981 0.389973,-0.873389 0.305777,-0.560039 0.05319,-0.06137 0.141685,-0.1049 0.159586,-0.184122 0.0048,-0.02104 0.06162,-1.225604 0.24639,-1.437452 0.08385,-0.09614 0.460605,0.318022 0.580541,0.29314 0.03434,-0.374018 0.0073,-0.758867 0.103032,-1.122053 0.01629,-0.0618 0.128685,-0.0068 0.191682,0.004 0.318533,0.05434 0.125308,0.05468 0.398508,0.22165 0.113077,0.06911 0.260458,0.06755 0.370279,0.144747 0.08133,0.298488 0.10523,0.61896 0.243996,0.895464 0.02989,0.05957 0.133064,-0.0079 0.199617,-0.01152 0.243955,-0.01318 0.488053,-0.02376 0.731981,-0.03748 0.0015,-8e-5 0.376866,-0.01992 0.376882,-0.01995 0.110942,-0.169959 0.202022,-0.857281 0.357373,-1.025063 0.101173,-0.109268 0.331983,0.307981 0.376618,0.240286 0.45927,0.198278 -0.108257,-0.06777 0.37545,0.239378 0.05706,0.03623 0.147359,0.02456 0.18647,0.07969 0.09985,0.140753 0.08963,0.347914 0.206782,0.474635 0.0859,0.09292 0.277734,-0.202591 0.369322,-0.08783 0.04708,-0.0044 0.57418,-0.04456 0.577379,-0.03706 0.141865,0.332342 0.05593,0.750026 0.250004,1.054841 0.114457,0.17977 0.152737,-0.638923 0.379073,-0.514841 0.311,-0.431182 0.03277,-0.117522 0.369542,-0.36218 0.06625,-0.04813 0.113853,-0.121263 0.185277,-0.161314 0.164542,-0.09227 0.397242,-0.06856 0.576467,-0.08512 0.370407,-0.01047 0.740798,-0.02145 1.111171,-0.03303 0.382637,-0.01189 0.765267,-0.02449 1.148079,-0.0292 0.380856,-0.007 0.761703,-0.01455 1.142582,-0.02025 0.386748,-0.0042 0.773525,-0.0034 1.160289,-0.0052 0.362083,-0.0012 0.724166,-0.0026 1.086249,-0.0039 0.385903,-0.0014 0.771821,-0.0036 1.157722,-7.54e-4 0.371238,0.0055 0.742475,0.0112 1.11369,0.01809 0.379479,0.0076 0.758861,0.01797 1.137999,0.03629 0.362571,0.01561 0.725124,0.03166 1.087598,0.04941 0.35275,0.01756 0.70543,0.03641 1.058037,0.05666 0.321719,0.01756 0.643599,0.03149 0.965581,0.04333 0.328292,0.0096 0.656572,0.01953 0.984811,0.03076 0.323832,0.01141 0.647654,0.02345 0.971305,0.03928 0.310982,0.01708 0.621584,0.03985 0.932051,0.06453 0.277433,0.02107 0.555176,0.03718 0.8327,0.05699 0.245255,0.0182 0.490323,0.03913 0.735793,0.05425 0.235412,0.01586 0.470728,0.03315 0.705876,0.05256 0.230439,0.01921 0.460815,0.03928 0.690866,0.06274 0.213441,0.02224 0.426623,0.04683 0.639281,0.07569 0.152215,0.02024 0.304405,0.04037 0.457205,0.05581 0.07516,0.0089 0.151387,0.01306 0.22642,0.01809 0.0535,4.48e-4 0.105197,9e-4 0.15347,-0.0042 0.05981,-0.0048 -0.05464,0.0081 0.01788,-3.36e-4 0.01294,-0.0015 -0.05015,0.01358 -0.03724,0.01186 -0.0948,0.03456 -0.184355,0.07823 -0.26837,0.135112 -0.152013,0.105035 -0.28844,0.226848 -0.395563,0.378805 -0.1421,0.213206 -0.257676,0.439819 -0.297012,0.696559 -0.02731,0.200401 -0.03458,0.40271 0.01609,0.600579 0.03294,0.120506 0.07203,0.241051 0.142064,0.345807 0.0066,0.0092 0.0782,0.102957 0.04313,0.05041 -0.06341,-0.06594 -0.134561,-0.125477 -0.207406,-0.181459 -0.116072,-0.0879 -0.235241,-0.171733 -0.362227,-0.243354 -0.188017,-0.106783 -0.378333,-0.209312 -0.572126,-0.305282 -0.222874,-0.110298 -0.446132,-0.219798 -0.67211,-0.323648 -0.239374,-0.109624 -0.47974,-0.217101 -0.722219,-0.319704 -0.248984,-0.107749 -0.498391,-0.214495 -0.749835,-0.316418 -0.263987,-0.1086 -0.529095,-0.214476 -0.793374,-0.322369 -0.271298,-0.10884 -0.541984,-0.219186 -0.813796,-0.326748 -0.282988,-0.109913 -0.566025,-0.219692 -0.850194,-0.32653 -0.29325,-0.109933 -0.585768,-0.221849 -0.880946,-0.326566 C 45.517466,38.52942 45.217638,38.42386 44.916635,38.32176 44.591046,38.211047 44.264262,38.103866 43.93824,37.994439 43.602777,37.882103 43.266069,37.773565 42.93012,37.662699 42.561089,37.542797 42.192236,37.422196 41.825333,37.295914 41.453451,37.166687 41.082249,37.0355 40.71482,36.893985 c -0.3827,-0.147532 -0.763925,-0.299083 -1.139729,-0.463535 -0.367606,-0.160114 -0.735056,-0.320615 -1.10017,-0.486359 -0.36992,-0.164639 -0.740025,-0.328885 -1.111354,-0.490324 -0.27704,-0.118294 -0.554952,-0.235529 -0.837829,-0.33916 -0.242496,-0.0787 -0.487675,-0.148738 -0.733019,-0.217962 -0.288874,-0.07864 -0.577729,-0.157285 -0.866969,-0.23457 -0.280926,-0.07626 -0.562377,-0.150633 -0.84431,-0.223079 -0.306924,-0.0804 -0.613844,-0.161151 -0.918397,-0.250176 -0.299069,-0.08996 -0.595972,-0.186707 -0.889623,-0.293148 -0.268734,-0.09539 -0.538252,-0.188661 -0.805245,-0.288871 -0.269544,-0.102392 -0.537939,-0.208081 -0.799306,-0.330185 -0.23385,-0.107368 -0.466284,-0.21813 -0.692968,-0.340052 -0.212442,-0.117626 -0.42134,-0.241714 -0.62197,-0.378727 -0.190229,-0.132772 -0.376476,-0.271429 -0.554686,-0.420062 -0.215494,-0.187232 -0.422015,-0.385229 -0.598948,-0.610143 -0.185617,-0.23645 -0.356507,-0.484812 -0.484744,-0.757769 -0.146882,-0.326788 -0.264247,-0.665815 -0.307976,-1.023397 -0.04716,-0.454596 -0.03042,-0.909408 0.11433,-1.347182 0.134801,-0.384981 0.30819,-0.754122 0.564279,-1.075222 0.228012,-0.280783 0.477824,-0.542826 0.766279,-0.762836 0.301893,-0.228203 0.619205,-0.434898 0.962202,-0.596776 0.337614,-0.159996 0.682757,-0.30297 1.03876,-0.417296 0.393322,-0.125678 0.791423,-0.236952 1.198992,-0.306571 0.358973,-0.06346 0.719493,-0.117312 1.079691,-0.173311 0.354435,-0.0524 0.708487,-0.107281 1.062611,-0.161731 0.355545,-0.05195 0.710823,-0.105727 1.067467,-0.149782 0.345273,-0.04667 0.690348,-0.09484 1.034852,-0.146918 0.358178,-0.0543 0.716125,-0.110168 1.07331,-0.170697 0.352251,-0.06016 0.704618,-0.119734 1.055856,-0.185632 0.373736,-0.06874 0.74818,-0.133433 1.122006,-0.201677 0.386961,-0.07065 0.774281,-0.139259 1.161936,-0.205997 0.396867,-0.06948 0.794098,-0.136905 1.191835,-0.201235 0.379702,-0.06097 0.759799,-0.11943 1.13979,-0.178565 0.374101,-0.05729 0.748931,-0.109894 1.122251,-0.172236 0.352948,-0.0581 0.705491,-0.118498 1.058259,-0.177657 0.330707,-0.05532 0.661426,-0.110728 0.991408,-0.170233 0.303639,-0.0554 0.608199,-0.105498 0.911713,-0.161604 0.264815,-0.04964 0.529355,-0.101039 0.791916,-0.161653 0.249492,-0.0595 0.497694,-0.124306 0.744648,-0.193603 0.276525,-0.0783 0.551634,-0.161372 0.827613,-0.241555 0.297502,-0.08591 0.594965,-0.181799 0.901164,-0.229773 0.660074,2.057939 0.08064,2.179079 1.279059,1.912083 0.199358,-0.04114 0.399402,-0.07964 0.600824,-0.109304 0.172011,-0.02538 0.344542,-0.04717 0.516414,-0.07355 0.157922,-0.02233 0.316301,-0.04141 0.474386,-0.06256 0.139162,-0.01541 0.278229,-0.0318 0.416812,-0.05185 0.120019,-0.01742 0.239778,-0.03671 0.360308,-0.05036 0.09814,-0.01262 0.19668,-0.02731 0.295921,-0.02388 0.08909,0.0059 0.174447,0.02385 0.230636,0.09994 0.03562,0.07278 0.04153,0.146598 0.01595,0.224572 -0.03142,0.08899 -0.07939,0.169007 -0.144517,0.237872 -0.0862,0.08949 -0.183457,0.166469 -0.290253,0.230332 -0.139372,0.08294 -0.284434,0.156512 -0.44102,0.201482 -0.202923,0.05774 -0.409378,0.10334 -0.619985,0.121672 -0.249973,0.02117 -0.50106,0.02987 -0.751574,0.01073 -0.267343,-0.0216 -0.533414,-0.05647 -0.796563,-0.109017 -0.04558,-0.0093 -0.0912,-0.01847 -0.136732,-0.028 -0.04612,-0.0097 -0.121716,-0.07371 -0.138217,-0.02958 -0.08254,0.22075 0.05458,2.086046 -0.758435,2.051543 -0.09425,-0.004 -0.181057,-0.06343 -0.276281,-0.06131 -0.305102,-0.06799 -0.609584,-0.138707 -0.912957,-0.214069 -0.309116,-0.07557 -0.618988,-0.148163 -0.926417,-0.23048 -0.311754,-0.08248 -0.623444,-0.165242 -0.934531,-0.2502 -0.315727,-0.0882 -0.630569,-0.179521 -0.946587,-0.26669 -0.315612,-0.08947 -0.631351,-0.178553 -0.948108,-0.263894 -0.330603,-0.08864 -0.66223,-0.173459 -0.994067,-0.257349 -0.345008,-0.08605 -0.689619,-0.173839 -1.036413,-0.252518 -0.366348,-0.08604 -0.732512,-0.172845 -1.099621,-0.255605 -0.381461,-0.08426 -0.763333,-0.166783 -1.145515,-0.2477 -0.40772,-0.08486 -0.816147,-0.166287 -1.22469,-0.24708 -0.429021,-0.08593 -0.858194,-0.17115 -1.288057,-0.252778 -0.451215,-0.08676 -0.902291,-0.174251 -1.354081,-0.258 -0.475649,-0.08645 -0.951554,-0.171469 -1.427433,-0.256648 -0.498379,-0.08995 -0.996403,-0.181843 -1.494978,-0.270703 -0.520953,-0.09462 -1.042934,-0.18393 -1.561907,-0.289081 -0.405788,-0.0817 -0.810997,-0.166239 -1.217147,-0.246131 -0.408152,-0.08071 -0.816857,-0.158591 -1.224564,-0.241545 -0.404247,-0.07994 -0.808202,-0.161322 -1.210147,-0.252298 -0.408963,-0.09121 -0.818002,-0.182262 -1.22562,-0.279319 -0.386869,-0.09628 -0.77213,-0.198811 -1.156249,-0.305538 -0.367215,-0.101443 -0.732801,-0.208508 -1.098948,-0.313708 -0.365933,-0.107539 -0.730504,-0.219563 -1.094748,-0.332682 -0.340305,-0.104039 -0.679608,-0.211421 -1.021406,-0.31051 -0.09949,-0.02962 -0.60302,-0.155539 -0.658505,-0.19247 -0.609654,-0.405788 0.160764,-2.849195 0.251502,-2.182617 -0.336044,-0.0949 -0.672754,-0.187438 -1.009246,-0.280729 -0.320648,-0.08889 -0.642425,-0.173555 -0.964662,-0.256486 -0.328403,-0.08537 -0.657455,-0.168214 -0.986366,-0.251596 -0.31622,-0.08136 -0.632949,-0.160725 -0.949708,-0.239959 -0.30061,-0.07552 -0.601866,-0.148514 -0.90446,-0.215703 -0.294765,-0.06707 -0.590074,-0.131713 -0.884656,-0.199578 -0.258079,-0.06068 -0.515613,-0.123495 -0.773062,-0.186787 -0.23831,-0.05812 -0.477699,-0.112175 -0.714312,-0.177003 -0.181767,-0.0534 -0.361319,-0.11362 -0.541612,-0.171739 -0.144169,-0.04727 -0.289398,-0.0923 -0.429804,-0.150067 -0.07249,-0.03194 -0.145365,-0.06303 -0.217343,-0.0961 0,0 0.0709,-0.165438 0.0709,-0.165438 z"
       inkscape:connector-curvature="0" />
  </g>
  <g
     id="layer1"
     inkscape:label="Layer 1"
     inkscape:groupmode="layer">
    <path
       style="fill:#0197fd;fill-opacity:1;fill-rule:nonzero;stroke:none"
       id="path3283"
       d="m 41.41458,12.415886 c 0.01436,-0.0869 0.04128,-0.172626 0.04308,-0.26068 0.01885,-0.919716 -0.488043,-2.035687 -0.840536,-2.8555733 -0.140136,-0.2877546 -0.587472,-1.1362676 -0.42041,-0.863264 0.44493,0.7270738 0.916874,1.4455478 1.255449,2.2278293 0.157608,0.364154 -0.453328,-0.652486 -0.706037,-0.9584037 C 40.17158,9.0102688 39.725686,8.5881503 39.010276,8.0459374 38.739365,7.8406122 38.446411,7.6661175 38.164479,7.476207 37.720036,7.251775 36.552032,6.499442 36.09848,7.1432934 c -0.276656,0.392735 -0.509046,1.4425 -0.601144,1.7710858 -0.631558,3.3198228 -0.716543,6.7119758 -1.00473,10.0710448 -0.326085,3.800805 -0.330094,3.466309 -0.852846,7.349511 -0.254455,1.335625 -0.472929,2.678608 -0.76336,4.006873 -0.606334,2.773011 -1.404258,5.672226 -2.264553,8.375098 -0.841758,2.644625 -1.848648,5.439331 -2.950567,7.990987 -0.507786,1.175849 -1.088937,2.31864 -1.633406,3.47796 -0.555248,1.001826 -1.075079,2.024116 -1.665743,3.005479 -1.50197,2.49546 -3.427584,5.183129 -5.856406,6.870338 -0.351506,0.244178 -0.742086,0.426642 -1.113129,0.639962 -0.862444,0.377313 -1.724171,0.554456 -2.648055,0.301943 -0.755169,-0.206401 -1.347679,-0.643862 -1.950992,-1.114841 -1.599041,-1.738486 -3.0872366,-3.957552 -2.966879,-6.392895 0.051325,-1.038458 0.228245,-1.450547 0.507421,-2.466232 0.725303,-1.857476 0.311888,-0.931466 1.250149,-2.773588 0,0 1.860596,2.818729 1.860596,2.818729 l 0,0 c -0.857433,1.886205 -0.49073,0.935684 -1.109964,2.847745 -0.215846,1.082083 -0.360712,1.448533 -0.311855,2.537811 0.01601,0.356868 0.0713,0.712705 0.150304,1.061087 0.06759,0.298074 0.469103,1.116611 0.28772,0.870611 -0.47403,-0.642905 -2.4825673,-3.965211 -1.18315,-2.083849 0.172723,0.162047 0.332116,0.339591 0.518166,0.486143 0.802336,0.632006 1.809631,1.074911 2.848908,0.991718 0.334639,-0.02679 0.659988,-0.123356 0.989982,-0.185034 0.387607,-0.148105 0.790241,-0.261674 1.162822,-0.444315 2.516602,-1.233652 4.713684,-3.666656 6.304353,-5.911214 0.638733,-0.901302 1.189874,-1.861585 1.784811,-2.792378 0.576857,-1.102268 1.199112,-2.181945 1.730574,-3.306803 2.438041,-5.16019 4.095481,-10.748432 5.182708,-16.341735 0.265013,-1.363375 0.450918,-2.740941 0.676376,-4.111411 0.138244,-1.308681 0.303437,-2.614795 0.414733,-3.926041 0.221419,-2.608636 0.269092,-4.5042 0.336002,-7.101381 0.02429,-0.943309 0.08241,-4.5381367 0.128355,-5.6239188 0.02856,-0.6747365 0.0855,-1.347973 0.128235,-2.0219597 0.099,-0.6553276 0.141568,-1.7267307 0.590541,-2.334605 0.646602,-0.8754526 2.001491,0.056931 2.618671,0.4160875 0.652075,0.4546577 1.259122,0.8506465 1.855655,1.3838592 2.039814,1.8232954 3.233987,4.3645489 4.417218,6.7873418 0.484929,1.142802 0.967697,2.313107 0.888657,3.581221 0,0 -2.440076,-3.437842 -2.440076,-3.437842 z"
       inkscape:connector-curvature="0" />
    <path
       style="fill:#ffffff;fill-opacity:1;fill-rule:nonzero;stroke:none"
       id="path3287"
       d="m 22.530384,15.902744 c 0.144219,0.07619 0.281929,0.166221 0.432657,0.228538 1.302462,0.538493 2.733548,0.828674 4.099923,1.134496 1.625338,0.363783 3.467082,0.733871 5.087876,1.066884 5.346943,1.074463 10.709656,2.07746 16.004529,3.391279 0.441567,0.12717 1.425974,0.374723 1.922352,0.616933 0.09779,0.04771 0.214968,0.101184 0.256669,0.201685 0.536907,1.293958 1.314658,2.547139 1.461979,3.940296 0.03667,0.346737 -0.676969,0.17157 -1.021509,0.225083 -0.509963,0.07921 -1.025724,0.115031 -1.538587,0.172548 -4.36999,0.420551 -8.774627,0.650773 -13.077497,1.579701 -0.78003,0.168399 -1.547272,0.391364 -2.320908,0.587046 -0.73208,0.242569 -2.372459,0.703274 -3.096361,1.208204 -0.230556,0.160816 -0.492597,0.376274 -0.531584,0.654657 -0.03156,0.225323 0.41379,0.801517 0.358564,0.5808 -0.731417,-2.923114 -1.834899,-2.968117 1.199416,-1.227044 0.917284,0.408453 1.823094,0.843712 2.75185,1.225359 2.103184,0.864242 4.806505,1.80979 6.943226,2.537781 3.18282,1.084399 6.390442,2.096664 9.593522,3.119076 0.514908,0.163315 2.71142,0.853423 3.41806,1.097607 0.223208,0.07713 0.532387,0.05645 0.661243,0.254355 0.765513,1.175733 1.625689,2.368666 1.937254,3.736616 0.07839,0.344222 -0.682493,0.200223 -1.03452,0.226915 -0.527114,0.03996 -1.057087,-0.01884 -1.58563,-0.02825 -4.017144,-0.08211 -8.0366,-0.143622 -12.0548,-0.115858 -3.651022,0.02523 -5.092751,0.07905 -8.801053,0.172187 -5.802502,0.208432 -11.60509,0.560606 -17.365164,1.312023 -2.38019,0.310504 -3.078574,0.454631 -5.292895,0.843333 0,0 -1.3406867,-2.576963 -1.3406867,-2.576963 l 0,0 c 0.8240797,-0.0016 1.6482677,0.0086 2.4722377,-0.005 2.325586,-0.03841 4.768831,-0.147557 7.084366,-0.252502 4.567013,-0.206987 9.131404,-0.464495 13.692568,-0.775385 5.304286,-0.358006 3.484339,-0.231325 8.588364,-0.590256 3.815042,-0.268286 7.641401,-0.494131 11.426583,-1.06409 0.445845,-0.09828 0.897041,-0.174828 1.337535,-0.294839 1.65233,-0.450171 0.07884,-1.917011 2.465436,2.891047 0.153527,0.309295 -0.49601,-0.487591 -0.786733,-0.673904 -0.881231,-0.564747 -2.911971,-1.448808 -3.736607,-1.828224 -2.850316,-1.167302 -3.138147,-1.328896 -6.185463,-2.3806 -4.272147,-1.474424 -8.636486,-2.65306 -12.929288,-4.062005 -3.11604,-1.146258 -2.22456,-0.431573 -4.827525,-4.65278 -0.128531,-0.208438 -0.08769,-0.536752 0.05984,-0.732199 0.182852,-0.24223 0.521451,-0.320337 0.808681,-0.418366 0.763398,-0.260542 2.747825,-0.593234 3.412461,-0.716952 1.744008,-0.278447 3.487126,-0.562447 5.231318,-0.839736 3.312747,-0.526656 6.6497,-0.970939 9.899798,-1.822325 0.448439,-0.145255 0.906273,-0.264191 1.345315,-0.435762 0.254324,-0.09939 0.538314,-0.570603 0.728472,-0.374645 0.90774,0.935422 1.358071,2.227265 2.105555,3.295101 0.103608,0.148013 -0.04284,-0.380997 -0.161226,-0.517479 -0.432159,-0.498211 -1.641351,-0.983244 -2.117288,-1.212815 -0.625141,-0.240571 -1.242089,-0.503622 -1.875423,-0.721714 -4.626394,-1.59312 -9.473518,-2.41386 -14.300098,-3.121122 -0.876727,-0.11724 -1.752411,-0.242564 -2.630181,-0.351723 -2.149246,-0.267283 -4.308363,-0.432896 -6.460694,-0.669964 0,0 -1.715933,-3.836996 -1.715933,-3.836996 z"
       inkscape:connector-curvature="0" />
  </g>
  <g
     inkscape:groupmode="layer"
     id="layer6"
     inkscape:label="Ebene#2" />
</svg>
