<svg xmlns="http://www.w3.org/2000/svg" width="1366" height="768"><path d="M694,344L582,434L649,438Z" fill="#64b7ee" stroke="#64b7ee" stroke-width="1.51"/><path d="M694,344L529,322L582,434Z" fill="#5fbdee" stroke="#5fbdee" stroke-width="1.51"/><path d="M529,322L403,474L582,434Z" fill="#6abcef" stroke="#6abcef" stroke-width="1.51"/><path d="M580,218L484,298L529,322Z" fill="#69c8f0" stroke="#69c8f0" stroke-width="1.51"/><path d="M694,344L580,218L529,322Z" fill="#61c3ef" stroke="#61c3ef" stroke-width="1.51"/><path d="M582,434L590,528L649,438Z" fill="#68b4ed" stroke="#68b4ed" stroke-width="1.51"/><path d="M403,474L590,528L582,434Z" fill="#6fb9ee" stroke="#6fb9ee" stroke-width="1.51"/><path d="M831,404L824,358L694,344Z" fill="#67b2ed" stroke="#67b2ed" stroke-width="1.51"/><path d="M590,528L678,534L649,438Z" fill="#75b6ee" stroke="#75b6ee" stroke-width="1.51"/><path d="M831,404L694,344L649,438Z" fill="#66b3ed" stroke="#66b3ed" stroke-width="1.51"/><path d="M694,344L693,174L580,218Z" fill="#78c2f0" stroke="#78c2f0" stroke-width="1.51"/><path d="M811,189L693,174L694,344Z" fill="#7ebeef" stroke="#7ebeef" stroke-width="1.51"/><path d="M678,534L831,404L649,438Z" fill="#6aaced" stroke="#6aaced" stroke-width="1.51"/><path d="M484,298L403,474L529,322Z" fill="#6fc2ef" stroke="#6fc2ef" stroke-width="1.51"/><path d="M580,218L425,229L484,298Z" fill="#7dcaf1" stroke="#7dcaf1" stroke-width="1.51"/><path d="M532,99L425,229L580,218Z" fill="#93cdf1" stroke="#93cdf1" stroke-width="1.51"/><path d="M290,401L403,474L484,298Z" fill="#82c1ef" stroke="#82c1ef" stroke-width="1.51"/><path d="M678,534L803,545L831,404Z" fill="#77aeee" stroke="#77aeee" stroke-width="1.51"/><path d="M836,657L803,545L678,534Z" fill="#91baef" stroke="#91baef" stroke-width="1.51"/><path d="M880,201L811,189L824,358Z" fill="#7ebaef" stroke="#7ebaef" stroke-width="1.51"/><path d="M824,358L811,189L694,344Z" fill="#66b9ee" stroke="#66b9ee" stroke-width="1.51"/><path d="M590,528L598,697L678,534Z" fill="#90c4f0" stroke="#90c4f0" stroke-width="1.51"/><path d="M403,474L485,601L590,528Z" fill="#88c2f0" stroke="#88c2f0" stroke-width="1.51"/><path d="M678,86L580,218L693,174Z" fill="#96c7f1" stroke="#96c7f1" stroke-width="1.51"/><path d="M678,86L532,99L580,218Z" fill="#9acbf1" stroke="#9acbf1" stroke-width="1.51"/><path d="M794,103L678,86L693,174Z" fill="#9fc4f0" stroke="#9fc4f0" stroke-width="1.51"/><path d="M831,404L916,318L824,358Z" fill="#6fb4ee" stroke="#6fb4ee" stroke-width="1.51"/><path d="M951,438L916,318L831,404Z" fill="#78b5ed" stroke="#78b5ed" stroke-width="1.51"/><path d="M916,318L880,201L824,358Z" fill="#75bbee" stroke="#75bbee" stroke-width="1.51"/><path d="M811,189L794,103L693,174Z" fill="#9abff0" stroke="#9abff0" stroke-width="1.51"/><path d="M880,201L794,103L811,189Z" fill="#9abcf0" stroke="#9abcf0" stroke-width="1.51"/><path d="M425,229L302,292L484,298Z" fill="#88cbf1" stroke="#88cbf1" stroke-width="1.51"/><path d="M292,213L302,292L425,229Z" fill="#9ecef2" stroke="#9ecef2" stroke-width="1.51"/><path d="M302,292L290,401L484,298Z" fill="#86c8f1" stroke="#86c8f1" stroke-width="1.51"/><path d="M403,474L314,555L485,601Z" fill="#9cc6f1" stroke="#9cc6f1" stroke-width="1.51"/><path d="M485,601L598,697L590,528Z" fill="#94cbf1" stroke="#94cbf1" stroke-width="1.51"/><path d="M803,545L951,438L831,404Z" fill="#76a9ed" stroke="#76a9ed" stroke-width="1.51"/><path d="M948,575L951,438L803,545Z" fill="#8eb5ef" stroke="#8eb5ef" stroke-width="1.51"/><path d="M532,99L403,104L425,229Z" fill="#a8d0f2" stroke="#a8d0f2" stroke-width="1.51"/><path d="M540,-32L403,104L532,99Z" fill="#aed5f1" stroke="#aed5f1" stroke-width="1.51"/><path d="M290,401L314,555L403,474Z" fill="#95bdf0" stroke="#95bdf0" stroke-width="1.51"/><path d="M485,601L415,700L598,697Z" fill="#a5d1f2" stroke="#a5d1f2" stroke-width="1.51"/><path d="M598,697L656,724L678,534Z" fill="#9ecaf1" stroke="#9ecaf1" stroke-width="1.51"/><path d="M403,104L292,213L425,229Z" fill="#acd0f2" stroke="#acd0f2" stroke-width="1.51"/><path d="M302,292L234,302L290,401Z" fill="#96caf1" stroke="#96caf1" stroke-width="1.51"/><path d="M656,724L836,657L678,534Z" fill="#9dc3f0" stroke="#9dc3f0" stroke-width="1.51"/><path d="M678,86L540,-32L532,99Z" fill="#a5d1f1" stroke="#a5d1f1" stroke-width="1.51"/><path d="M794,103L693,-3L678,86Z" fill="#a7c8f0" stroke="#a7c8f0" stroke-width="1.51"/><path d="M836,657L948,575L803,545Z" fill="#9dbcf0" stroke="#9dbcf0" stroke-width="1.51"/><path d="M292,213L234,302L302,292Z" fill="#a1cef2" stroke="#a1cef2" stroke-width="1.51"/><path d="M290,401L169,478L314,555Z" fill="#a2bff0" stroke="#a2bff0" stroke-width="1.51"/><path d="M314,555L415,700L485,601Z" fill="#afd1f2" stroke="#afd1f2" stroke-width="1.51"/><path d="M545,840L699,778L656,724Z" fill="#aed1f0" stroke="#aed1f0" stroke-width="1.51"/><path d="M880,201L941,123L794,103Z" fill="#a5c1f0" stroke="#a5c1f0" stroke-width="1.51"/><path d="M794,103L769,-67L693,-3Z" fill="#afcaf0" stroke="#afcaf0" stroke-width="1.51"/><path d="M1087,244L941,123L880,201Z" fill="#a8c7f1" stroke="#a8c7f1" stroke-width="1.51"/><path d="M1087,244L880,201L916,318Z" fill="#92c4f0" stroke="#92c4f0" stroke-width="1.51"/><path d="M693,-3L540,-32L678,86Z" fill="#acd0f0" stroke="#acd0f0" stroke-width="1.51"/><path d="M403,104L323,71L292,213Z" fill="#bcd3f3" stroke="#bcd3f3" stroke-width="1.51"/><path d="M292,213L202,176L234,302Z" fill="#b0d1f2" stroke="#b0d1f2" stroke-width="1.51"/><path d="M329,-50L323,71L403,104Z" fill="#c6d8f2" stroke="#c6d8f2" stroke-width="1.51"/><path d="M656,724L699,778L836,657Z" fill="#a9c9f0" stroke="#a9c9f0" stroke-width="1.51"/><path d="M836,657L909,674L948,575Z" fill="#aac4f1" stroke="#aac4f1" stroke-width="1.51"/><path d="M545,840L656,724L598,697Z" fill="#abd3f0" stroke="#abd3f0" stroke-width="1.51"/><path d="M951,438L1036,420L916,318Z" fill="#84b9ef" stroke="#84b9ef" stroke-width="1.51"/><path d="M948,575L1036,420L951,438Z" fill="#8eb5ef" stroke="#8eb5ef" stroke-width="1.51"/><path d="M839,803L909,674L836,657Z" fill="#b0c6f0" stroke="#b0c6f0" stroke-width="1.51"/><path d="M948,575L1086,587L1036,420Z" fill="#a3c0f0" stroke="#a3c0f0" stroke-width="1.51"/><path d="M314,555L354,724L415,700Z" fill="#bcd4f3" stroke="#bcd4f3" stroke-width="1.51"/><path d="M415,700L479,810L598,697Z" fill="#b0d6f1" stroke="#b0d6f1" stroke-width="1.51"/><path d="M191,593L354,724L314,555Z" fill="#c4d3f3" stroke="#c4d3f3" stroke-width="1.51"/><path d="M914,-28L769,-67L794,103Z" fill="#b2c6ef" stroke="#b2c6ef" stroke-width="1.51"/><path d="M693,-3L669,-147L540,-32Z" fill="#aed1f0" stroke="#aed1f0" stroke-width="1.51"/><path d="M1036,420L1078,343L916,318Z" fill="#8ac0f0" stroke="#8ac0f0" stroke-width="1.51"/><path d="M1177,439L1078,343L1036,420Z" fill="#9ac3f0" stroke="#9ac3f0" stroke-width="1.51"/><path d="M323,71L202,176L292,213Z" fill="#c4d3f3" stroke="#c4d3f3" stroke-width="1.51"/><path d="M117,353L169,478L290,401Z" fill="#a1c4f0" stroke="#a1c4f0" stroke-width="1.51"/><path d="M117,353L290,401L234,302Z" fill="#9dcaf1" stroke="#9dcaf1" stroke-width="1.51"/><path d="M354,724L479,810L415,700Z" fill="#bed8f2" stroke="#bed8f2" stroke-width="1.51"/><path d="M540,-32L450,-72L403,104Z" fill="#bad9f1" stroke="#bad9f1" stroke-width="1.51"/><path d="M323,71L191,55L202,176Z" fill="#ced8f3" stroke="#ced8f3" stroke-width="1.51"/><path d="M583,-171L450,-72L540,-32Z" fill="#b0d7f1" stroke="#b0d7f1" stroke-width="1.51"/><path d="M479,810L545,840L598,697Z" fill="#add7f1" stroke="#add7f1" stroke-width="1.51"/><path d="M941,123L914,-28L794,103Z" fill="#b2c7f0" stroke="#b2c7f0" stroke-width="1.51"/><path d="M1078,343L1087,244L916,318Z" fill="#8dc8f0" stroke="#8dc8f0" stroke-width="1.51"/><path d="M169,478L191,593L314,555Z" fill="#b5caf2" stroke="#b5caf2" stroke-width="1.51"/><path d="M775,882L839,803L699,778Z" fill="#b1c9f0" stroke="#b1c9f0" stroke-width="1.51"/><path d="M699,778L839,803L836,657Z" fill="#aec6ef" stroke="#aec6ef" stroke-width="1.51"/><path d="M1027,47L914,-28L941,123Z" fill="#bfcff1" stroke="#bfcff1" stroke-width="1.51"/><path d="M202,176L117,353L234,302Z" fill="#a7d1f2" stroke="#a7d1f2" stroke-width="1.51"/><path d="M169,478L90,541L191,593Z" fill="#baccf2" stroke="#baccf2" stroke-width="1.51"/><path d="M450,-72L329,-50L403,104Z" fill="#c5daf2" stroke="#c5daf2" stroke-width="1.51"/><path d="M842,-146L669,-147L769,-67Z" fill="#b0c9f0" stroke="#b0c9f0" stroke-width="1.51"/><path d="M769,-67L669,-147L693,-3Z" fill="#b0cdf0" stroke="#b0cdf0" stroke-width="1.51"/><path d="M450,-72L329,-131L329,-50Z" fill="#c9dbf2" stroke="#c9dbf2" stroke-width="1.51"/><path d="M1054,699L948,575L909,674Z" fill="#b7cbf2" stroke="#b7cbf2" stroke-width="1.51"/><path d="M1054,699L1086,587L948,575Z" fill="#bccef2" stroke="#bccef2" stroke-width="1.51"/><path d="M1078,343L1189,358L1087,244Z" fill="#98cdf1" stroke="#98cdf1" stroke-width="1.51"/><path d="M1087,244L1027,47L941,123Z" fill="#bccdf2" stroke="#bccdf2" stroke-width="1.51"/><path d="M545,840L561,892L699,778Z" fill="#add4f0" stroke="#add4f0" stroke-width="1.51"/><path d="M478,891L561,892L545,840Z" fill="#afd7f1" stroke="#afd7f1" stroke-width="1.51"/><path d="M478,891L545,840L479,810Z" fill="#b4d8f1" stroke="#b4d8f1" stroke-width="1.51"/><path d="M478,891L479,810L321,929Z" fill="#c0daf2" stroke="#c0daf2" stroke-width="1.51"/><path d="M329,-50L191,55L323,71Z" fill="#d4dbf3" stroke="#d4dbf3" stroke-width="1.51"/><path d="M202,176L55,209L117,353Z" fill="#b5d5f2" stroke="#b5d5f2" stroke-width="1.51"/><path d="M839,803L948,783L909,674Z" fill="#bbccf0" stroke="#bbccf0" stroke-width="1.51"/><path d="M935,887L948,783L839,803Z" fill="#becdf0" stroke="#becdf0" stroke-width="1.51"/><path d="M117,353L94,462L169,478Z" fill="#a7c5f0" stroke="#a7c5f0" stroke-width="1.51"/><path d="M669,-147L583,-171L540,-32Z" fill="#add4f0" stroke="#add4f0" stroke-width="1.51"/><path d="M689,953L775,882L699,778Z" fill="#b0ccf0" stroke="#b0ccf0" stroke-width="1.51"/><path d="M285,821L479,810L354,724Z" fill="#c9dbf2" stroke="#c9dbf2" stroke-width="1.51"/><path d="M1021,768L1054,699L909,674Z" fill="#c4d1f2" stroke="#c4d1f2" stroke-width="1.51"/><path d="M583,-171L447,-162L450,-72Z" fill="#b5d8f1" stroke="#b5d8f1" stroke-width="1.51"/><path d="M329,-50L162,-78L191,55Z" fill="#dbdef3" stroke="#dbdef3" stroke-width="1.51"/><path d="M94,462L90,541L169,478Z" fill="#b1c6f0" stroke="#b1c6f0" stroke-width="1.51"/><path d="M182,780L285,821L354,724Z" fill="#d8ddf3" stroke="#d8ddf3" stroke-width="1.51"/><path d="M914,-28L842,-146L769,-67Z" fill="#b5c8f0" stroke="#b5c8f0" stroke-width="1.51"/><path d="M669,-147L884,-174L583,-171Z" fill="#b0cdf0" stroke="#b0cdf0" stroke-width="1.51"/><path d="M884,-174L842,-146L914,-28Z" fill="#bacbf0" stroke="#bacbf0" stroke-width="1.51"/><path d="M1176,534L1036,420L1086,587Z" fill="#abc4f1" stroke="#abc4f1" stroke-width="1.51"/><path d="M1176,534L1177,439L1036,420Z" fill="#9fbef0" stroke="#9fbef0" stroke-width="1.51"/><path d="M1202,106L1043,-22L1027,47Z" fill="#d2daf3" stroke="#d2daf3" stroke-width="1.51"/><path d="M165,720L354,724L191,593Z" fill="#cfd8f3" stroke="#cfd8f3" stroke-width="1.51"/><path d="M948,783L1021,768L909,674Z" fill="#c2d0f1" stroke="#c2d0f1" stroke-width="1.51"/><path d="M935,887L1021,768L948,783Z" fill="#c6d2f1" stroke="#c6d2f1" stroke-width="1.51"/><path d="M1177,439L1189,358L1078,343Z" fill="#9dc7f1" stroke="#9dc7f1" stroke-width="1.51"/><path d="M1202,106L1027,47L1087,244Z" fill="#c8d5f3" stroke="#c8d5f3" stroke-width="1.51"/><path d="M1027,47L1043,-22L914,-28Z" fill="#cbd5f2" stroke="#cbd5f2" stroke-width="1.51"/><path d="M447,-162L329,-131L450,-72Z" fill="#c3daf2" stroke="#c3daf2" stroke-width="1.51"/><path d="M80,651L165,720L191,593Z" fill="#d3daf3" stroke="#d3daf3" stroke-width="1.51"/><path d="M1154,708L1176,534L1086,587Z" fill="#c7d4f3" stroke="#c7d4f3" stroke-width="1.51"/><path d="M1177,439L1279,451L1189,358Z" fill="#a4c5f0" stroke="#a4c5f0" stroke-width="1.51"/><path d="M1154,708L1086,587L1054,699Z" fill="#cbd6f3" stroke="#cbd6f3" stroke-width="1.51"/><path d="M117,353L-22,326L94,462Z" fill="#aaccf0" stroke="#aaccf0" stroke-width="1.51"/><path d="M94,462L-28,553L90,541Z" fill="#bccdf1" stroke="#bccdf1" stroke-width="1.51"/><path d="M52,96L55,209L202,176Z" fill="#cfd8f3" stroke="#cfd8f3" stroke-width="1.51"/><path d="M52,96L202,176L191,55Z" fill="#d3daf3" stroke="#d3daf3" stroke-width="1.51"/><path d="M478,891L689,953L561,892Z" fill="#add5f1" stroke="#add5f1" stroke-width="1.51"/><path d="M561,892L689,953L699,778Z" fill="#aed0f0" stroke="#aed0f0" stroke-width="1.51"/><path d="M775,882L935,887L839,803Z" fill="#b6c8f0" stroke="#b6c8f0" stroke-width="1.51"/><path d="M1189,358L1188,204L1087,244Z" fill="#a7d0f2" stroke="#a7d0f2" stroke-width="1.51"/><path d="M1062,-122L884,-174L914,-28Z" fill="#c5d1f1" stroke="#c5d1f1" stroke-width="1.51"/><path d="M842,-146L884,-174L669,-147Z" fill="#b1c7ef" stroke="#b1c7ef" stroke-width="1.51"/><path d="M165,720L182,780L354,724Z" fill="#d7dcf3" stroke="#d7dcf3" stroke-width="1.51"/><path d="M115,767L182,780L165,720Z" fill="#dfe0f3" stroke="#dfe0f3" stroke-width="1.51"/><path d="M689,953L935,887L775,882Z" fill="#b1c7ef" stroke="#b1c7ef" stroke-width="1.51"/><path d="M-28,553L80,651L90,541Z" fill="#ccd6f2" stroke="#ccd6f2" stroke-width="1.51"/><path d="M90,541L80,651L191,593Z" fill="#cad5f2" stroke="#cad5f2" stroke-width="1.51"/><path d="M93,-60L52,96L191,55Z" fill="#dfe1f2" stroke="#dfe1f2" stroke-width="1.51"/><path d="M1139,771L1054,699L1021,768Z" fill="#d2d9f3" stroke="#d2d9f3" stroke-width="1.51"/><path d="M1139,771L1154,708L1054,699Z" fill="#d4dbf3" stroke="#d4dbf3" stroke-width="1.51"/><path d="M478,891L321,929L689,953Z" fill="#b5d8f1" stroke="#b5d8f1" stroke-width="1.51"/><path d="M285,821L321,929L479,810Z" fill="#cadbf2" stroke="#cadbf2" stroke-width="1.51"/><path d="M183,895L321,929L285,821Z" fill="#d9ddf3" stroke="#d9ddf3" stroke-width="1.51"/><path d="M227,-158L162,-78L329,-50Z" fill="#dadef3" stroke="#dadef3" stroke-width="1.51"/><path d="M1188,204L1202,106L1087,244Z" fill="#c0d5f3" stroke="#c0d5f3" stroke-width="1.51"/><path d="M1043,-22L1062,-122L914,-28Z" fill="#ccd5f2" stroke="#ccd5f2" stroke-width="1.51"/><path d="M1298,221L1202,106L1188,204Z" fill="#c8d7f3" stroke="#c8d7f3" stroke-width="1.51"/><path d="M55,209L-22,326L117,353Z" fill="#abd5f1" stroke="#abd5f1" stroke-width="1.51"/><path d="M-22,163L-22,326L55,209Z" fill="#c1daf2" stroke="#c1daf2" stroke-width="1.51"/><path d="M182,780L183,895L285,821Z" fill="#dcdff3" stroke="#dcdff3" stroke-width="1.51"/><path d="M80,651L115,767L165,720Z" fill="#dcdff2" stroke="#dcdff2" stroke-width="1.51"/><path d="M-20,813L115,767L80,651Z" fill="#e4e3f2" stroke="#e4e3f2" stroke-width="1.51"/><path d="M-76,-193L227,-158L447,-162Z" fill="#dddff3" stroke="#dddff3" stroke-width="1.51"/><path d="M447,-162L227,-158L329,-131Z" fill="#cedbf2" stroke="#cedbf2" stroke-width="1.51"/><path d="M329,-131L227,-158L329,-50Z" fill="#d5dcf3" stroke="#d5dcf3" stroke-width="1.51"/><path d="M1014,932L1139,771L1021,768Z" fill="#d3daf2" stroke="#d3daf2" stroke-width="1.51"/><path d="M1182,-58L1062,-122L1043,-22Z" fill="#d8ddf3" stroke="#d8ddf3" stroke-width="1.51"/><path d="M1189,358L1298,221L1188,204Z" fill="#afd4f2" stroke="#afd4f2" stroke-width="1.51"/><path d="M1176,534L1279,451L1177,439Z" fill="#a9c3f0" stroke="#a9c3f0" stroke-width="1.51"/><path d="M1260,555L1279,451L1176,534Z" fill="#b5c9f1" stroke="#b5c9f1" stroke-width="1.51"/><path d="M1260,555L1176,534L1267,688Z" fill="#c9d4f3" stroke="#c9d4f3" stroke-width="1.51"/><path d="M1267,688L1176,534L1154,708Z" fill="#d0d9f3" stroke="#d0d9f3" stroke-width="1.51"/><path d="M-14,117L-22,163L52,96Z" fill="#dbdff3" stroke="#dbdff3" stroke-width="1.51"/><path d="M52,96L-22,163L55,209Z" fill="#d5dcf3" stroke="#d5dcf3" stroke-width="1.51"/><path d="M-71,465L94,462L-22,326Z" fill="#b0cbf0" stroke="#b0cbf0" stroke-width="1.51"/><path d="M-71,465L-28,553L94,462Z" fill="#bacaf0" stroke="#bacaf0" stroke-width="1.51"/><path d="M162,-78L93,-60L191,55Z" fill="#e1e1f3" stroke="#e1e1f3" stroke-width="1.51"/><path d="M68,-155L93,-60L162,-78Z" fill="#e4e3f2" stroke="#e4e3f2" stroke-width="1.51"/><path d="M-42,-58L-14,117L52,96Z" fill="#e5e3f2" stroke="#e5e3f2" stroke-width="1.51"/><path d="M115,767L183,895L182,780Z" fill="#e0e1f3" stroke="#e0e1f3" stroke-width="1.51"/><path d="M118,960L183,895L115,767Z" fill="#e2e2f3" stroke="#e2e2f3" stroke-width="1.51"/><path d="M935,887L1014,932L1021,768Z" fill="#cad4f2" stroke="#cad4f2" stroke-width="1.51"/><path d="M689,953L1014,932L935,887Z" fill="#bacbf0" stroke="#bacbf0" stroke-width="1.51"/><path d="M1202,106L1182,-58L1043,-22Z" fill="#dadef3" stroke="#dadef3" stroke-width="1.51"/><path d="M1325,359L1298,221L1189,358Z" fill="#a5d3f1" stroke="#a5d3f1" stroke-width="1.51"/><path d="M-126,334L-71,465L-22,326Z" fill="#afcff0" stroke="#afcff0" stroke-width="1.51"/><path d="M1283,49L1182,-58L1202,106Z" fill="#dddff3" stroke="#dddff3" stroke-width="1.51"/><path d="M1279,451L1325,359L1189,358Z" fill="#a7caf0" stroke="#a7caf0" stroke-width="1.51"/><path d="M1411,485L1325,359L1279,451Z" fill="#aec8f0" stroke="#aec8f0" stroke-width="1.51"/><path d="M1260,555L1396,534L1279,451Z" fill="#bbccf1" stroke="#bbccf1" stroke-width="1.51"/><path d="M1242,804L1267,688L1154,708Z" fill="#dddff3" stroke="#dddff3" stroke-width="1.51"/><path d="M1242,804L1154,708L1139,771Z" fill="#dddff3" stroke="#dddff3" stroke-width="1.51"/><path d="M1062,-122L1136,-142L884,-174Z" fill="#cfd7f2" stroke="#cfd7f2" stroke-width="1.51"/><path d="M1182,-58L1136,-142L1062,-122Z" fill="#dadef3" stroke="#dadef3" stroke-width="1.51"/><path d="M1182,-58L1280,-114L1136,-142Z" fill="#e0e1f3" stroke="#e0e1f3" stroke-width="1.51"/><path d="M1361,122L1283,49L1202,106Z" fill="#dadef3" stroke="#dadef3" stroke-width="1.51"/><path d="M1361,122L1202,106L1298,221Z" fill="#d3daf3" stroke="#d3daf3" stroke-width="1.51"/><path d="M-152,222L-126,334L-22,326Z" fill="#b0d7f1" stroke="#b0d7f1" stroke-width="1.51"/><path d="M-152,222L-22,326L-22,163Z" fill="#c1daf2" stroke="#c1daf2" stroke-width="1.51"/><path d="M93,-60L-42,-58L52,96Z" fill="#e9e5f2" stroke="#e9e5f2" stroke-width="1.51"/><path d="M-152,105L-152,222L-22,163Z" fill="#d5dcf3" stroke="#d5dcf3" stroke-width="1.51"/><path d="M227,-158L68,-155L162,-78Z" fill="#e1e1f3" stroke="#e1e1f3" stroke-width="1.51"/><path d="M-76,-193L68,-155L227,-158Z" fill="#e6e4f2" stroke="#e6e4f2" stroke-width="1.51"/><path d="M1160,932L1242,804L1139,771Z" fill="#dee0f3" stroke="#dee0f3" stroke-width="1.51"/><path d="M-117,600L-28,553L-71,465Z" fill="#c6d2f1" stroke="#c6d2f1" stroke-width="1.51"/><path d="M-117,600L-66,704L-28,553Z" fill="#d8ddf3" stroke="#d8ddf3" stroke-width="1.51"/><path d="M-28,553L-66,704L80,651Z" fill="#dbdef3" stroke="#dbdef3" stroke-width="1.51"/><path d="M-157,467L-117,600L-71,465Z" fill="#becdf0" stroke="#becdf0" stroke-width="1.51"/><path d="M-20,813L118,960L115,767Z" fill="#e6e4f2" stroke="#e6e4f2" stroke-width="1.51"/><path d="M183,895L118,960L321,929Z" fill="#dddff3" stroke="#dddff3" stroke-width="1.51"/><path d="M321,929L118,960L689,953Z" fill="#c8daf2" stroke="#c8daf2" stroke-width="1.51"/><path d="M-66,704L-20,813L80,651Z" fill="#e6e4f2" stroke="#e6e4f2" stroke-width="1.51"/><path d="M-175,805L-20,813L-66,704Z" fill="#ebe7f2" stroke="#ebe7f2" stroke-width="1.51"/><path d="M1317,-66L1280,-114L1182,-58Z" fill="#e4e3f2" stroke="#e4e3f2" stroke-width="1.51"/><path d="M1419,176L1361,122L1298,221Z" fill="#d2dcf3" stroke="#d2dcf3" stroke-width="1.51"/><path d="M1014,932L1160,932L1139,771Z" fill="#d9ddf3" stroke="#d9ddf3" stroke-width="1.51"/><path d="M1307,957L1160,932L1014,932Z" fill="#dddff3" stroke="#dddff3" stroke-width="1.51"/><path d="M-126,334L-157,467L-71,465Z" fill="#b0caf0" stroke="#b0caf0" stroke-width="1.51"/><path d="M-126,334L-152,222L-157,467Z" fill="#add3f0" stroke="#add3f0" stroke-width="1.51"/><path d="M-152,105L-22,163L-14,117Z" fill="#dbdef3" stroke="#dbdef3" stroke-width="1.51"/><path d="M68,-155L-42,-58L93,-60Z" fill="#e8e5f2" stroke="#e8e5f2" stroke-width="1.51"/><path d="M1394,693L1260,555L1267,688Z" fill="#d8ddf3" stroke="#d8ddf3" stroke-width="1.51"/><path d="M1394,693L1396,534L1260,555Z" fill="#d2d9f2" stroke="#d2d9f2" stroke-width="1.51"/><path d="M1325,359L1425,362L1298,221Z" fill="#abd6f1" stroke="#abd6f1" stroke-width="1.51"/><path d="M1396,534L1411,485L1279,451Z" fill="#b8caf0" stroke="#b8caf0" stroke-width="1.51"/><path d="M1411,485L1425,362L1325,359Z" fill="#afccf0" stroke="#afccf0" stroke-width="1.51"/><path d="M-152,222L-202,908L-157,467Z" fill="#c4d1f1" stroke="#c4d1f1" stroke-width="1.51"/><path d="M-143,-1L-152,105L-14,117Z" fill="#e2e2f3" stroke="#e2e2f3" stroke-width="1.51"/><path d="M1317,-66L1182,-58L1283,49Z" fill="#e4e3f2" stroke="#e4e3f2" stroke-width="1.51"/><path d="M1414,-20L1317,-66L1283,49Z" fill="#e9e6f2" stroke="#e9e6f2" stroke-width="1.51"/><path d="M1414,-20L1283,49L1361,122Z" fill="#e4e3f2" stroke="#e4e3f2" stroke-width="1.51"/><path d="M1425,362L1419,176L1298,221Z" fill="#bcd9f1" stroke="#bcd9f1" stroke-width="1.51"/><path d="M-157,467L-148,700L-117,600Z" fill="#d2d9f2" stroke="#d2d9f2" stroke-width="1.51"/><path d="M-117,600L-148,700L-66,704Z" fill="#dfe0f3" stroke="#dfe0f3" stroke-width="1.51"/><path d="M-20,813L-66,916L118,960Z" fill="#ebe6f2" stroke="#ebe6f2" stroke-width="1.51"/><path d="M1396,534L1492,591L1411,485Z" fill="#c5d1f1" stroke="#c5d1f1" stroke-width="1.51"/><path d="M1411,485L1546,475L1425,362Z" fill="#b1c8ef" stroke="#b1c8ef" stroke-width="1.51"/><path d="M1385,775L1394,693L1267,688Z" fill="#e4e3f2" stroke="#e4e3f2" stroke-width="1.51"/><path d="M1385,775L1267,688L1242,804Z" fill="#e5e3f2" stroke="#e5e3f2" stroke-width="1.51"/><path d="M-42,-58L-143,-1L-14,117Z" fill="#e9e5f2" stroke="#e9e5f2" stroke-width="1.51"/><path d="M-163,-160L-143,-1L-42,-58Z" fill="#ebe7f2" stroke="#ebe7f2" stroke-width="1.51"/><path d="M1363,880L1385,775L1242,804Z" fill="#e9e5f2" stroke="#e9e5f2" stroke-width="1.51"/><path d="M-175,805L-66,916L-20,813Z" fill="#ebe7f2" stroke="#ebe7f2" stroke-width="1.51"/><path d="M1496,94L1414,-20L1361,122Z" fill="#e3e2f2" stroke="#e3e2f2" stroke-width="1.51"/><path d="M1317,-66L1400,-196L1280,-114Z" fill="#e9e6f2" stroke="#e9e6f2" stroke-width="1.51"/><path d="M1496,94L1361,122L1419,176Z" fill="#dbdef3" stroke="#dbdef3" stroke-width="1.51"/><path d="M68,-155L-76,-193L-42,-58Z" fill="#ebe7f2" stroke="#ebe7f2" stroke-width="1.51"/><path d="M583,-171L-76,-193L447,-162Z" fill="#d1dcf2" stroke="#d1dcf2" stroke-width="1.51"/><path d="M884,-174L-76,-193L583,-171Z" fill="#bad9f1" stroke="#bad9f1" stroke-width="1.51"/><path d="M1518,701L1492,591L1394,693Z" fill="#dee0f3" stroke="#dee0f3" stroke-width="1.51"/><path d="M1394,693L1492,591L1396,534Z" fill="#d6dbf3" stroke="#d6dbf3" stroke-width="1.51"/><path d="M1562,168L1496,94L1419,176Z" fill="#d9ddf3" stroke="#d9ddf3" stroke-width="1.51"/><path d="M1385,775L1518,701L1394,693Z" fill="#e6e4f2" stroke="#e6e4f2" stroke-width="1.51"/><path d="M1307,957L1363,880L1242,804Z" fill="#e7e4f2" stroke="#e7e4f2" stroke-width="1.51"/><path d="M1160,932L1307,957L1242,804Z" fill="#e2e2f3" stroke="#e2e2f3" stroke-width="1.51"/><path d="M689,953L1307,957L1014,932Z" fill="#ccd5f2" stroke="#ccd5f2" stroke-width="1.51"/><path d="M1562,963L1307,957L689,953Z" fill="#dfe0f3" stroke="#dfe0f3" stroke-width="1.51"/><path d="M-202,908L-175,805L-157,467Z" fill="#e6e4f2" stroke="#e6e4f2" stroke-width="1.51"/><path d="M-157,467L-175,805L-148,700Z" fill="#dde0f3" stroke="#dde0f3" stroke-width="1.51"/><path d="M-148,700L-175,805L-66,704Z" fill="#e7e5f2" stroke="#e7e5f2" stroke-width="1.51"/><path d="M1560,303L1419,176L1425,362Z" fill="#b4d8f1" stroke="#b4d8f1" stroke-width="1.51"/><path d="M1492,591L1546,475L1411,485Z" fill="#c0cef1" stroke="#c0cef1" stroke-width="1.51"/><path d="M1634,455L1546,475L1679,566Z" fill="#bbccf0" stroke="#bbccf0" stroke-width="1.51"/><path d="M1546,475L1560,303L1425,362Z" fill="#afcff0" stroke="#afcff0" stroke-width="1.51"/><path d="M-76,-193L-163,-160L-42,-58Z" fill="#ebe7f2" stroke="#ebe7f2" stroke-width="1.51"/><path d="M-143,-1L-163,-160L-152,105Z" fill="#ebe7f2" stroke="#ebe7f2" stroke-width="1.51"/><path d="M-152,105L-163,-160L-152,222Z" fill="#e4e3f2" stroke="#e4e3f2" stroke-width="1.51"/><path d="M1555,767L1518,701L1385,775Z" fill="#e9e5f2" stroke="#e9e5f2" stroke-width="1.51"/><path d="M1555,767L1385,775L1363,880Z" fill="#ebe7f2" stroke="#ebe7f2" stroke-width="1.51"/><path d="M1485,-135L1400,-196L1414,-20Z" fill="#ebe7f2" stroke="#ebe7f2" stroke-width="1.51"/><path d="M1414,-20L1400,-196L1317,-66Z" fill="#ebe7f2" stroke="#ebe7f2" stroke-width="1.51"/><path d="M1280,-114L1400,-196L1136,-142Z" fill="#e5e3f2" stroke="#e5e3f2" stroke-width="1.51"/><path d="M1136,-142L1400,-196L884,-174Z" fill="#dbdef3" stroke="#dbdef3" stroke-width="1.51"/><path d="M884,-174L1400,-196L-76,-193Z" fill="#b0cbf0" stroke="#b0cbf0" stroke-width="1.51"/><path d="M1544,-31L1485,-135L1414,-20Z" fill="#ebe7f2" stroke="#ebe7f2" stroke-width="1.51"/><path d="M1560,303L1562,168L1419,176Z" fill="#c7daf2" stroke="#c7daf2" stroke-width="1.51"/><path d="M-175,805L-202,908L-66,916Z" fill="#ebe7f2" stroke="#ebe7f2" stroke-width="1.51"/><path d="M-66,916L-202,908L118,960Z" fill="#ebe7f2" stroke="#ebe7f2" stroke-width="1.51"/><path d="M-163,-160L-202,908L-152,222Z" fill="#add5f1" stroke="#add5f1" stroke-width="1.51"/><path d="M1544,-31L1414,-20L1496,94Z" fill="#e9e6f2" stroke="#e9e6f2" stroke-width="1.51"/><path d="M1652,94L1544,-31L1496,94Z" fill="#e5e3f2" stroke="#e5e3f2" stroke-width="1.51"/><path d="M1560,303L1611,170L1562,168Z" fill="#c7daf2" stroke="#c7daf2" stroke-width="1.51"/><path d="M1562,168L1652,94L1496,94Z" fill="#dcdff3" stroke="#dcdff3" stroke-width="1.51"/><path d="M1546,475L1625,325L1560,303Z" fill="#aed0f0" stroke="#aed0f0" stroke-width="1.51"/><path d="M1634,455L1625,325L1546,475Z" fill="#b0cbf0" stroke="#b0cbf0" stroke-width="1.51"/><path d="M1625,325L1611,170L1560,303Z" fill="#b8d9f1" stroke="#b8d9f1" stroke-width="1.51"/><path d="M1679,566L1546,475L1492,591Z" fill="#c6d2f1" stroke="#c6d2f1" stroke-width="1.51"/><path d="M1562,963L1555,767L1363,880Z" fill="#ebe7f2" stroke="#ebe7f2" stroke-width="1.51"/><path d="M1679,566L1492,591L1643,711Z" fill="#d9ddf3" stroke="#d9ddf3" stroke-width="1.51"/><path d="M1611,170L1652,94L1562,168Z" fill="#d9ddf3" stroke="#d9ddf3" stroke-width="1.51"/><path d="M1544,-31L1602,-140L1485,-135Z" fill="#ebe7f2" stroke="#ebe7f2" stroke-width="1.51"/><path d="M1625,325L1652,94L1611,170Z" fill="#ccdbf2" stroke="#ccdbf2" stroke-width="1.51"/><path d="M1679,566L1652,94L1625,325Z" fill="#add5f1" stroke="#add5f1" stroke-width="1.51"/><path d="M1643,711L1492,591L1518,701Z" fill="#dfe0f3" stroke="#dfe0f3" stroke-width="1.51"/><path d="M1634,455L1679,566L1625,325Z" fill="#b1c7ef" stroke="#b1c7ef" stroke-width="1.51"/><path d="M1555,767L1643,711L1518,701Z" fill="#e6e4f2" stroke="#e6e4f2" stroke-width="1.51"/><path d="M1641,844L1643,711L1555,767Z" fill="#ebe7f2" stroke="#ebe7f2" stroke-width="1.51"/><path d="M1654,-42L1602,-140L1544,-31Z" fill="#ebe7f2" stroke="#ebe7f2" stroke-width="1.51"/><path d="M1485,-135L1602,-140L1400,-196Z" fill="#ebe7f2" stroke="#ebe7f2" stroke-width="1.51"/><path d="M1652,94L1654,-42L1544,-31Z" fill="#eae6f2" stroke="#eae6f2" stroke-width="1.51"/><path d="M1679,566L1654,-42L1652,94Z" fill="#c9dbf2" stroke="#c9dbf2" stroke-width="1.51"/><path d="M118,960L1562,963L689,953Z" fill="#b1c8ef" stroke="#b1c8ef" stroke-width="1.51"/><path d="M1307,957L1562,963L1363,880Z" fill="#ebe7f2" stroke="#ebe7f2" stroke-width="1.51"/><path d="M1562,963L1641,844L1555,767Z" fill="#ebe7f2" stroke="#ebe7f2" stroke-width="1.51"/><path d="M1643,711L1676,955L1679,566Z" fill="#e8e5f2" stroke="#e8e5f2" stroke-width="1.51"/><path d="M1562,963L1676,955L1641,844Z" fill="#ebe7f2" stroke="#ebe7f2" stroke-width="1.51"/><path d="M1641,844L1676,955L1643,711Z" fill="#ebe7f2" stroke="#ebe7f2" stroke-width="1.51"/></svg>